<?xml version="1.0" encoding="UTF-8" standalone="no"?>
<!--Generator: Apple Native CoreSVG 175.5-->

<svg
   version="1.1"
   width="89.648483"
   height="71.53318"
   id="svg124"
   sodipodi:docname="book-fill.svg"
   inkscape:version="1.2.1 (9c6d41e4, 2022-07-14)"
   xmlns:inkscape="http://www.inkscape.org/namespaces/inkscape"
   xmlns:sodipodi="http://sodipodi.sourceforge.net/DTD/sodipodi-0.dtd"
   xmlns="http://www.w3.org/2000/svg"
   xmlns:svg="http://www.w3.org/2000/svg">
  <defs
     id="defs128" />
  <sodipodi:namedview
     id="namedview126"
     pagecolor="#ffffff"
     bordercolor="#000000"
     borderopacity="0.25"
     inkscape:showpageshadow="2"
     inkscape:pageopacity="0.0"
     inkscape:pagecheckerboard="0"
     inkscape:deskcolor="#d1d1d1"
     showgrid="false"
     inkscape:zoom="0.86425375"
     inkscape:cx="93.143941"
     inkscape:cy="54.96071"
     inkscape:window-width="1440"
     inkscape:window-height="789"
     inkscape:window-x="0"
     inkscape:window-y="25"
     inkscape:window-maximized="1"
     inkscape:current-layer="svg124" />
  <!--glyph: "uni10025B.medium", point size: 100.0, font version: "18.0d10e1", template writer version: "90"-->
  <style
     id="style2">.monochrome-0 {fill:#000000}

.SFSymbolsPreview000000 {fill:#000000;opacity:1.0}
</style>
  <g
     id="Symbols"
     style="fill:#f3f3cd;fill-opacity:1"
     transform="translate(-1405.0156,-624.9551)">
    <g
       id="Regular-S"
       transform="translate(1395.25,696)"
       style="fill:#f3f3cd;fill-opacity:1">
      <path
         class="monochrome-0 SFSymbolsPreview000000"
         d="m 77.7344,-71.0449 c -8.3496,0 -15.8692,3.4179 -19.4336,8.8867 -0.8301,1.1719 -0.8789,1.3184 -0.8789,2.3926 v 57.37302 c 0,1.02539 0.7324,1.708986 1.6113,1.708986 0.4395,0 0.9766,-0.195312 1.416,-0.585936 4.2481,-3.66211 9.8145,-5.46875 15.4297,-5.46875 6.25,0 12.5,2.14844 17.334,6.201171 0.8301,0.732421 1.8066,1.02539 2.7832,1.02539 2.1484,0 3.418,-1.220703 3.418,-3.173831 V -57.2266 c 0,-1.5625 0,-2.0996 -0.4395,-2.8808 -3.9551,-6.8848 -12.6953,-10.9375 -21.2402,-10.9375 z m -46.2891,0 c -8.5449,0 -17.2851,4.0527 -21.2402,10.9375 -0.43948,0.7812 -0.43948,1.3183 -0.43948,2.8808 v 54.54105 c 0,1.953128 1.26958,3.173831 3.41798,3.173831 0.9766,0 1.9531,-0.292969 2.7832,-1.02539 4.834,-4.052731 11.084,-6.201171 17.2852,-6.201171 5.664,0 11.2304,1.80664 15.4785,5.46875 0.4394,0.390624 0.9765,0.585936 1.416,0.585936 0.8789,0 1.6113,-0.683596 1.6113,-1.708986 V -59.7656 c 0,-1.0742 -0.0488,-1.2207 -0.8789,-2.3926 -3.5644,-5.4688 -11.084,-8.8867 -19.4336,-8.8867 z"
         id="path117"
         style="fill:#f3f3cd;fill-opacity:1" />
    </g>
    <g
       id="Ultralight-S"
       transform="translate(509.344,696)"
       style="fill:#f3f3cd;fill-opacity:1" />
  </g>
</svg>
