<?xml version="1.0" encoding="UTF-8" standalone="no"?>
<!--Generator: Apple Native CoreSVG 175.5-->

<svg
   version="1.1"
   width="38.281288"
   height="68.066399"
   id="svg124"
   sodipodi:docname="chevron-backward.svg"
   inkscape:version="1.2.1 (9c6d41e4, 2022-07-14)"
   xmlns:inkscape="http://www.inkscape.org/namespaces/inkscape"
   xmlns:sodipodi="http://sodipodi.sourceforge.net/DTD/sodipodi-0.dtd"
   xmlns="http://www.w3.org/2000/svg"
   xmlns:svg="http://www.w3.org/2000/svg">
  <defs
     id="defs128" />
  <sodipodi:namedview
     id="namedview126"
     pagecolor="#ffffff"
     bordercolor="#000000"
     borderopacity="0.25"
     inkscape:showpageshadow="2"
     inkscape:pageopacity="0.0"
     inkscape:pagecheckerboard="0"
     inkscape:deskcolor="#d1d1d1"
     showgrid="false"
     inkscape:zoom="0.74632292"
     inkscape:cx="91.783326"
     inkscape:cy="314.8771"
     inkscape:window-width="1440"
     inkscape:window-height="788"
     inkscape:window-x="0"
     inkscape:window-y="25"
     inkscape:window-maximized="0"
     inkscape:current-layer="Symbols" />
  <!--glyph: "uni100BF6.medium", point size: 100.0, font version: "18.0d10e1", template writer version: "90"-->
  <style
     id="style2">.monochrome-0 {fill:#000000}

.SFSymbolsPreview000000 {fill:#000000;opacity:1.0}
</style>
  <g
     id="Symbols"
     transform="translate(-1425.8228,-626.7129)">
    <g
       id="Regular-S"
       transform="translate(1420.94,696)"
       style="fill:#f3f3cd;fill-opacity:1">
      <path
         class="monochrome-0 SFSymbolsPreview000000"
         d="m 4.88281,-35.2539 c 0,1.0742 0.43946,2.0508 1.22071,2.8809 L 36.2793,-2.39258 c 0.7324,0.78125 1.7578,1.17188 2.8809,1.17188 2.2949,0 4.0039,-1.70899 4.0039,-4.00391 0,-1.12305 -0.4395,-2.09961 -1.1719,-2.88086 L 14.7461,-35.2539 41.9922,-62.4023 c 0.7324,-0.7813 1.1719,-1.8067 1.1719,-2.8809 0,-2.2949 -1.709,-4.0039 -4.0039,-4.0039 -1.1231,0 -2.1485,0.3906 -2.8809,1.1719 L 6.10352,-38.1348 c -0.78125,0.8301 -1.22071,1.8067 -1.22071,2.8809 z"
         id="path117"
         style="fill:#f3f3cd;fill-opacity:1" />
    </g>
    <g
       id="Ultralight-S"
       transform="translate(533.212,696)" />
  </g>
</svg>
