<svg width="16" height="27" viewBox="0 0 16 27" fill="none" xmlns="http://www.w3.org/2000/svg">
<path d="M7.00007 25.5L7.00007 26.5L9.00007 26.5L9.00007 25.5L7.00007 25.5ZM8.70714 0.292893C8.31662 -0.097632 7.68345 -0.0976309 7.29293 0.292893L0.928977 6.65686C0.538453 7.04739 0.538454 7.68055 0.928979 8.07108C1.3195 8.4616 1.95267 8.4616 2.34319 8.07107L8.00004 2.41421L13.6569 8.07106C14.0474 8.46158 14.6806 8.46158 15.0711 8.07106C15.4616 7.68053 15.4616 7.04737 15.0711 6.65685L8.70714 0.292893ZM9.00007 25.5L9.00004 0.999999L7.00004 1L7.00007 25.5L9.00007 25.5Z" fill="#F3F3CD"/>
</svg>
