<svg width="67" height="91" viewBox="0 0 67 91" fill="none" xmlns="http://www.w3.org/2000/svg">
<path d="M20.75 14C20.75 12.2051 22.2051 10.75 24 10.75H28C29.7949 10.75 31.25 12.2051 31.25 14V27C31.25 28.7949 29.7949 30.25 28 30.25H24C22.2051 30.25 20.75 28.7949 20.75 27V14Z" fill="#091D12" stroke="#816E94" stroke-width="1.5"/>
<path d="M40.75 37C40.75 35.2051 42.2051 33.75 44 33.75H48C49.7949 33.75 51.25 35.2051 51.25 37V51C51.25 52.7949 49.7949 54.25 48 54.25H44C42.2051 54.25 40.75 52.7949 40.75 51V37Z" fill="#091D12" stroke="#816E94" stroke-width="1.5"/>
<path d="M55.75 4C55.75 2.20507 57.2051 0.75 59 0.75H63C64.7949 0.75 66.25 2.20507 66.25 4V17C66.25 18.7949 64.7949 20.25 63 20.25H59C57.2051 20.25 55.75 18.7949 55.75 17V4Z" fill="#091D12" stroke="#816E94" stroke-width="1.5"/>
<path d="M59 23.75H63C64.7949 23.75 66.25 25.2051 66.25 27V40C66.25 41.7949 64.7949 43.25 63 43.25H59C57.2051 43.25 55.75 41.7949 55.75 40V27C55.75 25.2051 57.2051 23.75 59 23.75Z" fill="#091D12" stroke="#816E94" stroke-width="1.5"/>
<path d="M55.75 51C55.75 49.2051 57.2051 47.75 59 47.75H63C64.7949 47.75 66.25 49.2051 66.25 51V64C66.25 65.7949 64.7949 67.25 63 67.25H59C57.2051 67.25 55.75 65.7949 55.75 64V51Z" fill="#091D12" stroke="#816E94" stroke-width="1.5"/>
<path d="M55.75 74C55.75 72.2051 57.2051 70.75 59 70.75H63C64.7949 70.75 66.25 72.2051 66.25 74V87C66.25 88.7949 64.7949 90.25 63 90.25H59C57.2051 90.25 55.75 88.7949 55.75 87V74Z" fill="#091D12" stroke="#816E94" stroke-width="1.5"/>
<path d="M0.75 37C0.75 35.2051 2.20508 33.75 4 33.75H8C9.79493 33.75 11.25 35.2051 11.25 37V51C11.25 52.7949 9.79493 54.25 8 54.25H4C2.20507 54.25 0.75 52.7949 0.75 51V37Z" fill="#091D12" stroke="#816E94" stroke-width="1.5"/>
<path d="M20.75 62C20.75 60.2051 22.2051 58.75 24 58.75H28C29.7949 58.75 31.25 60.2051 31.25 62V75C31.25 76.7949 29.7949 78.25 28 78.25H24C22.2051 78.25 20.75 76.7949 20.75 75V62Z" fill="#091D12" stroke="#816E94" stroke-width="1.5"/>
<path d="M33 38.75C34.7949 38.75 36.25 40.2051 36.25 42L36.25 46C36.25 47.7949 34.7949 49.25 33 49.25L19 49.25C17.2051 49.25 15.75 47.7949 15.75 46L15.75 42C15.75 40.2051 17.2051 38.75 19 38.75L33 38.75Z" fill="#091D12" stroke="#816E94" stroke-width="1.5"/>
<path d="M20.75 37C20.75 35.2051 22.2051 33.75 24 33.75H28C29.7949 33.75 31.25 35.2051 31.25 37V51C31.25 52.7949 29.7949 54.25 28 54.25H24C22.2051 54.25 20.75 52.7949 20.75 51V37Z" fill="#091D12" stroke="#816E94" stroke-width="1.5"/>
<path d="M26.0305 38.3216L26.409 43.3367L29.3815 43.983L26.4081 44.6252L26.0227 49.6397L25.6443 44.6247L22.6718 43.9784L25.6451 43.3362L26.0305 38.3216Z" fill="#816E94"/>
</svg>
