<svg width="68" height="56" viewBox="0 0 68 56" fill="none" xmlns="http://www.w3.org/2000/svg">
<path d="M19.1214 2C25.6207 2 31.4328 4.49948 33.8092 7.27064C36.1856 4.49948 41.9977 2 48.4683 2C57.029 2 63.9005 6.15674 65.5897 10.0961V50.9028C65.5897 53.1306 64.0723 54 62.3831 54C61.066 54 60.3216 53.6196 59.4627 53.0219C57.5444 51.4734 54.1659 49.6259 48.4683 49.6259C42.7707 49.6259 39.0487 51.5277 37.2449 52.8318C36.4146 53.3751 35.4984 54 33.8092 54C32.1199 54 31.1465 53.4566 30.3448 52.8318C28.6842 51.419 24.8476 49.6259 19.1214 49.6259C13.4525 49.6259 10.1312 51.4462 8.12706 53.0219C7.29676 53.6196 6.55235 54 5.20669 54C3.51745 54 2 53.1306 2 50.9028V10.0961C3.68924 6.15674 10.5607 2 19.1214 2Z" stroke="#816E94" stroke-width="3"/>
<path d="M33.7949 6V52.5" stroke="#816E94" stroke-width="2"/>
<path d="M48.9726 12.0064L50.0849 25.5143L58.8179 27.2552L50.0823 28.9848L48.9504 42.4912L47.8381 28.9833L39.1052 27.2424L47.8407 25.5128L48.9726 12.0064Z" fill="#816E94"/>
</svg>
