<svg width="340" height="83" viewBox="0 0 340 83" fill="none" xmlns="http://www.w3.org/2000/svg">
<path d="M35.0265 56.2812C35.0265 56.2604 35.0577 56.1667 35.1202 56C35.1827 55.8333 35.2556 55.6458 35.339 55.4375C35.4223 55.2292 35.5056 55.0208 35.589 54.8125C35.6931 54.5833 35.7661 54.4062 35.8077 54.2812C35.8494 54.2396 35.9327 54.1354 36.0577 53.9688L36.2452 53.7188C36.2869 53.6771 36.3286 53.5625 36.3702 53.375C36.4119 53.1667 36.4431 52.9375 36.464 52.6875C36.5056 52.5208 36.5369 52.3854 36.5577 52.2812C36.5786 52.1562 36.589 52.0833 36.589 52.0625C36.7973 51.5625 37.0056 51.1458 37.214 50.8125C37.4431 50.4792 37.6411 50.1562 37.8077 49.8438C37.9952 49.5312 38.1515 49.2083 38.2765 48.875C38.4015 48.5208 38.464 48.0833 38.464 47.5625C38.5681 47.5208 38.7036 47.4375 38.8702 47.3125C39.0369 47.1667 39.1931 47.0521 39.339 46.9688C39.3598 46.8646 39.4223 46.6667 39.5265 46.375C39.6306 46.0833 39.7452 45.7812 39.8702 45.4688C40.0161 45.1354 40.1411 44.8229 40.2452 44.5312C40.3702 44.2188 40.464 44 40.5265 43.875C40.6931 43.4792 40.8911 43.0833 41.1202 42.6875C41.3494 42.2708 41.5681 41.8438 41.7765 41.4062C42.0056 40.9688 42.1931 40.5312 42.339 40.0938C42.5056 39.6354 42.589 39.1667 42.589 38.6875L42.4327 38C42.2869 37.5833 42.1306 37.1771 41.964 36.7812C41.7973 36.3854 41.589 36.0312 41.339 35.7188C41.089 35.4062 40.7661 35.1562 40.3702 34.9688C39.9744 34.7812 39.4848 34.6875 38.9015 34.6875C38.4431 34.6875 38.0577 34.8125 37.7452 35.0625C37.4536 35.3125 37.1931 35.6146 36.964 35.9688C36.7556 36.3229 36.5577 36.6979 36.3702 37.0938C36.2036 37.4688 36.0161 37.7917 35.8077 38.0625C35.6827 38.1875 35.5056 38.2917 35.2765 38.375C35.0681 38.4375 34.9119 38.5833 34.8077 38.8125C34.7869 38.8333 34.7556 38.8854 34.714 38.9688C34.6931 39.0521 34.6515 39.1458 34.589 39.25C34.5473 39.3333 34.5056 39.4167 34.464 39.5C34.4431 39.5625 34.4223 39.6042 34.4015 39.625C34.3806 39.6875 34.3077 39.7812 34.1827 39.9062C34.0786 40.0104 33.964 40.1354 33.839 40.2812C33.714 40.4062 33.589 40.5312 33.464 40.6562C33.339 40.7604 33.2556 40.8333 33.214 40.875C32.1515 43.3958 31.1931 45.6771 30.339 47.7188C29.964 48.5938 29.589 49.4583 29.214 50.3125C28.8598 51.1667 28.5265 51.9479 28.214 52.6562C27.9223 53.3438 27.6619 53.9375 27.4327 54.4375C27.2036 54.9167 27.0473 55.2188 26.964 55.3438C26.7973 55.6771 26.6202 55.9583 26.4327 56.1875C26.2661 56.4167 26.0786 56.6354 25.8702 56.8438C25.6827 57.0312 25.464 57.2188 25.214 57.4062C24.9848 57.5938 24.714 57.7917 24.4015 58L23.6515 58.1562C23.3181 58.1562 23.0265 58.0833 22.7765 57.9375C22.5473 57.7708 22.3598 57.5729 22.214 57.3438C22.0681 57.0938 21.9536 56.8229 21.8702 56.5312C21.8077 56.2188 21.7765 55.9167 21.7765 55.625C21.7765 55.2917 21.9223 54.7917 22.214 54.125C22.5056 53.4375 22.839 52.7188 23.214 51.9688C23.589 51.2188 23.9431 50.5104 24.2765 49.8438C24.6306 49.1562 24.8702 48.6458 24.9952 48.3125C25.1619 47.9375 25.2661 47.5208 25.3077 47.0625C25.3702 46.5833 25.5369 46.1354 25.8077 45.7188C25.8702 45.5938 26.0056 45.4271 26.214 45.2188C26.4223 44.9896 26.6411 44.75 26.8702 44.5C27.0994 44.2292 27.3077 43.9583 27.4952 43.6875C27.6827 43.3958 27.8077 43.125 27.8702 42.875C27.9744 42.4167 28.1202 41.9896 28.3077 41.5938C28.5161 41.1771 28.714 40.7708 28.9015 40.375C29.089 39.9792 29.2556 39.5833 29.4015 39.1875C29.5473 38.7708 29.6202 38.3333 29.6202 37.875C29.6202 37.7708 29.6098 37.6042 29.589 37.375C29.5681 37.1458 29.5369 37.0104 29.4952 36.9688C29.2244 36.4688 28.8286 36.0729 28.3077 35.7812H27.8702C27.5786 35.7812 27.3494 35.8229 27.1827 35.9062C27.0161 35.9896 26.8806 36.1042 26.7765 36.25C26.6931 36.375 26.6202 36.5417 26.5577 36.75C26.4952 36.9375 26.4119 37.1354 26.3077 37.3438C26.2452 37.4062 26.0577 37.5729 25.7452 37.8438C25.4327 38.0938 25.0994 38.375 24.7452 38.6875C24.3911 38.9792 24.0577 39.25 23.7452 39.5C23.4327 39.7292 23.2556 39.8438 23.214 39.8438C23.089 39.8438 23.0161 39.7917 22.9952 39.6875C22.9744 39.5833 22.9431 39.4896 22.9015 39.4062C23.1098 39.0312 23.3181 38.6771 23.5265 38.3438C23.6931 38.0521 23.8598 37.7708 24.0265 37.5C24.214 37.2292 24.3598 37.0208 24.464 36.875L24.9952 35.7812C25.0161 35.7604 25.089 35.7188 25.214 35.6562C25.339 35.5938 25.4744 35.5312 25.6202 35.4688C25.7661 35.3854 25.9015 35.3125 26.0265 35.25C26.1515 35.1875 26.2452 35.1458 26.3077 35.125C26.4327 35.0417 26.5369 34.9271 26.6202 34.7812C26.7244 34.6146 26.8181 34.4479 26.9015 34.2812C27.0056 34.0938 27.1098 33.9167 27.214 33.75C27.339 33.5625 27.4848 33.3958 27.6515 33.25C27.8598 33.1042 28.089 32.9896 28.339 32.9062C28.589 32.8229 28.839 32.75 29.089 32.6875C29.339 32.6042 29.589 32.5208 29.839 32.4375C30.089 32.3542 30.339 32.2396 30.589 32.0938H32.964C33.214 32.0938 33.4015 32.2708 33.5265 32.625C33.6723 32.9583 33.8286 33.3333 33.9952 33.75C34.1619 34.1458 34.3806 34.5104 34.6515 34.8438C34.9431 35.1771 35.3702 35.3438 35.9327 35.3438C36.3702 35.3438 36.6723 35.2083 36.839 34.9375C37.0056 34.6667 37.2244 34.3854 37.4952 34.0938C37.8286 33.7812 38.2348 33.4583 38.714 33.125C39.1931 32.7917 39.714 32.4896 40.2765 32.2188C40.839 31.9479 41.4223 31.7292 42.0265 31.5625C42.6306 31.375 43.214 31.2812 43.7765 31.2812C44.2348 31.4688 44.714 31.7604 45.214 32.1562C45.714 32.5312 46.1515 32.8333 46.5265 33.0625C46.7973 33.2708 46.964 33.5417 47.0265 33.875C47.1098 34.1875 47.1723 34.5 47.214 34.8125C47.2765 35.125 47.3806 35.3958 47.5265 35.625C47.6723 35.8333 47.9744 35.9375 48.4327 35.9375C48.8494 35.9375 49.1619 35.8958 49.3702 35.8125C49.5786 35.7292 49.7452 35.625 49.8702 35.5C50.0161 35.3542 50.1515 35.2083 50.2765 35.0625C50.4015 34.8958 50.5786 34.7396 50.8077 34.5938C50.8286 34.5521 50.9119 34.5 51.0577 34.4375C51.2036 34.3542 51.2973 34.3125 51.339 34.3125C51.964 34.0417 52.4848 33.75 52.9015 33.4375C53.3181 33.1042 53.7244 32.8021 54.1202 32.5312C54.5161 32.2396 54.9536 32 55.4327 31.8125C55.9327 31.6042 56.5681 31.5 57.339 31.5C57.7765 31.5 58.2452 31.6146 58.7452 31.8438C59.2661 32.0729 59.7348 32.375 60.1515 32.75C60.589 33.125 60.9431 33.5417 61.214 34C61.5056 34.4583 61.6515 34.9062 61.6515 35.3438C61.6515 35.6354 61.5786 36.0833 61.4327 36.6875C61.3077 37.2708 61.1515 37.8854 60.964 38.5312C60.7765 39.1771 60.5786 39.7708 60.3702 40.3125C60.1827 40.8542 60.0161 41.2188 59.8702 41.4062C59.8286 41.4479 59.7452 41.5417 59.6202 41.6875C59.4952 41.8125 59.3598 41.9583 59.214 42.125C59.089 42.2917 58.964 42.4479 58.839 42.5938C58.7348 42.7396 58.6723 42.8438 58.6515 42.9062V44.5312C58.589 44.7188 58.4848 44.8958 58.339 45.0625C58.1931 45.2083 58.0265 45.3646 57.839 45.5312C57.6723 45.6771 57.5056 45.8438 57.339 46.0312C57.1723 46.2188 57.0473 46.4271 56.964 46.6562C56.9015 46.8438 56.8494 47.0417 56.8077 47.25C56.7869 47.4583 56.6411 47.6354 56.3702 47.7812C56.3494 47.8438 56.3286 47.9583 56.3077 48.125C56.2869 48.2917 56.2661 48.4583 56.2452 48.625C56.2244 48.7917 56.2036 48.9479 56.1827 49.0938C56.1619 49.2396 56.1515 49.3438 56.1515 49.4062V50.6562C56.089 50.8229 55.9952 50.9792 55.8702 51.125C55.7661 51.2708 55.6515 51.4271 55.5265 51.5938C55.4015 51.7396 55.2869 51.8958 55.1827 52.0625C55.0994 52.2083 55.0577 52.3854 55.0577 52.5938C55.0577 52.7604 55.1411 52.9375 55.3077 53.125C55.4744 53.2917 55.6723 53.4479 55.9015 53.5938C56.1306 53.7396 56.3494 53.8542 56.5577 53.9375C56.7869 54.0208 56.9536 54.0625 57.0577 54.0625C57.2452 54.0625 57.464 53.9062 57.714 53.5938C57.9848 53.2812 58.2869 52.9375 58.6202 52.5625C58.9744 52.1667 59.3702 51.8125 59.8077 51.5C60.2661 51.1875 60.7765 51.0312 61.339 51.0312C61.339 51.3229 61.3077 51.6354 61.2452 51.9688C61.1827 52.2812 61.0161 52.5833 60.7452 52.875L60.6827 52.9375C60.6619 52.9583 60.6515 53.0208 60.6515 53.125C59.964 53.6875 59.3077 54.3125 58.6827 55C58.0577 55.6875 57.4015 56.3333 56.714 56.9375C56.0265 57.5208 55.2869 58.0104 54.4952 58.4062C53.7244 58.8229 52.8494 59.0312 51.8702 59.0312C51.1619 59.0312 50.6098 58.8021 50.214 58.3438C49.839 57.8854 49.5265 57.3542 49.2765 56.75V55.625C49.2765 54.9167 49.3286 54.2604 49.4327 53.6562C49.5369 53.0312 49.6827 52.4271 49.8702 51.8438C50.0786 51.2396 50.3181 50.6562 50.589 50.0938C50.8598 49.5104 51.1619 48.9167 51.4952 48.3125C51.5577 48.2917 51.6306 48.1562 51.714 47.9062C51.7973 47.6354 51.8494 47.4271 51.8702 47.2812C52.0161 46.9688 52.1827 46.6667 52.3702 46.375C52.5786 46.0625 52.7765 45.7604 52.964 45.4688C53.1723 45.1771 53.3598 44.875 53.5265 44.5625C53.6931 44.25 53.8286 43.9167 53.9327 43.5625C53.9327 43.5 53.9431 43.3958 53.964 43.25C53.9848 43.1042 54.0056 42.9479 54.0265 42.7812C54.0473 42.6146 54.0681 42.4688 54.089 42.3438C54.1098 42.1979 54.1306 42.1042 54.1515 42.0625C54.2765 41.7292 54.4327 41.4062 54.6202 41.0938C54.8077 40.7812 54.9848 40.4688 55.1515 40.1562C55.339 39.8229 55.4848 39.4896 55.589 39.1562C55.714 38.8229 55.7765 38.4688 55.7765 38.0938C55.7765 37.9062 55.7244 37.6458 55.6202 37.3125C55.5369 36.9583 55.4119 36.6146 55.2452 36.2812C55.0994 35.9271 54.9327 35.625 54.7452 35.375C54.5577 35.1042 54.3598 34.9688 54.1515 34.9688C53.7765 34.9688 53.339 35.125 52.839 35.4375C52.339 35.75 51.839 36.125 51.339 36.5625C50.839 37 50.3806 37.4479 49.964 37.9062C49.5473 38.3438 49.2348 38.6979 49.0265 38.9688C48.9848 39.0312 48.9431 39.1771 48.9015 39.4062C48.8806 39.6354 48.8494 39.7812 48.8077 39.8438C48.7869 39.9062 48.7348 40.0104 48.6515 40.1562C48.5681 40.3021 48.4744 40.4583 48.3702 40.625C48.2661 40.7917 48.1619 40.9479 48.0577 41.0938C47.9536 41.2396 47.8911 41.3438 47.8702 41.4062C47.7661 41.5312 47.6202 41.6667 47.4327 41.8125C47.2452 41.9375 47.0577 42.0729 46.8702 42.2188C46.6827 42.3438 46.5161 42.4792 46.3702 42.625C46.2244 42.7708 46.1515 42.9271 46.1515 43.0938C46.1931 43.2188 46.2348 43.3333 46.2765 43.4375C46.339 43.6667 46.3911 43.8542 46.4327 44C46.4327 44.5 46.3077 44.9896 46.0577 45.4688C45.8077 45.9271 45.5265 46.375 45.214 46.8125C44.9015 47.25 44.5994 47.6875 44.3077 48.125C44.0369 48.5417 43.8598 48.9688 43.7765 49.4062C43.7556 49.4479 43.7348 49.5417 43.714 49.6875C43.6931 49.8125 43.6723 49.9583 43.6515 50.125C43.6515 50.2708 43.6411 50.4167 43.6202 50.5625C43.6202 50.7083 43.6202 50.7917 43.6202 50.8125C43.5786 50.8958 43.464 51.0417 43.2765 51.25C43.1098 51.4583 43.0056 51.5833 42.964 51.625C42.6931 52.0417 42.4744 52.4167 42.3077 52.75C42.1619 53.0625 42.0265 53.3646 41.9015 53.6562C41.7765 53.9479 41.6515 54.25 41.5265 54.5625C41.4223 54.8542 41.2661 55.1875 41.0577 55.5625C41.0369 55.5625 40.9848 55.6146 40.9015 55.7188C40.8181 55.8021 40.7244 55.9062 40.6202 56.0312C40.5369 56.1562 40.4327 56.2917 40.3077 56.4375C40.2036 56.5625 40.1098 56.6667 40.0265 56.75C39.9015 56.875 39.714 57.0625 39.464 57.3125C39.2348 57.5625 38.9744 57.8125 38.6827 58.0625C38.4119 58.3333 38.1411 58.5625 37.8702 58.75C37.6202 58.9375 37.4223 59.0312 37.2765 59.0312C36.6098 59.0312 36.0577 58.8021 35.6202 58.3438C35.1827 57.9062 34.964 57.3542 34.964 56.6875L35.0265 56.2812ZM55.3494 74.2812C55.3494 73.8854 55.3806 73.5729 55.4431 73.3438C55.5056 73.1354 55.6098 72.9688 55.7556 72.8438C55.9015 72.7188 56.0994 72.6042 56.3494 72.5C56.5786 72.3958 56.8702 72.25 57.2244 72.0625C57.4536 71.9583 57.6306 71.8646 57.7556 71.7812C57.8598 71.6979 57.9431 71.625 58.0056 71.5625C58.0681 71.5208 58.1411 71.4792 58.2244 71.4375C58.2869 71.4167 58.3911 71.4062 58.5369 71.4062C58.8077 71.4062 59.0681 71.5 59.3181 71.6875C59.5681 71.875 59.8286 72.0729 60.0994 72.2812C60.3702 72.5104 60.6619 72.7188 60.9744 72.9062C61.2869 73.0938 61.6619 73.1875 62.0994 73.1875L63.1306 73.0938C64.3598 72.3229 65.464 71.5208 66.4431 70.6875C67.4223 69.8542 68.3702 68.8854 69.2869 67.7812C69.4119 67.5938 69.5056 67.3854 69.5681 67.1562C69.6306 66.9271 69.6827 66.6875 69.7244 66.4375C69.7661 66.2083 69.8077 65.9688 69.8494 65.7188C69.9119 65.4896 69.9952 65.2604 70.0994 65.0312C70.1202 65.0104 70.1619 64.9583 70.2244 64.875C70.3077 64.8125 70.3911 64.7396 70.4744 64.6562C70.5577 64.5729 70.6411 64.4896 70.7244 64.4062C70.8077 64.3438 70.8702 64.3021 70.9119 64.2812C70.9952 64.2188 71.0786 64.0833 71.1619 63.875C71.2452 63.6875 71.3077 63.5521 71.3494 63.4688C71.3494 63.4062 71.3806 63.2292 71.4431 62.9375C71.5265 62.6458 71.6098 62.3229 71.6931 61.9688C71.7973 61.6354 71.8806 61.3229 71.9431 61.0312C72.0265 60.7396 72.0786 60.5417 72.0994 60.4375C72.2869 59.8125 72.5473 59.2188 72.8806 58.6562C73.2348 58.1146 73.464 57.5312 73.5681 56.9062V54.9062C73.589 54.4062 73.6619 53.875 73.7869 53.3125C73.9327 52.7292 74.0056 52.1979 74.0056 51.7188C74.0056 51.4479 73.964 51.1979 73.8806 50.9688C73.8181 50.7188 73.7348 50.4792 73.6306 50.25C73.5473 50.0208 73.4536 49.7917 73.3494 49.5625C73.2661 49.3125 73.214 49.0625 73.1931 48.8125C73.1515 48.75 73.1202 48.5833 73.0994 48.3125C73.0786 48.0417 73.0577 47.7604 73.0369 47.4688C73.0161 47.1562 72.9952 46.875 72.9744 46.625C72.9744 46.375 72.9744 46.2188 72.9744 46.1562C72.8286 45.3438 72.6619 44.5729 72.4744 43.8438C72.3077 43.0938 72.1827 42.2812 72.0994 41.4062C71.9744 41.2188 71.8181 41.0104 71.6306 40.7812C71.464 40.5521 71.2869 40.3438 71.0994 40.1562C70.9119 39.9479 70.7244 39.7708 70.5369 39.625C70.3494 39.4792 70.1723 39.4062 70.0056 39.4062C69.4015 39.4062 68.964 39.5833 68.6931 39.9375C68.4223 40.2708 68.214 40.6458 68.0681 41.0625C67.9223 41.4583 67.7765 41.8333 67.6306 42.1875C67.5056 42.5208 67.2869 42.6875 66.9744 42.6875C66.6411 42.6875 66.3702 42.6562 66.1619 42.5938C65.9744 42.5104 65.7869 42.3333 65.5994 42.0625C65.6411 41.3333 65.7452 40.6458 65.9119 40C66.0786 39.3333 66.2765 38.6875 66.5056 38.0625C66.7556 37.4375 67.0265 36.8229 67.3181 36.2188C67.6306 35.5938 67.9431 34.9583 68.2556 34.3125L68.4119 33.9375C68.4536 33.8958 68.5056 33.7917 68.5681 33.625C68.6515 33.4375 68.7348 33.2396 68.8181 33.0312C68.9015 32.8229 68.9848 32.625 69.0681 32.4375C69.1515 32.25 69.2244 32.1354 69.2869 32.0938C69.5161 31.8438 69.6931 31.6875 69.8181 31.625C69.9431 31.5417 70.0473 31.4688 70.1306 31.4062C70.2348 31.3438 70.339 31.25 70.4431 31.125C70.5473 31 70.7036 30.75 70.9119 30.375L72.1619 30.2188C72.2869 30.2188 72.4431 30.2188 72.6306 30.2188C72.839 30.2188 73.0369 30.2396 73.2244 30.2812C73.4327 30.3021 73.6202 30.3438 73.7869 30.4062C73.9536 30.4688 74.0786 30.5625 74.1619 30.6875C74.4536 31.0208 74.6306 31.3958 74.6931 31.8125C74.7765 32.2292 74.8702 32.6458 74.9744 33.0625C75.1827 33.8125 75.4015 34.5729 75.6306 35.3438C75.8806 36.1146 76.0994 36.8958 76.2869 37.6875C76.4952 38.4583 76.6619 39.2292 76.7869 40C76.9327 40.7708 77.0056 41.5417 77.0056 42.3125C77.0056 42.6042 76.964 42.875 76.8806 43.125C76.8181 43.3542 76.7869 43.6042 76.7869 43.875C76.8702 44.1875 76.964 44.5625 77.0681 45C77.1723 45.4375 77.3077 45.8542 77.4744 46.25C77.6411 46.6458 77.8494 46.9896 78.0994 47.2812C78.3494 47.5521 78.6723 47.6875 79.0681 47.6875C79.214 47.6875 79.3598 47.6771 79.5056 47.6562C79.6723 47.6146 79.7973 47.5104 79.8806 47.3438C80.1306 47.0521 80.339 46.6771 80.5056 46.2188C80.6723 45.7396 80.8077 45.25 80.9119 44.75C81.0369 44.25 81.1411 43.7604 81.2244 43.2812C81.3077 42.8021 81.3806 42.3958 81.4431 42.0625C81.6098 41.4583 81.8286 40.8958 82.0994 40.375C82.3911 39.8333 82.589 39.2604 82.6931 38.6562C82.7556 38.3438 82.7973 37.9271 82.8181 37.4062C82.8598 36.8854 82.9015 36.3229 82.9431 35.7188C83.0056 35.0938 83.089 34.4688 83.1931 33.8438C83.2973 33.1979 83.4431 32.625 83.6306 32.125C83.839 31.6042 84.1098 31.1875 84.4431 30.875C84.7765 30.5417 85.2036 30.375 85.7244 30.375C85.8286 30.375 85.9952 30.4167 86.2244 30.5C86.4536 30.5625 86.6827 30.6562 86.9119 30.7812C87.1619 30.8854 87.3911 31 87.5994 31.125C87.8077 31.25 87.9536 31.375 88.0369 31.5V32.5312C88.0369 32.8646 88.0161 33.2396 87.9744 33.6562C87.9327 34.0521 87.8598 34.4479 87.7556 34.8438C87.6723 35.2396 87.5473 35.625 87.3806 36C87.2348 36.375 87.0473 36.6979 86.8181 36.9688C86.7765 36.9896 86.7036 37.0521 86.5994 37.1562C86.4952 37.2604 86.3806 37.375 86.2556 37.5C86.1306 37.6042 86.0161 37.7188 85.9119 37.8438C85.8077 37.9479 85.7452 38.0208 85.7244 38.0625C85.7036 38.1042 85.6723 38.2188 85.6306 38.4062C85.6098 38.5938 85.5786 38.8021 85.5369 39.0312C85.5161 39.2604 85.4848 39.4792 85.4431 39.6875C85.4223 39.875 85.4119 40 85.4119 40.0625C85.2869 40.375 85.0681 40.75 84.7556 41.1875C84.464 41.625 84.1515 42.0729 83.8181 42.5312C83.4848 42.9896 83.1827 43.4271 82.9119 43.8438C82.6619 44.2396 82.5161 44.5625 82.4744 44.8125C82.3494 45.5 82.1515 46.1562 81.8806 46.7812C81.6306 47.3854 81.339 47.9896 81.0056 48.5938C80.6723 49.1771 80.3286 49.7708 79.9744 50.375C79.6411 50.9792 79.339 51.6146 79.0681 52.2812L78.6306 54.9062C78.339 55.9062 78.0161 56.8958 77.6619 57.875C77.3077 58.8333 77.0161 59.8333 76.7869 60.875C76.7869 60.8958 76.7661 60.9271 76.7244 60.9688C76.7036 61.0104 76.6723 61.0312 76.6306 61.0312C76.4223 61.1771 76.2556 61.3229 76.1306 61.4688C76.0056 61.6354 75.8911 61.7917 75.7869 61.9375C75.7036 62.1042 75.6098 62.2708 75.5056 62.4375C75.4015 62.6042 75.2765 62.7812 75.1306 62.9688L74.3806 63.6875C74.3598 63.75 74.339 63.8646 74.3181 64.0312C74.3181 64.2188 74.3077 64.4062 74.2869 64.5938C74.2661 64.8021 74.2452 64.9896 74.2244 65.1562C74.2036 65.3438 74.1827 65.4479 74.1619 65.4688C74.1202 65.6354 74.0577 65.8333 73.9744 66.0625C73.9119 66.2917 73.8286 66.5208 73.7244 66.75C73.6411 67 73.5473 67.2292 73.4431 67.4375C73.3598 67.6458 73.2765 67.8125 73.1931 67.9375C73.0265 68.1458 72.8494 68.3333 72.6619 68.5C72.4744 68.6875 72.2869 68.875 72.0994 69.0625C71.9327 69.25 71.7765 69.4479 71.6306 69.6562C71.5056 69.8854 71.4119 70.125 71.3494 70.375C71.2452 70.4792 71.0681 70.6458 70.8181 70.875C70.589 71.1042 70.339 71.3438 70.0681 71.5938C69.8181 71.8646 69.5681 72.1146 69.3181 72.3438C69.089 72.5938 68.9327 72.7812 68.8494 72.9062L68.2556 74.0625C67.714 74.8333 67.1619 75.4271 66.5994 75.8438C66.0577 76.2604 65.4744 76.5625 64.8494 76.75C64.2244 76.9583 63.5473 77.0833 62.8181 77.125C62.0681 77.1667 61.2348 77.1875 60.3181 77.1875C60.089 77.2292 59.8598 77.2604 59.6306 77.2812C59.4015 77.3021 59.1827 77.3125 58.9744 77.3125C58.6827 77.3125 58.4119 77.3021 58.1619 77.2812C57.8911 77.2604 57.6306 77.2292 57.3806 77.1875C56.8181 76.8958 56.339 76.5104 55.9431 76.0312C55.5473 75.5729 55.3494 74.9896 55.3494 74.2812ZM99.6098 55.1875C99.4848 55.1042 99.2661 54.9167 98.9536 54.625C98.6411 54.3333 98.3077 54.0208 97.9536 53.6875C97.6202 53.3333 97.2973 53.0104 96.9848 52.7188C96.6723 52.4062 96.4536 52.1875 96.3286 52.0625C96.1411 51.8542 95.9952 51.6458 95.8911 51.4375C95.8077 51.2083 95.7348 50.9896 95.6723 50.7812C95.6306 50.5521 95.589 50.3229 95.5473 50.0938C95.5056 49.8438 95.4223 49.5938 95.2973 49.3438C94.6931 47.8021 94.2452 46.2188 93.9536 44.5938C93.6827 42.9688 93.5473 41.3333 93.5473 39.6875C93.5473 39.2917 93.5473 38.8438 93.5473 38.3438C93.5473 37.8438 93.5577 37.3438 93.5786 36.8438C93.6202 36.3229 93.6619 35.8229 93.7036 35.3438C93.7452 34.8646 93.8181 34.4375 93.9223 34.0625C94.0681 33.5833 94.2556 33.1354 94.4848 32.7188C94.714 32.2812 94.9536 31.8542 95.2036 31.4375C95.4536 31 95.7036 30.5729 95.9536 30.1562C96.2036 29.7188 96.4327 29.2708 96.6411 28.8125C96.9327 27.9167 97.2348 27.0208 97.5473 26.125C97.8806 25.2292 98.339 24.3438 98.9223 23.4688C98.9431 23.4062 99.0265 23.2812 99.1723 23.0938C99.339 22.8854 99.5056 22.6771 99.6723 22.4688C99.839 22.2396 99.9952 22.0312 100.141 21.8438C100.308 21.6562 100.401 21.5417 100.422 21.5C100.651 21.1667 100.87 20.8958 101.079 20.6875C101.287 20.4792 101.495 20.2917 101.704 20.125C101.933 19.9583 102.162 19.7812 102.391 19.5938C102.62 19.3854 102.87 19.125 103.141 18.8125L103.454 18.25C103.662 17.9792 103.86 17.7708 104.047 17.625C104.256 17.4583 104.454 17.3125 104.641 17.1875C104.849 17.0625 105.058 16.9375 105.266 16.8125C105.474 16.6875 105.704 16.5208 105.954 16.3125C105.995 16.2708 106.11 16.1667 106.297 16C106.485 15.8125 106.683 15.625 106.891 15.4375C107.099 15.2292 107.287 15.0417 107.454 14.875C107.641 14.6875 107.745 14.5729 107.766 14.5312C107.808 14.5312 107.87 14.5 107.954 14.4375C108.037 14.3542 108.099 14.2917 108.141 14.25L109.766 14C109.808 13.9583 109.912 13.8646 110.079 13.7188C110.245 13.5729 110.339 13.5 110.36 13.5C110.651 13.3542 110.901 13.25 111.11 13.1875C111.318 13.125 111.516 13.0833 111.704 13.0625C111.912 13.0208 112.12 13 112.329 13C112.558 12.9792 112.829 12.9479 113.141 12.9062C113.183 12.8854 113.318 12.8438 113.547 12.7812C113.776 12.6979 114.026 12.625 114.297 12.5625C114.568 12.4792 114.818 12.4062 115.047 12.3438C115.297 12.2604 115.464 12.2188 115.547 12.2188H117.141C117.287 12.2188 117.537 12.2188 117.891 12.2188C118.266 12.2188 118.651 12.2292 119.047 12.25C119.443 12.2708 119.818 12.3021 120.172 12.3438C120.526 12.3646 120.787 12.4062 120.954 12.4688C121.016 12.4896 121.141 12.5625 121.329 12.6875C121.516 12.7917 121.714 12.9167 121.922 13.0625C122.151 13.2083 122.36 13.3542 122.547 13.5C122.735 13.625 122.839 13.7188 122.86 13.7812C123.464 14.1354 124.193 14.3646 125.047 14.4688C125.901 14.5521 126.683 14.5938 127.391 14.5938C127.683 14.5938 127.933 14.5104 128.141 14.3438C128.37 14.1771 128.61 14.0938 128.86 14.0938C128.985 14.0938 129.131 14.1667 129.297 14.3125C129.485 14.4583 129.662 14.6354 129.829 14.8438C129.995 15.0312 130.131 15.2292 130.235 15.4375C130.36 15.6458 130.422 15.8125 130.422 15.9375V16C130.318 16.375 130.193 16.6979 130.047 16.9688C129.901 17.2396 129.829 17.5833 129.829 18C129.829 18.4167 129.881 18.8021 129.985 19.1562C130.11 19.4896 130.172 19.8021 130.172 20.0938V20.4688C130.151 20.5312 130.099 20.6667 130.016 20.875C129.933 21.0833 129.839 21.3125 129.735 21.5625C129.651 21.8125 129.568 22.0521 129.485 22.2812C129.401 22.4896 129.36 22.625 129.36 22.6875C129.276 23.0208 129.235 23.3438 129.235 23.6562C129.235 23.9479 129.204 24.2083 129.141 24.4375C129.099 24.6667 128.985 24.8542 128.797 25C128.61 25.125 128.287 25.1875 127.829 25.1875C127.037 25.1875 126.443 25.0104 126.047 24.6562C125.672 24.2812 125.381 23.8229 125.172 23.2812C124.985 22.7188 124.839 22.1146 124.735 21.4688C124.651 20.8229 124.516 20.2188 124.329 19.6562C124.099 19.0521 123.714 18.4896 123.172 17.9688C122.631 17.4479 122.016 16.9896 121.329 16.5938C120.662 16.1979 119.964 15.8958 119.235 15.6875C118.506 15.4583 117.839 15.3438 117.235 15.3438H116.922L116.204 15.7812H114.204C113.912 15.8021 113.568 15.9479 113.172 16.2188C112.776 16.4896 112.37 16.8021 111.954 17.1562C111.537 17.4896 111.131 17.8333 110.735 18.1875C110.36 18.5208 110.037 18.7812 109.766 18.9688C109.745 18.9896 109.631 19.0729 109.422 19.2188C109.235 19.3438 109.026 19.4896 108.797 19.6562C108.568 19.8229 108.349 19.9896 108.141 20.1562C107.933 20.3021 107.808 20.4062 107.766 20.4688C107.662 20.5729 107.568 20.6875 107.485 20.8125C107.401 20.9167 107.36 21.0417 107.36 21.1875C107.36 21.3333 107.37 21.4375 107.391 21.5C107.329 21.6042 107.224 21.7917 107.079 22.0625C106.933 22.3125 106.776 22.5938 106.61 22.9062C106.464 23.1979 106.329 23.4792 106.204 23.75C106.079 24 105.995 24.1667 105.954 24.25C105.787 24.5625 105.506 25.1146 105.11 25.9062C104.735 26.6771 104.339 27.5104 103.922 28.4062C103.526 29.2812 103.172 30.1146 102.86 30.9062C102.568 31.6979 102.422 32.2604 102.422 32.5938C102.151 33.5312 101.901 34.4792 101.672 35.4375C101.443 36.375 101.276 37.3333 101.172 38.3125C100.943 38.7292 100.797 39.1667 100.735 39.625C100.672 40.0625 100.641 40.5104 100.641 40.9688V43.0312L100.422 46.3125L101.391 48.9062C101.391 49.0729 101.349 49.2292 101.266 49.375C101.204 49.5208 101.172 49.7083 101.172 49.9375C101.172 49.9792 101.287 50.125 101.516 50.375C101.745 50.6042 102.026 50.8958 102.36 51.25C102.714 51.6042 103.089 51.9792 103.485 52.375C103.881 52.7708 104.256 53.1458 104.61 53.5C104.964 53.8333 105.266 54.125 105.516 54.375C105.766 54.6042 105.912 54.7292 105.954 54.75C106.183 54.8958 106.443 54.9896 106.735 55.0312C107.047 55.0729 107.381 55.0938 107.735 55.0938H110.422C110.61 55.0938 110.933 55.0208 111.391 54.875C111.849 54.7292 112.318 54.5625 112.797 54.375C113.297 54.1667 113.745 53.9583 114.141 53.75C114.558 53.5417 114.797 53.375 114.86 53.25C114.943 53.1042 115.089 52.8438 115.297 52.4688C115.526 52.0938 115.756 51.7083 115.985 51.3125C116.235 50.8958 116.464 50.5 116.672 50.125C116.901 49.75 117.058 49.4896 117.141 49.3438C117.183 49.3021 117.224 49.2396 117.266 49.1562C117.329 49.0729 117.36 49.0104 117.36 48.9688V47.7812C117.422 47.5312 117.526 47.25 117.672 46.9375C117.818 46.625 117.964 46.3021 118.11 45.9688C118.276 45.6146 118.412 45.2604 118.516 44.9062C118.641 44.5521 118.704 44.2292 118.704 43.9375C118.704 43.6875 118.651 43.3958 118.547 43.0625C118.464 42.7083 118.339 42.375 118.172 42.0625C118.006 41.7292 117.818 41.4375 117.61 41.1875C117.401 40.9167 117.172 40.7396 116.922 40.6562C116.672 40.5312 116.412 40.4375 116.141 40.375C115.87 40.2917 115.631 40.1979 115.422 40.0938C115.214 39.9896 115.037 39.8333 114.891 39.625C114.766 39.4167 114.704 39.125 114.704 38.75C114.704 38.5417 114.787 38.3333 114.954 38.125C115.12 37.9167 115.308 37.7292 115.516 37.5625C115.745 37.375 115.974 37.2188 116.204 37.0938C116.433 36.9688 116.599 36.875 116.704 36.8125C117.162 36.8125 117.485 36.8542 117.672 36.9375C117.86 37.0208 118.089 37.0833 118.36 37.125H120.204C120.579 37.1667 120.933 37.25 121.266 37.375C121.599 37.5 121.933 37.5625 122.266 37.5625C122.808 37.5625 123.318 37.4896 123.797 37.3438C124.297 37.1979 124.776 37.125 125.235 37.125C125.464 37.125 125.818 37.1146 126.297 37.0938C126.776 37.0729 127.287 37.0625 127.829 37.0625C128.412 37.0625 128.943 37.0729 129.422 37.0938C129.901 37.1146 130.235 37.125 130.422 37.125C130.464 37.0833 130.526 37.0521 130.61 37.0312C130.714 36.9896 130.776 36.9688 130.797 36.9688C130.901 36.9688 131.026 37.0104 131.172 37.0938C131.339 37.1771 131.495 37.2812 131.641 37.4062C131.787 37.5312 131.912 37.6667 132.016 37.8125C132.12 37.9375 132.172 38.0521 132.172 38.1562C132.172 38.2396 132.162 38.3125 132.141 38.375C132.141 38.4167 132.089 38.4896 131.985 38.5938C131.943 38.6146 131.808 38.6979 131.579 38.8438C131.37 38.9688 131.141 39.1146 130.891 39.2812C130.641 39.4271 130.412 39.5729 130.204 39.7188C129.995 39.8646 129.87 39.9583 129.829 40C129.724 40.0625 129.547 40.1979 129.297 40.4062C129.068 40.6146 128.818 40.8438 128.547 41.0938C128.276 41.3229 128.026 41.5521 127.797 41.7812C127.589 41.9896 127.443 42.1354 127.36 42.2188C127.235 42.3854 127.089 42.7083 126.922 43.1875C126.756 43.6458 126.589 44.1458 126.422 44.6875C126.276 45.2083 126.151 45.7188 126.047 46.2188C125.943 46.6979 125.891 47.0521 125.891 47.2812L126.172 49.5C126.172 49.9375 126.068 50.3958 125.86 50.875C125.672 51.3542 125.422 51.8229 125.11 52.2812C124.797 52.7396 124.454 53.1667 124.079 53.5625C123.724 53.9375 123.391 54.2604 123.079 54.5312C121.662 55.0521 120.266 55.6042 118.891 56.1875C117.516 56.75 116.12 57.3333 114.704 57.9375C113.912 57.9792 113.162 58.0521 112.454 58.1562C111.745 58.2604 111.016 58.3125 110.266 58.3125C109.849 58.3125 109.454 58.2812 109.079 58.2188C108.724 58.1562 108.37 58.0833 108.016 58C107.683 57.9375 107.349 57.8646 107.016 57.7812C106.683 57.6979 106.329 57.625 105.954 57.5625C105.891 57.5625 105.745 57.5521 105.516 57.5312C105.308 57.5104 105.068 57.4896 104.797 57.4688C104.547 57.4271 104.308 57.3854 104.079 57.3438C103.87 57.3021 103.735 57.2708 103.672 57.25C103.297 57.2292 102.943 57.1458 102.61 57C102.276 56.8333 101.943 56.6562 101.61 56.4688C101.276 56.2604 100.943 56.0417 100.61 55.8125C100.297 55.5833 99.964 55.375 99.6098 55.1875ZM133.964 56.2188C134.006 54.8021 134.256 53.5208 134.714 52.375C135.172 51.2083 135.735 50.0417 136.401 48.875C136.568 48.5625 136.704 48.2188 136.808 47.8438C136.933 47.4479 137.037 47.0521 137.12 46.6562C137.204 46.2604 137.287 45.875 137.37 45.5C137.454 45.1042 137.558 44.75 137.683 44.4375L138.339 42C138.401 41.8333 138.495 41.5729 138.62 41.2188C138.745 40.8646 138.86 40.4688 138.964 40.0312C139.068 39.5938 139.162 39.1458 139.245 38.6875C139.349 38.2292 139.401 37.8229 139.401 37.4688C139.401 37.3229 139.37 37.1458 139.308 36.9375C139.266 36.7292 139.193 36.5312 139.089 36.3438C139.006 36.1354 138.891 35.9688 138.745 35.8438C138.62 35.6979 138.464 35.625 138.276 35.625C137.839 35.625 137.401 35.8125 136.964 36.1875C136.547 36.5625 136.12 36.9896 135.683 37.4688C135.266 37.9479 134.839 38.4062 134.401 38.8438C133.985 39.2812 133.547 39.5625 133.089 39.6875C132.985 39.6458 132.933 39.5729 132.933 39.4688C132.933 38.9062 133.026 38.3958 133.214 37.9375C133.422 37.4583 133.693 37.0417 134.026 36.6875C134.36 36.3125 134.724 35.9896 135.12 35.7188C135.516 35.4479 135.922 35.2188 136.339 35.0312C136.443 34.9479 136.506 34.8333 136.526 34.6875C136.547 34.5417 136.558 34.2917 136.558 33.9375C136.558 33.6667 136.631 33.4896 136.776 33.4062C136.797 33.3854 136.922 33.3333 137.151 33.25C137.401 33.1458 137.579 33.0729 137.683 33.0312C137.704 33.0104 137.745 32.9688 137.808 32.9062C137.891 32.8229 137.964 32.7396 138.026 32.6562C138.11 32.5521 138.172 32.4583 138.214 32.375C138.276 32.2917 138.318 32.2396 138.339 32.2188C138.881 31.8646 139.412 31.5729 139.933 31.3438C140.474 31.0938 141.058 30.8958 141.683 30.75C141.745 30.7917 141.849 30.8542 141.995 30.9375C142.162 31 142.329 31.0833 142.495 31.1875C142.662 31.2708 142.818 31.3542 142.964 31.4375C143.131 31.5 143.245 31.5417 143.308 31.5625C143.454 31.6667 143.589 31.8542 143.714 32.125C143.86 32.3958 143.995 32.6875 144.12 33C144.245 33.3125 144.36 33.6042 144.464 33.875C144.568 34.1458 144.651 34.3438 144.714 34.4688C144.881 34.5729 145.068 34.6562 145.276 34.7188C145.506 34.7812 145.735 34.8125 145.964 34.8125C146.11 34.8125 146.276 34.7604 146.464 34.6562C146.651 34.5521 146.818 34.4271 146.964 34.2812C147.131 34.1146 147.266 33.9375 147.37 33.75C147.495 33.5625 147.568 33.3958 147.589 33.25L149.37 31.3438C149.454 31.3021 149.558 31.2812 149.683 31.2812C149.808 31.2604 149.954 31.25 150.12 31.25H150.87C150.933 31.25 151.006 31.2292 151.089 31.1875C151.172 31.1458 151.224 31.125 151.245 31.125C151.266 31.125 151.308 31.0938 151.37 31.0312C151.454 30.9688 151.537 30.9062 151.62 30.8438C151.724 30.7604 151.818 30.6875 151.901 30.625C151.985 30.5625 152.037 30.5312 152.058 30.5312C152.058 30.4896 152.131 30.4688 152.276 30.4688C152.422 30.4688 152.547 30.4688 152.651 30.4688C153.214 30.4688 153.662 30.5521 153.995 30.7188C154.329 30.8854 154.589 31.1146 154.776 31.4062C154.964 31.6979 155.089 32.0521 155.151 32.4688C155.214 32.8646 155.245 33.3021 155.245 33.7812C155.245 34.2396 155.224 34.6458 155.183 35C155.162 35.3333 155.079 35.6146 154.933 35.8438C154.808 36.0521 154.599 36.2083 154.308 36.3125C154.037 36.4167 153.651 36.4688 153.151 36.4688C152.589 36.4688 152.026 36.4062 151.464 36.2812C150.901 36.1354 150.256 36.0625 149.526 36.0625C149.464 36.0625 149.339 36.0729 149.151 36.0938C148.985 36.1146 148.787 36.1458 148.558 36.1875C148.349 36.2083 148.151 36.2396 147.964 36.2812C147.776 36.3021 147.651 36.3125 147.589 36.3125C147.318 36.4792 147.099 36.6667 146.933 36.875C146.766 37.0833 146.62 37.3125 146.495 37.5625C146.37 37.8125 146.256 38.0729 146.151 38.3438C146.047 38.5938 145.933 38.8438 145.808 39.0938L144.87 40.1562V41.125C144.849 41.4583 144.766 41.75 144.62 42C144.495 42.25 144.339 42.4896 144.151 42.7188C143.985 42.9271 143.818 43.1354 143.651 43.3438C143.506 43.5312 143.391 43.75 143.308 44V45.625C143.308 45.6667 143.245 45.7812 143.12 45.9688C142.995 46.1354 142.912 46.2396 142.87 46.2812C142.662 46.5938 142.495 46.9375 142.37 47.3125C142.245 47.6875 142.131 48.0625 142.026 48.4375C141.943 48.8125 141.86 49.1979 141.776 49.5938C141.693 49.9688 141.589 50.3333 141.464 50.6875L140.214 53.1875C139.964 53.9375 139.787 54.6458 139.683 55.3125C139.599 55.9583 139.433 56.5208 139.183 57C138.954 57.4583 138.589 57.8229 138.089 58.0938C137.589 58.3646 136.808 58.5 135.745 58.5C135.516 58.5 135.297 58.4062 135.089 58.2188C134.901 58.0521 134.724 57.8438 134.558 57.5938C134.412 57.3438 134.287 57.0938 134.183 56.8438C134.079 56.5729 134.006 56.3646 133.964 56.2188ZM153.474 56.75C153.474 56.2292 153.495 55.7708 153.537 55.375C153.579 54.9792 153.651 54.6042 153.756 54.25C153.881 53.8958 154.026 53.5521 154.193 53.2188C154.381 52.8646 154.61 52.4792 154.881 52.0625C154.922 52 154.954 51.875 154.974 51.6875C155.016 51.5 155.037 51.3854 155.037 51.3438C155.266 50.9271 155.547 50.5521 155.881 50.2188C156.235 49.8854 156.495 49.4896 156.662 49.0312C156.683 48.9688 156.735 48.8125 156.818 48.5625C156.901 48.3125 156.985 48.0625 157.068 47.8125C157.172 47.5417 157.256 47.2917 157.318 47.0625C157.401 46.8333 157.454 46.6979 157.474 46.6562C157.579 46.3438 157.693 46.0729 157.818 45.8438C157.964 45.6146 158.12 45.4062 158.287 45.2188C158.454 45.0312 158.641 44.8542 158.849 44.6875C159.058 44.5 159.287 44.2917 159.537 44.0625C159.579 43.7292 159.641 43.2917 159.724 42.75C159.829 42.2083 159.995 41.7604 160.224 41.4062C160.391 41.0729 160.599 40.7812 160.849 40.5312C161.12 40.2604 161.256 39.9375 161.256 39.5625C161.256 39.0208 161.099 38.6042 160.787 38.3125C160.495 38 160.079 37.8438 159.537 37.8438C159.12 37.8438 158.766 37.9375 158.474 38.125C158.183 38.3125 157.891 38.5208 157.599 38.75C157.308 38.9583 156.985 39.1562 156.631 39.3438C156.276 39.5312 155.839 39.625 155.318 39.625C155.401 39.1042 155.526 38.6771 155.693 38.3438C155.86 38.0104 156.068 37.7292 156.318 37.5C156.568 37.2708 156.849 37.0625 157.162 36.875C157.474 36.6667 157.808 36.4271 158.162 36.1562C158.224 36.0938 158.349 35.9688 158.537 35.7812C158.724 35.5729 158.933 35.3542 159.162 35.125C159.391 34.875 159.599 34.6562 159.787 34.4688C159.995 34.2604 160.141 34.1354 160.224 34.0938C160.474 33.8646 160.693 33.7188 160.881 33.6562C161.089 33.5729 161.287 33.5208 161.474 33.5C161.683 33.4792 161.901 33.4583 162.131 33.4375C162.36 33.4167 162.631 33.3542 162.943 33.25C163.276 33.1875 163.547 33.0625 163.756 32.875C163.985 32.6875 164.214 32.5 164.443 32.3125C164.672 32.1042 164.943 31.9167 165.256 31.75C165.589 31.5833 166.037 31.5 166.599 31.5C166.683 31.5 166.818 31.5208 167.006 31.5625C167.214 31.5833 167.412 31.6354 167.599 31.7188C167.808 31.7812 167.985 31.8646 168.131 31.9688C168.276 32.0521 168.349 32.1562 168.349 32.2812V34.5312C168.349 34.6354 168.308 34.7708 168.224 34.9375C168.141 35.1042 168.047 35.2708 167.943 35.4375C167.839 35.6042 167.735 35.7708 167.631 35.9375C167.547 36.1042 167.495 36.25 167.474 36.375C167.433 36.5625 167.36 36.8021 167.256 37.0938C167.172 37.3646 167.099 37.5208 167.037 37.5625C167.037 37.6042 166.995 37.6771 166.912 37.7812C166.849 37.8854 166.766 38 166.662 38.125C166.579 38.2292 166.495 38.3333 166.412 38.4375C166.349 38.5417 166.308 38.6146 166.287 38.6562V39.25C166.245 39.4583 166.193 39.625 166.131 39.75C166.089 39.8542 166.016 39.9583 165.912 40.0625C165.829 40.1458 165.724 40.2396 165.599 40.3438C165.495 40.4479 165.381 40.6042 165.256 40.8125C165.256 40.8542 165.214 40.9479 165.131 41.0938C165.068 41.2396 165.016 41.3438 164.974 41.4062C164.87 41.8854 164.766 42.2812 164.662 42.5938C164.579 42.9062 164.474 43.1979 164.349 43.4688C164.224 43.7188 164.089 43.9896 163.943 44.2812C163.797 44.5521 163.641 44.875 163.474 45.25C163.287 45.6667 163.12 46.1042 162.974 46.5625C162.849 47.0208 162.704 47.4792 162.537 47.9375C162.391 48.375 162.204 48.7917 161.974 49.1875C161.766 49.5833 161.485 49.9062 161.131 50.1562C161.131 50.4062 161.131 50.6667 161.131 50.9375C161.151 51.2083 161.204 51.4583 161.287 51.6875C161.391 51.8958 161.526 52.0729 161.693 52.2188C161.881 52.3646 162.151 52.4375 162.506 52.4375C162.922 52.4375 163.349 52.3021 163.787 52.0312C164.224 51.7396 164.683 51.4271 165.162 51.0938C165.641 50.7396 166.162 50.4271 166.724 50.1562C167.287 49.8646 167.901 49.7188 168.568 49.7188C168.568 49.9062 168.526 50.1458 168.443 50.4375C168.36 50.7083 168.256 50.9271 168.131 51.0938L163.193 56.0938C163.151 56.1146 163.11 56.1354 163.068 56.1562C163.047 56.1771 163.016 56.1979 162.974 56.2188C162.912 56.2396 162.86 56.2604 162.818 56.2812C161.776 56.9479 160.745 57.5 159.724 57.9375C158.724 58.375 157.631 58.5938 156.443 58.5938C156.256 58.5938 155.995 58.5521 155.662 58.4688C155.329 58.3854 154.995 58.2604 154.662 58.0938C154.349 57.9479 154.068 57.7604 153.818 57.5312C153.589 57.3021 153.474 57.0417 153.474 56.75ZM166.818 17.7188C166.818 17.2604 166.912 16.8438 167.099 16.4688C167.287 16.0729 167.537 15.7396 167.849 15.4688C168.183 15.1771 168.558 14.9583 168.974 14.8125C169.412 14.6667 169.87 14.5938 170.349 14.5938C170.641 14.5938 170.995 14.6042 171.412 14.625C171.849 14.625 172.245 14.6667 172.599 14.75C172.808 14.8333 173.006 15.0312 173.193 15.3438C173.381 15.6562 173.547 16.0104 173.693 16.4062C173.839 16.7812 173.954 17.1562 174.037 17.5312C174.12 17.9062 174.162 18.1875 174.162 18.375C174.162 18.6458 174.099 18.8542 173.974 19C173.849 19.1458 173.714 19.3854 173.568 19.7188C173.36 20.1771 173.183 20.5521 173.037 20.8438C172.912 21.1354 172.745 21.3646 172.537 21.5312C172.329 21.6771 172.068 21.7812 171.756 21.8438C171.443 21.9062 171.006 21.9375 170.443 21.9375C169.86 21.9375 169.339 21.8229 168.881 21.5938C168.443 21.3438 168.068 21.0312 167.756 20.6562C167.443 20.2604 167.204 19.8125 167.037 19.3125C166.891 18.7917 166.818 18.2604 166.818 17.7188ZM185.11 56.2812C185.11 56.2604 185.141 56.1667 185.204 56C185.266 55.8333 185.339 55.6458 185.422 55.4375C185.506 55.2292 185.589 55.0208 185.672 54.8125C185.776 54.5833 185.849 54.4062 185.891 54.2812C185.933 54.2396 186.016 54.1354 186.141 53.9688L186.329 53.7188C186.37 53.6771 186.412 53.5625 186.454 53.375C186.495 53.1667 186.526 52.9375 186.547 52.6875C186.589 52.5208 186.62 52.3854 186.641 52.2812C186.662 52.1562 186.672 52.0833 186.672 52.0625C186.881 51.5625 187.089 51.1458 187.297 50.8125C187.526 50.4792 187.724 50.1562 187.891 49.8438C188.079 49.5312 188.235 49.2083 188.36 48.875C188.485 48.5208 188.547 48.0833 188.547 47.5625C188.651 47.5208 188.787 47.4375 188.954 47.3125C189.12 47.1667 189.276 47.0521 189.422 46.9688C189.443 46.8646 189.506 46.6667 189.61 46.375C189.714 46.0833 189.829 45.7812 189.954 45.4688C190.099 45.1354 190.224 44.8229 190.329 44.5312C190.454 44.2188 190.547 44 190.61 43.875C190.776 43.4792 190.974 43.0833 191.204 42.6875C191.433 42.2708 191.651 41.8438 191.86 41.4062C192.089 40.9688 192.276 40.5312 192.422 40.0938C192.589 39.6354 192.672 39.1667 192.672 38.6875L192.516 38C192.37 37.5833 192.214 37.1771 192.047 36.7812C191.881 36.3854 191.672 36.0312 191.422 35.7188C191.172 35.4062 190.849 35.1562 190.454 34.9688C190.058 34.7812 189.568 34.6875 188.985 34.6875C188.526 34.6875 188.141 34.8125 187.829 35.0625C187.537 35.3125 187.276 35.6146 187.047 35.9688C186.839 36.3229 186.641 36.6979 186.454 37.0938C186.287 37.4688 186.099 37.7917 185.891 38.0625C185.766 38.1875 185.589 38.2917 185.36 38.375C185.151 38.4375 184.995 38.5833 184.891 38.8125C184.87 38.8333 184.839 38.8854 184.797 38.9688C184.776 39.0521 184.735 39.1458 184.672 39.25C184.631 39.3333 184.589 39.4167 184.547 39.5C184.526 39.5625 184.506 39.6042 184.485 39.625C184.464 39.6875 184.391 39.7812 184.266 39.9062C184.162 40.0104 184.047 40.1354 183.922 40.2812C183.797 40.4062 183.672 40.5312 183.547 40.6562C183.422 40.7604 183.339 40.8333 183.297 40.875C182.235 43.3958 181.276 45.6771 180.422 47.7188C180.047 48.5938 179.672 49.4583 179.297 50.3125C178.943 51.1667 178.61 51.9479 178.297 52.6562C178.006 53.3438 177.745 53.9375 177.516 54.4375C177.287 54.9167 177.131 55.2188 177.047 55.3438C176.881 55.6771 176.704 55.9583 176.516 56.1875C176.349 56.4167 176.162 56.6354 175.954 56.8438C175.766 57.0312 175.547 57.2188 175.297 57.4062C175.068 57.5938 174.797 57.7917 174.485 58L173.735 58.1562C173.401 58.1562 173.11 58.0833 172.86 57.9375C172.631 57.7708 172.443 57.5729 172.297 57.3438C172.151 57.0938 172.037 56.8229 171.954 56.5312C171.891 56.2188 171.86 55.9167 171.86 55.625C171.86 55.2917 172.006 54.7917 172.297 54.125C172.589 53.4375 172.922 52.7188 173.297 51.9688C173.672 51.2188 174.026 50.5104 174.36 49.8438C174.714 49.1562 174.954 48.6458 175.079 48.3125C175.245 47.9375 175.349 47.5208 175.391 47.0625C175.454 46.5833 175.62 46.1354 175.891 45.7188C175.954 45.5938 176.089 45.4271 176.297 45.2188C176.506 44.9896 176.724 44.75 176.954 44.5C177.183 44.2292 177.391 43.9583 177.579 43.6875C177.766 43.3958 177.891 43.125 177.954 42.875C178.058 42.4167 178.204 41.9896 178.391 41.5938C178.599 41.1771 178.797 40.7708 178.985 40.375C179.172 39.9792 179.339 39.5833 179.485 39.1875C179.631 38.7708 179.704 38.3333 179.704 37.875C179.704 37.7708 179.693 37.6042 179.672 37.375C179.651 37.1458 179.62 37.0104 179.579 36.9688C179.308 36.4688 178.912 36.0729 178.391 35.7812H177.954C177.662 35.7812 177.433 35.8229 177.266 35.9062C177.099 35.9896 176.964 36.1042 176.86 36.25C176.776 36.375 176.704 36.5417 176.641 36.75C176.579 36.9375 176.495 37.1354 176.391 37.3438C176.329 37.4062 176.141 37.5729 175.829 37.8438C175.516 38.0938 175.183 38.375 174.829 38.6875C174.474 38.9792 174.141 39.25 173.829 39.5C173.516 39.7292 173.339 39.8438 173.297 39.8438C173.172 39.8438 173.099 39.7917 173.079 39.6875C173.058 39.5833 173.026 39.4896 172.985 39.4062C173.193 39.0312 173.401 38.6771 173.61 38.3438C173.776 38.0521 173.943 37.7708 174.11 37.5C174.297 37.2292 174.443 37.0208 174.547 36.875L175.079 35.7812C175.099 35.7604 175.172 35.7188 175.297 35.6562C175.422 35.5938 175.558 35.5312 175.704 35.4688C175.849 35.3854 175.985 35.3125 176.11 35.25C176.235 35.1875 176.329 35.1458 176.391 35.125C176.516 35.0417 176.62 34.9271 176.704 34.7812C176.808 34.6146 176.901 34.4479 176.985 34.2812C177.089 34.0938 177.193 33.9167 177.297 33.75C177.422 33.5625 177.568 33.3958 177.735 33.25C177.943 33.1042 178.172 32.9896 178.422 32.9062C178.672 32.8229 178.922 32.75 179.172 32.6875C179.422 32.6042 179.672 32.5208 179.922 32.4375C180.172 32.3542 180.422 32.2396 180.672 32.0938H183.047C183.297 32.0938 183.485 32.2708 183.61 32.625C183.756 32.9583 183.912 33.3333 184.079 33.75C184.245 34.1458 184.464 34.5104 184.735 34.8438C185.026 35.1771 185.454 35.3438 186.016 35.3438C186.454 35.3438 186.756 35.2083 186.922 34.9375C187.089 34.6667 187.308 34.3854 187.579 34.0938C187.912 33.7812 188.318 33.4583 188.797 33.125C189.276 32.7917 189.797 32.4896 190.36 32.2188C190.922 31.9479 191.506 31.7292 192.11 31.5625C192.714 31.375 193.297 31.2812 193.86 31.2812C194.318 31.4688 194.797 31.7604 195.297 32.1562C195.797 32.5312 196.235 32.8333 196.61 33.0625C196.881 33.2708 197.047 33.5417 197.11 33.875C197.193 34.1875 197.256 34.5 197.297 34.8125C197.36 35.125 197.464 35.3958 197.61 35.625C197.756 35.8333 198.058 35.9375 198.516 35.9375C198.933 35.9375 199.245 35.8958 199.454 35.8125C199.662 35.7292 199.829 35.625 199.954 35.5C200.099 35.3542 200.235 35.2083 200.36 35.0625C200.485 34.8958 200.662 34.7396 200.891 34.5938C200.912 34.5521 200.995 34.5 201.141 34.4375C201.287 34.3542 201.381 34.3125 201.422 34.3125C202.047 34.0417 202.568 33.75 202.985 33.4375C203.401 33.1042 203.808 32.8021 204.204 32.5312C204.599 32.2396 205.037 32 205.516 31.8125C206.016 31.6042 206.651 31.5 207.422 31.5C207.86 31.5 208.329 31.6146 208.829 31.8438C209.349 32.0729 209.818 32.375 210.235 32.75C210.672 33.125 211.026 33.5417 211.297 34C211.589 34.4583 211.735 34.9062 211.735 35.3438C211.735 35.6354 211.662 36.0833 211.516 36.6875C211.391 37.2708 211.235 37.8854 211.047 38.5312C210.86 39.1771 210.662 39.7708 210.454 40.3125C210.266 40.8542 210.099 41.2188 209.954 41.4062C209.912 41.4479 209.829 41.5417 209.704 41.6875C209.579 41.8125 209.443 41.9583 209.297 42.125C209.172 42.2917 209.047 42.4479 208.922 42.5938C208.818 42.7396 208.756 42.8438 208.735 42.9062V44.5312C208.672 44.7188 208.568 44.8958 208.422 45.0625C208.276 45.2083 208.11 45.3646 207.922 45.5312C207.756 45.6771 207.589 45.8438 207.422 46.0312C207.256 46.2188 207.131 46.4271 207.047 46.6562C206.985 46.8438 206.933 47.0417 206.891 47.25C206.87 47.4583 206.724 47.6354 206.454 47.7812C206.433 47.8438 206.412 47.9583 206.391 48.125C206.37 48.2917 206.349 48.4583 206.329 48.625C206.308 48.7917 206.287 48.9479 206.266 49.0938C206.245 49.2396 206.235 49.3438 206.235 49.4062V50.6562C206.172 50.8229 206.079 50.9792 205.954 51.125C205.849 51.2708 205.735 51.4271 205.61 51.5938C205.485 51.7396 205.37 51.8958 205.266 52.0625C205.183 52.2083 205.141 52.3854 205.141 52.5938C205.141 52.7604 205.224 52.9375 205.391 53.125C205.558 53.2917 205.756 53.4479 205.985 53.5938C206.214 53.7396 206.433 53.8542 206.641 53.9375C206.87 54.0208 207.037 54.0625 207.141 54.0625C207.329 54.0625 207.547 53.9062 207.797 53.5938C208.068 53.2812 208.37 52.9375 208.704 52.5625C209.058 52.1667 209.454 51.8125 209.891 51.5C210.349 51.1875 210.86 51.0312 211.422 51.0312C211.422 51.3229 211.391 51.6354 211.329 51.9688C211.266 52.2812 211.099 52.5833 210.829 52.875L210.766 52.9375C210.745 52.9583 210.735 53.0208 210.735 53.125C210.047 53.6875 209.391 54.3125 208.766 55C208.141 55.6875 207.485 56.3333 206.797 56.9375C206.11 57.5208 205.37 58.0104 204.579 58.4062C203.808 58.8229 202.933 59.0312 201.954 59.0312C201.245 59.0312 200.693 58.8021 200.297 58.3438C199.922 57.8854 199.61 57.3542 199.36 56.75V55.625C199.36 54.9167 199.412 54.2604 199.516 53.6562C199.62 53.0312 199.766 52.4271 199.954 51.8438C200.162 51.2396 200.401 50.6562 200.672 50.0938C200.943 49.5104 201.245 48.9167 201.579 48.3125C201.641 48.2917 201.714 48.1562 201.797 47.9062C201.881 47.6354 201.933 47.4271 201.954 47.2812C202.099 46.9688 202.266 46.6667 202.454 46.375C202.662 46.0625 202.86 45.7604 203.047 45.4688C203.256 45.1771 203.443 44.875 203.61 44.5625C203.776 44.25 203.912 43.9167 204.016 43.5625C204.016 43.5 204.026 43.3958 204.047 43.25C204.068 43.1042 204.089 42.9479 204.11 42.7812C204.131 42.6146 204.151 42.4688 204.172 42.3438C204.193 42.1979 204.214 42.1042 204.235 42.0625C204.36 41.7292 204.516 41.4062 204.704 41.0938C204.891 40.7812 205.068 40.4688 205.235 40.1562C205.422 39.8229 205.568 39.4896 205.672 39.1562C205.797 38.8229 205.86 38.4688 205.86 38.0938C205.86 37.9062 205.808 37.6458 205.704 37.3125C205.62 36.9583 205.495 36.6146 205.329 36.2812C205.183 35.9271 205.016 35.625 204.829 35.375C204.641 35.1042 204.443 34.9688 204.235 34.9688C203.86 34.9688 203.422 35.125 202.922 35.4375C202.422 35.75 201.922 36.125 201.422 36.5625C200.922 37 200.464 37.4479 200.047 37.9062C199.631 38.3438 199.318 38.6979 199.11 38.9688C199.068 39.0312 199.026 39.1771 198.985 39.4062C198.964 39.6354 198.933 39.7812 198.891 39.8438C198.87 39.9062 198.818 40.0104 198.735 40.1562C198.651 40.3021 198.558 40.4583 198.454 40.625C198.349 40.7917 198.245 40.9479 198.141 41.0938C198.037 41.2396 197.974 41.3438 197.954 41.4062C197.849 41.5312 197.704 41.6667 197.516 41.8125C197.329 41.9375 197.141 42.0729 196.954 42.2188C196.766 42.3438 196.599 42.4792 196.454 42.625C196.308 42.7708 196.235 42.9271 196.235 43.0938C196.276 43.2188 196.318 43.3333 196.36 43.4375C196.422 43.6667 196.474 43.8542 196.516 44C196.516 44.5 196.391 44.9896 196.141 45.4688C195.891 45.9271 195.61 46.375 195.297 46.8125C194.985 47.25 194.683 47.6875 194.391 48.125C194.12 48.5417 193.943 48.9688 193.86 49.4062C193.839 49.4479 193.818 49.5417 193.797 49.6875C193.776 49.8125 193.756 49.9583 193.735 50.125C193.735 50.2708 193.724 50.4167 193.704 50.5625C193.704 50.7083 193.704 50.7917 193.704 50.8125C193.662 50.8958 193.547 51.0417 193.36 51.25C193.193 51.4583 193.089 51.5833 193.047 51.625C192.776 52.0417 192.558 52.4167 192.391 52.75C192.245 53.0625 192.11 53.3646 191.985 53.6562C191.86 53.9479 191.735 54.25 191.61 54.5625C191.506 54.8542 191.349 55.1875 191.141 55.5625C191.12 55.5625 191.068 55.6146 190.985 55.7188C190.901 55.8021 190.808 55.9062 190.704 56.0312C190.62 56.1562 190.516 56.2917 190.391 56.4375C190.287 56.5625 190.193 56.6667 190.11 56.75C189.985 56.875 189.797 57.0625 189.547 57.3125C189.318 57.5625 189.058 57.8125 188.766 58.0625C188.495 58.3333 188.224 58.5625 187.954 58.75C187.704 58.9375 187.506 59.0312 187.36 59.0312C186.693 59.0312 186.141 58.8021 185.704 58.3438C185.266 57.9062 185.047 57.3542 185.047 56.6875L185.11 56.2812ZM215.901 51.5C215.901 50 216.047 48.4167 216.339 46.75C216.631 45.0625 216.985 43.5 217.401 42.0625C217.464 42 217.568 41.8854 217.714 41.7188C217.881 41.5521 217.964 41.4479 217.964 41.4062C218.089 41.1562 218.183 40.8854 218.245 40.5938C218.308 40.3021 218.36 40.0104 218.401 39.7188C218.443 39.4062 218.506 39.1042 218.589 38.8125C218.672 38.5 218.797 38.2083 218.964 37.9375C219.172 37.5833 219.412 37.2396 219.683 36.9062C219.974 36.5729 220.276 36.25 220.589 35.9375C220.901 35.625 221.214 35.3333 221.526 35.0625C221.839 34.7708 222.12 34.4896 222.37 34.2188C222.62 33.8854 222.839 33.5312 223.026 33.1562C223.214 32.7604 223.454 32.4792 223.745 32.3125C223.829 32.2708 223.985 32.1875 224.214 32.0625C224.443 31.9375 224.568 31.875 224.589 31.875C224.61 31.8333 224.672 31.7812 224.776 31.7188C224.881 31.6354 224.995 31.5625 225.12 31.5C225.245 31.4167 225.36 31.3333 225.464 31.25C225.568 31.1667 225.641 31.1042 225.683 31.0625C226.162 30.9792 226.641 30.8958 227.12 30.8125C227.599 30.7292 228.079 30.6875 228.558 30.6875C228.974 30.6875 229.37 30.7292 229.745 30.8125C230.141 30.8958 230.558 30.9792 230.995 31.0625C231.016 31.125 231.089 31.1979 231.214 31.2812C231.36 31.3646 231.464 31.4271 231.526 31.4688C231.922 31.6771 232.339 31.9583 232.776 32.3125C233.235 32.6458 233.651 33.0312 234.026 33.4688C234.422 33.8854 234.745 34.3333 234.995 34.8125C235.266 35.2708 235.401 35.7396 235.401 36.2188C235.401 36.3438 235.37 36.4688 235.308 36.5938C235.266 36.7188 235.245 36.8958 235.245 37.125C235.245 37.4167 235.266 37.7188 235.308 38.0312C235.37 38.3438 235.401 38.625 235.401 38.875C235.401 39.1875 235.349 39.4896 235.245 39.7812C235.162 40.0729 235.058 40.3646 234.933 40.6562C234.829 40.9271 234.724 41.1979 234.62 41.4688C234.516 41.7396 234.454 42.0104 234.433 42.2812C234.412 42.4062 234.391 42.625 234.37 42.9375C234.349 43.25 234.329 43.5833 234.308 43.9375C234.287 44.2708 234.266 44.5938 234.245 44.9062C234.224 45.2188 234.214 45.4375 234.214 45.5625C234.193 45.6042 234.141 45.7396 234.058 45.9688C233.974 46.1771 233.881 46.2917 233.776 46.3125C233.485 46.8125 233.245 47.3229 233.058 47.8438C232.87 48.3438 232.693 48.8542 232.526 49.375C232.381 49.8958 232.224 50.4167 232.058 50.9375C231.912 51.4583 231.735 51.9583 231.526 52.4375C231.401 52.7708 231.245 53.0521 231.058 53.2812C230.891 53.5104 230.704 53.7292 230.495 53.9375C230.308 54.125 230.099 54.3125 229.87 54.5C229.641 54.6667 229.401 54.875 229.151 55.125C228.881 55.375 228.683 55.5521 228.558 55.6562C228.454 55.7396 228.36 55.8021 228.276 55.8438C228.214 55.8646 228.131 55.9062 228.026 55.9688C227.943 56.0104 227.776 56.125 227.526 56.3125L226.495 57.3438C226.474 57.3646 226.412 57.3854 226.308 57.4062C226.204 57.4271 226.089 57.4479 225.964 57.4688C225.86 57.4688 225.756 57.4792 225.651 57.5C225.547 57.5 225.485 57.5 225.464 57.5C225.422 57.5 225.318 57.5312 225.151 57.5938C225.006 57.6562 224.912 57.6979 224.87 57.7188L222.183 57.7812C221.704 57.7812 221.235 57.7604 220.776 57.7188C220.318 57.6771 219.974 57.6042 219.745 57.5C219.308 57.375 218.86 57.0729 218.401 56.5938C217.943 56.1146 217.526 55.5729 217.151 54.9688C216.797 54.3438 216.495 53.7188 216.245 53.0938C216.016 52.4688 215.901 51.9375 215.901 51.5ZM220.495 50.5C220.495 50.8542 220.526 51.3021 220.589 51.8438C220.672 52.3646 220.808 52.875 220.995 53.375C221.204 53.8542 221.485 54.2708 221.839 54.625C222.214 54.9583 222.683 55.125 223.245 55.125C223.37 55.0417 223.547 54.8958 223.776 54.6875C224.026 54.4792 224.276 54.25 224.526 54C224.776 53.75 225.006 53.5208 225.214 53.3125C225.443 53.1042 225.599 52.9583 225.683 52.875L225.995 52.0938C226.016 52.0521 226.068 51.9896 226.151 51.9062C226.235 51.8021 226.329 51.7083 226.433 51.625C226.537 51.5208 226.631 51.4375 226.714 51.375C226.818 51.2917 226.891 51.25 226.933 51.25L227.089 49.8438C227.11 49.8021 227.151 49.7083 227.214 49.5625C227.297 49.4167 227.381 49.2604 227.464 49.0938C227.568 48.9062 227.662 48.7292 227.745 48.5625C227.829 48.3958 227.901 48.2812 227.964 48.2188C227.964 48.1979 227.995 48.1354 228.058 48.0312C228.12 47.9271 228.193 47.8229 228.276 47.7188C228.36 47.5938 228.433 47.4896 228.495 47.4062C228.579 47.3021 228.631 47.25 228.651 47.25C229.026 46.7292 229.308 46.1354 229.495 45.4688C229.704 44.8021 229.933 44.1875 230.183 43.625C230.183 43.5833 230.193 43.4792 230.214 43.3125C230.256 43.1458 230.276 43.0104 230.276 42.9062C230.297 42.8438 230.318 42.7292 230.339 42.5625C230.36 42.3958 230.381 42.2292 230.401 42.0625C230.422 41.875 230.443 41.7083 230.464 41.5625C230.485 41.4167 230.495 41.3229 230.495 41.2812C230.516 41.2604 230.558 41.2083 230.62 41.125C230.683 41.0417 230.756 40.9583 230.839 40.875C230.922 40.7708 230.995 40.6771 231.058 40.5938C231.12 40.5104 231.151 40.4583 231.151 40.4375C231.151 40.3958 231.162 40.3542 231.183 40.3125C231.224 40.2708 231.245 40.2188 231.245 40.1562C231.245 40.1146 231.224 40.0521 231.183 39.9688C231.162 39.8854 231.151 39.7292 231.151 39.5C231.151 39.4167 231.172 39.3438 231.214 39.2812C231.256 39.2188 231.308 39.1354 231.37 39.0312C231.412 38.7396 231.443 38.4688 231.464 38.2188C231.506 37.9479 231.526 37.6771 231.526 37.4062C231.526 37.1354 231.506 36.8646 231.464 36.5938C231.443 36.3021 231.412 36.0104 231.37 35.7188C231.308 35.5104 231.11 35.1562 230.776 34.6562C230.568 34.4896 230.391 34.3333 230.245 34.1875C230.12 34.0208 230.037 33.8646 229.995 33.7188C229.995 33.4271 229.86 33.2812 229.589 33.2812C229.339 33.2812 229.026 33.3542 228.651 33.5C228.276 33.6458 227.901 33.8333 227.526 34.0625C227.172 34.2708 226.849 34.5104 226.558 34.7812C226.266 35.0521 226.079 35.3125 225.995 35.5625C225.995 35.6042 225.985 35.6875 225.964 35.8125C225.964 35.9167 225.954 36.0417 225.933 36.1875C225.912 36.3125 225.891 36.4375 225.87 36.5625C225.87 36.6875 225.86 36.7708 225.839 36.8125C225.172 37.5 224.558 38.5104 223.995 39.8438C223.724 40.4896 223.526 41.1562 223.401 41.8438C223.297 42.5312 223.172 43.2083 223.026 43.875C222.985 44.0417 222.912 44.1979 222.808 44.3438C222.724 44.4688 222.62 44.6042 222.495 44.75C222.391 44.875 222.297 45.0208 222.214 45.1875C222.131 45.3333 222.079 45.5 222.058 45.6875V46.9062C221.954 47.1979 221.818 47.5 221.651 47.8125C221.485 48.1042 221.308 48.3958 221.12 48.6875C220.954 48.9792 220.808 49.2812 220.683 49.5938C220.558 49.8854 220.495 50.1875 220.495 50.5ZM238.099 56.75C238.099 56.2292 238.12 55.7708 238.162 55.375C238.204 54.9792 238.276 54.6042 238.381 54.25C238.506 53.8958 238.651 53.5521 238.818 53.2188C239.006 52.8646 239.235 52.4792 239.506 52.0625C239.547 52 239.579 51.875 239.599 51.6875C239.641 51.5 239.662 51.3854 239.662 51.3438C239.891 50.9271 240.172 50.5521 240.506 50.2188C240.86 49.8854 241.12 49.4896 241.287 49.0312C241.308 48.9688 241.36 48.8125 241.443 48.5625C241.526 48.3125 241.61 48.0625 241.693 47.8125C241.797 47.5417 241.881 47.2917 241.943 47.0625C242.026 46.8333 242.079 46.6979 242.099 46.6562C242.204 46.3438 242.318 46.0729 242.443 45.8438C242.589 45.6146 242.745 45.4062 242.912 45.2188C243.079 45.0312 243.266 44.8542 243.474 44.6875C243.683 44.5 243.912 44.2917 244.162 44.0625C244.204 43.7292 244.266 43.2917 244.349 42.75C244.454 42.2083 244.62 41.7604 244.849 41.4062C245.016 41.0729 245.224 40.7812 245.474 40.5312C245.745 40.2604 245.881 39.9375 245.881 39.5625C245.881 39.0208 245.724 38.6042 245.412 38.3125C245.12 38 244.704 37.8438 244.162 37.8438C243.745 37.8438 243.391 37.9375 243.099 38.125C242.808 38.3125 242.516 38.5208 242.224 38.75C241.933 38.9583 241.61 39.1562 241.256 39.3438C240.901 39.5312 240.464 39.625 239.943 39.625C240.026 39.1042 240.151 38.6771 240.318 38.3438C240.485 38.0104 240.693 37.7292 240.943 37.5C241.193 37.2708 241.474 37.0625 241.787 36.875C242.099 36.6667 242.433 36.4271 242.787 36.1562C242.849 36.0938 242.974 35.9688 243.162 35.7812C243.349 35.5729 243.558 35.3542 243.787 35.125C244.016 34.875 244.224 34.6562 244.412 34.4688C244.62 34.2604 244.766 34.1354 244.849 34.0938C245.099 33.8646 245.318 33.7188 245.506 33.6562C245.714 33.5729 245.912 33.5208 246.099 33.5C246.308 33.4792 246.526 33.4583 246.756 33.4375C246.985 33.4167 247.256 33.3542 247.568 33.25C247.901 33.1875 248.172 33.0625 248.381 32.875C248.61 32.6875 248.839 32.5 249.068 32.3125C249.297 32.1042 249.568 31.9167 249.881 31.75C250.214 31.5833 250.662 31.5 251.224 31.5C251.308 31.5 251.443 31.5208 251.631 31.5625C251.839 31.5833 252.037 31.6354 252.224 31.7188C252.433 31.7812 252.61 31.8646 252.756 31.9688C252.901 32.0521 252.974 32.1562 252.974 32.2812V34.5312C252.974 34.6354 252.933 34.7708 252.849 34.9375C252.766 35.1042 252.672 35.2708 252.568 35.4375C252.464 35.6042 252.36 35.7708 252.256 35.9375C252.172 36.1042 252.12 36.25 252.099 36.375C252.058 36.5625 251.985 36.8021 251.881 37.0938C251.797 37.3646 251.724 37.5208 251.662 37.5625C251.662 37.6042 251.62 37.6771 251.537 37.7812C251.474 37.8854 251.391 38 251.287 38.125C251.204 38.2292 251.12 38.3333 251.037 38.4375C250.974 38.5417 250.933 38.6146 250.912 38.6562V39.25C250.87 39.4583 250.818 39.625 250.756 39.75C250.714 39.8542 250.641 39.9583 250.537 40.0625C250.454 40.1458 250.349 40.2396 250.224 40.3438C250.12 40.4479 250.006 40.6042 249.881 40.8125C249.881 40.8542 249.839 40.9479 249.756 41.0938C249.693 41.2396 249.641 41.3438 249.599 41.4062C249.495 41.8854 249.391 42.2812 249.287 42.5938C249.204 42.9062 249.099 43.1979 248.974 43.4688C248.849 43.7188 248.714 43.9896 248.568 44.2812C248.422 44.5521 248.266 44.875 248.099 45.25C247.912 45.6667 247.745 46.1042 247.599 46.5625C247.474 47.0208 247.329 47.4792 247.162 47.9375C247.016 48.375 246.829 48.7917 246.599 49.1875C246.391 49.5833 246.11 49.9062 245.756 50.1562C245.756 50.4062 245.756 50.6667 245.756 50.9375C245.776 51.2083 245.829 51.4583 245.912 51.6875C246.016 51.8958 246.151 52.0729 246.318 52.2188C246.506 52.3646 246.776 52.4375 247.131 52.4375C247.547 52.4375 247.974 52.3021 248.412 52.0312C248.849 51.7396 249.308 51.4271 249.787 51.0938C250.266 50.7396 250.787 50.4271 251.349 50.1562C251.912 49.8646 252.526 49.7188 253.193 49.7188C253.193 49.9062 253.151 50.1458 253.068 50.4375C252.985 50.7083 252.881 50.9271 252.756 51.0938L247.818 56.0938C247.776 56.1146 247.735 56.1354 247.693 56.1562C247.672 56.1771 247.641 56.1979 247.599 56.2188C247.537 56.2396 247.485 56.2604 247.443 56.2812C246.401 56.9479 245.37 57.5 244.349 57.9375C243.349 58.375 242.256 58.5938 241.068 58.5938C240.881 58.5938 240.62 58.5521 240.287 58.4688C239.954 58.3854 239.62 58.2604 239.287 58.0938C238.974 57.9479 238.693 57.7604 238.443 57.5312C238.214 57.3021 238.099 57.0417 238.099 56.75ZM251.443 17.7188C251.443 17.2604 251.537 16.8438 251.724 16.4688C251.912 16.0729 252.162 15.7396 252.474 15.4688C252.808 15.1771 253.183 14.9583 253.599 14.8125C254.037 14.6667 254.495 14.5938 254.974 14.5938C255.266 14.5938 255.62 14.6042 256.037 14.625C256.474 14.625 256.87 14.6667 257.224 14.75C257.433 14.8333 257.631 15.0312 257.818 15.3438C258.006 15.6562 258.172 16.0104 258.318 16.4062C258.464 16.7812 258.579 17.1562 258.662 17.5312C258.745 17.9062 258.787 18.1875 258.787 18.375C258.787 18.6458 258.724 18.8542 258.599 19C258.474 19.1458 258.339 19.3854 258.193 19.7188C257.985 20.1771 257.808 20.5521 257.662 20.8438C257.537 21.1354 257.37 21.3646 257.162 21.5312C256.954 21.6771 256.693 21.7812 256.381 21.8438C256.068 21.9062 255.631 21.9375 255.068 21.9375C254.485 21.9375 253.964 21.8229 253.506 21.5938C253.068 21.3438 252.693 21.0312 252.381 20.6562C252.068 20.2604 251.829 19.8125 251.662 19.3125C251.516 18.7917 251.443 18.2604 251.443 17.7188ZM258.11 56.2188C258.151 54.8021 258.401 53.5208 258.86 52.375C259.318 51.2083 259.881 50.0417 260.547 48.875C260.714 48.5625 260.849 48.2188 260.954 47.8438C261.079 47.4479 261.183 47.0521 261.266 46.6562C261.349 46.2604 261.433 45.875 261.516 45.5C261.599 45.1042 261.704 44.75 261.829 44.4375L262.485 42C262.547 41.8333 262.641 41.5729 262.766 41.2188C262.891 40.8646 263.006 40.4688 263.11 40.0312C263.214 39.5938 263.308 39.1458 263.391 38.6875C263.495 38.2292 263.547 37.8229 263.547 37.4688C263.547 37.3229 263.516 37.1458 263.454 36.9375C263.412 36.7292 263.339 36.5312 263.235 36.3438C263.151 36.1354 263.037 35.9688 262.891 35.8438C262.766 35.6979 262.61 35.625 262.422 35.625C261.985 35.625 261.547 35.8125 261.11 36.1875C260.693 36.5625 260.266 36.9896 259.829 37.4688C259.412 37.9479 258.985 38.4062 258.547 38.8438C258.131 39.2812 257.693 39.5625 257.235 39.6875C257.131 39.6458 257.079 39.5729 257.079 39.4688C257.079 38.9062 257.172 38.3958 257.36 37.9375C257.568 37.4583 257.839 37.0417 258.172 36.6875C258.506 36.3125 258.87 35.9896 259.266 35.7188C259.662 35.4479 260.068 35.2188 260.485 35.0312C260.589 34.9479 260.651 34.8333 260.672 34.6875C260.693 34.5417 260.704 34.2917 260.704 33.9375C260.704 33.6667 260.776 33.4896 260.922 33.4062C260.943 33.3854 261.068 33.3333 261.297 33.25C261.547 33.1458 261.724 33.0729 261.829 33.0312C261.849 33.0104 261.891 32.9688 261.954 32.9062C262.037 32.8229 262.11 32.7396 262.172 32.6562C262.256 32.5521 262.318 32.4583 262.36 32.375C262.422 32.2917 262.464 32.2396 262.485 32.2188C263.026 31.8646 263.558 31.5729 264.079 31.3438C264.62 31.0938 265.204 30.8958 265.829 30.75C265.891 30.7917 265.995 30.8542 266.141 30.9375C266.308 31 266.474 31.0833 266.641 31.1875C266.808 31.2708 266.964 31.3542 267.11 31.4375C267.276 31.5 267.391 31.5417 267.454 31.5625C267.599 31.6667 267.735 31.8542 267.86 32.125C268.006 32.3958 268.141 32.6875 268.266 33C268.391 33.3125 268.506 33.6042 268.61 33.875C268.714 34.1458 268.797 34.3438 268.86 34.4688C269.026 34.5729 269.214 34.6562 269.422 34.7188C269.651 34.7812 269.881 34.8125 270.11 34.8125C270.256 34.8125 270.422 34.7604 270.61 34.6562C270.797 34.5521 270.964 34.4271 271.11 34.2812C271.276 34.1146 271.412 33.9375 271.516 33.75C271.641 33.5625 271.714 33.3958 271.735 33.25L273.516 31.3438C273.599 31.3021 273.704 31.2812 273.829 31.2812C273.954 31.2604 274.099 31.25 274.266 31.25H275.016C275.079 31.25 275.151 31.2292 275.235 31.1875C275.318 31.1458 275.37 31.125 275.391 31.125C275.412 31.125 275.454 31.0938 275.516 31.0312C275.599 30.9688 275.683 30.9062 275.766 30.8438C275.87 30.7604 275.964 30.6875 276.047 30.625C276.131 30.5625 276.183 30.5312 276.204 30.5312C276.204 30.4896 276.276 30.4688 276.422 30.4688C276.568 30.4688 276.693 30.4688 276.797 30.4688C277.36 30.4688 277.808 30.5521 278.141 30.7188C278.474 30.8854 278.735 31.1146 278.922 31.4062C279.11 31.6979 279.235 32.0521 279.297 32.4688C279.36 32.8646 279.391 33.3021 279.391 33.7812C279.391 34.2396 279.37 34.6458 279.329 35C279.308 35.3333 279.224 35.6146 279.079 35.8438C278.954 36.0521 278.745 36.2083 278.454 36.3125C278.183 36.4167 277.797 36.4688 277.297 36.4688C276.735 36.4688 276.172 36.4062 275.61 36.2812C275.047 36.1354 274.401 36.0625 273.672 36.0625C273.61 36.0625 273.485 36.0729 273.297 36.0938C273.131 36.1146 272.933 36.1458 272.704 36.1875C272.495 36.2083 272.297 36.2396 272.11 36.2812C271.922 36.3021 271.797 36.3125 271.735 36.3125C271.464 36.4792 271.245 36.6667 271.079 36.875C270.912 37.0833 270.766 37.3125 270.641 37.5625C270.516 37.8125 270.401 38.0729 270.297 38.3438C270.193 38.5938 270.079 38.8438 269.954 39.0938L269.016 40.1562V41.125C268.995 41.4583 268.912 41.75 268.766 42C268.641 42.25 268.485 42.4896 268.297 42.7188C268.131 42.9271 267.964 43.1354 267.797 43.3438C267.651 43.5312 267.537 43.75 267.454 44V45.625C267.454 45.6667 267.391 45.7812 267.266 45.9688C267.141 46.1354 267.058 46.2396 267.016 46.2812C266.808 46.5938 266.641 46.9375 266.516 47.3125C266.391 47.6875 266.276 48.0625 266.172 48.4375C266.089 48.8125 266.006 49.1979 265.922 49.5938C265.839 49.9688 265.735 50.3333 265.61 50.6875L264.36 53.1875C264.11 53.9375 263.933 54.6458 263.829 55.3125C263.745 55.9583 263.579 56.5208 263.329 57C263.099 57.4583 262.735 57.8229 262.235 58.0938C261.735 58.3646 260.954 58.5 259.891 58.5C259.662 58.5 259.443 58.4062 259.235 58.2188C259.047 58.0521 258.87 57.8438 258.704 57.5938C258.558 57.3438 258.433 57.0938 258.329 56.8438C258.224 56.5729 258.151 56.3646 258.11 56.2188ZM276.495 51.7188C276.516 51.5729 276.579 51.3333 276.683 51C276.808 50.6667 276.943 50.3125 277.089 49.9375C277.256 49.5625 277.412 49.2083 277.558 48.875C277.704 48.5208 277.818 48.25 277.901 48.0625C278.193 47.3542 278.516 46.6354 278.87 45.9062C279.224 45.1562 279.495 44.4479 279.683 43.7812C279.745 43.6562 279.787 43.5104 279.808 43.3438C279.829 43.1771 279.849 43.0104 279.87 42.8438C279.891 42.6771 279.922 42.5104 279.964 42.3438C280.006 42.1771 280.079 42.0417 280.183 41.9375L281.808 40.0625C281.933 39.9167 282.026 39.7396 282.089 39.5312C282.172 39.3229 282.235 39.1146 282.276 38.9062C282.339 38.6771 282.391 38.4583 282.433 38.25C282.495 38.0208 282.568 37.8333 282.651 37.6875C282.651 37.625 282.693 37.5104 282.776 37.3438C282.881 37.1771 282.954 37.0729 282.995 37.0312C283.099 36.9062 283.235 36.7396 283.401 36.5312C283.589 36.3021 283.776 36.0833 283.964 35.875C284.151 35.6667 284.308 35.4792 284.433 35.3125C284.579 35.1458 284.651 35.0521 284.651 35.0312C284.735 34.9062 284.922 34.6979 285.214 34.4062C285.506 34.1146 285.818 33.8125 286.151 33.5C286.485 33.1667 286.797 32.8542 287.089 32.5625C287.401 32.25 287.62 32.0208 287.745 31.875C288.12 31.6042 288.558 31.4375 289.058 31.375C289.579 31.3125 290.079 31.2812 290.558 31.2812H291.526C291.86 31.2812 292.131 31.3125 292.339 31.375C292.568 31.4167 292.776 31.4896 292.964 31.5938C293.151 31.6979 293.36 31.8333 293.589 32C293.818 32.1667 294.12 32.3646 294.495 32.5938C295.62 33.2604 296.401 34.0521 296.839 34.9688C297.297 35.8854 297.526 37 297.526 38.3125V39.6875C297.485 39.7292 297.401 39.8229 297.276 39.9688C297.172 40.0938 297.047 40.2396 296.901 40.4062C296.776 40.5521 296.651 40.6979 296.526 40.8438C296.422 40.9688 296.36 41.0625 296.339 41.125C296.089 41.3958 295.714 41.6875 295.214 42C294.714 42.3125 294.172 42.625 293.589 42.9375C293.026 43.2292 292.464 43.5 291.901 43.75C291.339 43.9792 290.87 44.1562 290.495 44.2812C289.579 44.7396 288.787 45.0104 288.12 45.0938C287.454 45.1562 286.766 45.1875 286.058 45.1875C285.683 45.1875 285.308 45.1979 284.933 45.2188C284.558 45.2188 284.12 45.2396 283.62 45.2812C283.37 45.5104 283.183 45.7396 283.058 45.9688C282.954 46.1979 282.87 46.4271 282.808 46.6562C282.766 46.8854 282.735 47.1354 282.714 47.4062C282.714 47.6562 282.693 47.9271 282.651 48.2188C282.651 48.2396 282.631 48.3125 282.589 48.4375C282.547 48.5417 282.495 48.6667 282.433 48.8125C282.391 48.9375 282.339 49.0625 282.276 49.1875C282.235 49.3125 282.204 49.3854 282.183 49.4062V49.7188C282.183 50.0938 282.204 50.5208 282.245 51C282.287 51.4792 282.381 51.9375 282.526 52.375C282.672 52.7917 282.891 53.1562 283.183 53.4688C283.474 53.7604 283.881 53.9062 284.401 53.9062C284.526 53.9062 284.704 53.9062 284.933 53.9062C285.183 53.9062 285.443 53.8958 285.714 53.875C285.985 53.8542 286.245 53.8229 286.495 53.7812C286.766 53.7188 286.964 53.6458 287.089 53.5625C287.11 53.5417 287.141 53.4896 287.183 53.4062C287.224 53.3021 287.266 53.1979 287.308 53.0938C287.349 52.9896 287.391 52.8958 287.433 52.8125C287.495 52.7083 287.547 52.6562 287.589 52.6562C287.964 52.3646 288.433 52.1146 288.995 51.9062C289.579 51.6771 290.079 51.4062 290.495 51.0938C290.745 50.9479 290.985 50.8542 291.214 50.8125C291.464 50.7708 291.714 50.75 291.964 50.75H292.87C292.87 51.1667 292.797 51.5521 292.651 51.9062C292.506 52.2396 292.318 52.5521 292.089 52.8438C291.86 53.1354 291.599 53.4062 291.308 53.6562C291.016 53.8854 290.724 54.1042 290.433 54.3125L290.183 54.5938L288.714 55.0938C288.693 55.0938 288.651 55.1354 288.589 55.2188C288.547 55.2812 288.495 55.3542 288.433 55.4375C288.37 55.5 288.308 55.5625 288.245 55.625C288.183 55.6875 288.12 55.7188 288.058 55.7188C288.037 55.7396 287.974 55.7708 287.87 55.8125C287.766 55.8333 287.662 55.8646 287.558 55.9062C287.454 55.9271 287.349 55.9479 287.245 55.9688C287.162 55.9896 287.11 56 287.089 56C286.776 56.0625 286.474 56.1979 286.183 56.4062C285.912 56.6146 285.641 56.8229 285.37 57.0312C285.099 57.2396 284.818 57.4271 284.526 57.5938C284.256 57.7604 283.954 57.8438 283.62 57.8438C283.495 57.8438 283.349 57.8125 283.183 57.75C283.037 57.6667 282.912 57.625 282.808 57.625C282.495 57.625 282.204 57.6875 281.933 57.8125C281.683 57.9375 281.381 58 281.026 58C280.36 58 279.745 57.8333 279.183 57.5C278.62 57.1458 278.131 56.6979 277.714 56.1562C277.318 55.5938 277.006 54.9792 276.776 54.3125C276.547 53.6458 276.433 53 276.433 52.375L276.495 51.7188ZM284.995 42.8125C284.995 42.8958 285.037 42.9688 285.12 43.0312C285.204 43.0938 285.297 43.1562 285.401 43.2188C285.506 43.2604 285.61 43.2917 285.714 43.3125C285.818 43.3333 285.901 43.3438 285.964 43.3438C286.568 43.3438 287.204 43.1562 287.87 42.7812C288.558 42.4062 289.214 41.9479 289.839 41.4062C290.464 40.8646 291.037 40.3021 291.558 39.7188C292.079 39.1354 292.485 38.6354 292.776 38.2188C292.86 37.8854 292.901 37.5938 292.901 37.3438C292.922 37.0938 292.933 36.8229 292.933 36.5312V35.7812C292.787 35.5312 292.61 35.3646 292.401 35.2812C292.214 35.1771 291.974 35.125 291.683 35.125C291.37 35.125 290.985 35.2708 290.526 35.5625C290.089 35.8333 289.62 36.1979 289.12 36.6562C288.62 37.1146 288.12 37.6354 287.62 38.2188C287.141 38.7812 286.704 39.3438 286.308 39.9062C285.912 40.4688 285.589 41.0104 285.339 41.5312C285.11 42.0521 284.995 42.4792 284.995 42.8125Z" fill="#0D2B1B"/>
<path d="M319.22 1.42329L321.372 21.1151L337.668 26.4233L320.787 29.3841L315.884 48.5767L313.732 28.8849L297.436 23.5767L314.317 20.6159L319.22 1.42329Z" fill="#816E94"/>
<path d="M85.7306 66.9515C177.993 82.1925 355.333 97.488 326.593 36.7417" stroke="#816E94" stroke-width="4" stroke-linecap="round"/>
</svg>
