<svg width="208" height="51" viewBox="0 0 208 51" fill="none" xmlns="http://www.w3.org/2000/svg">
<path d="M20.4453 34.9258C20.4453 34.9128 20.4648 34.8542 20.5039 34.75C20.543 34.6458 20.5885 34.5286 20.6406 34.3984C20.6927 34.2682 20.7448 34.138 20.7969 34.0078C20.862 33.8646 20.9076 33.7539 20.9336 33.6758C20.9596 33.6497 21.0117 33.5846 21.0898 33.4805L21.207 33.3242C21.2331 33.2982 21.2591 33.2266 21.2852 33.1094C21.3112 32.9792 21.3307 32.8359 21.3438 32.6797C21.3698 32.5755 21.3893 32.4909 21.4023 32.4258C21.4154 32.3477 21.4219 32.3021 21.4219 32.2891C21.5521 31.9766 21.6823 31.7161 21.8125 31.5078C21.9557 31.2995 22.0794 31.0977 22.1836 30.9023C22.3008 30.707 22.3984 30.5052 22.4766 30.2969C22.5547 30.0755 22.5938 29.8021 22.5938 29.4766C22.6589 29.4505 22.7435 29.3984 22.8477 29.3203C22.9518 29.2292 23.0495 29.1576 23.1406 29.1055C23.1536 29.0404 23.1927 28.9167 23.2578 28.7344C23.3229 28.5521 23.3945 28.3633 23.4727 28.168C23.5638 27.9596 23.6419 27.7643 23.707 27.582C23.7852 27.3867 23.8438 27.25 23.8828 27.1719C23.987 26.9245 24.1107 26.6771 24.2539 26.4297C24.3971 26.1693 24.5339 25.9023 24.6641 25.6289C24.8073 25.3555 24.9245 25.082 25.0156 24.8086C25.1198 24.5221 25.1719 24.2292 25.1719 23.9297L25.0742 23.5C24.9831 23.2396 24.8854 22.9857 24.7812 22.7383C24.6771 22.4909 24.5469 22.2695 24.3906 22.0742C24.2344 21.8789 24.0326 21.7227 23.7852 21.6055C23.5378 21.4883 23.2318 21.4297 22.8672 21.4297C22.5807 21.4297 22.3398 21.5078 22.1445 21.6641C21.9622 21.8203 21.7995 22.0091 21.6562 22.2305C21.526 22.4518 21.4023 22.6862 21.2852 22.9336C21.181 23.168 21.0638 23.3698 20.9336 23.5391C20.8555 23.6172 20.7448 23.6823 20.6016 23.7344C20.4714 23.7734 20.3737 23.8646 20.3086 24.0078C20.2956 24.0208 20.276 24.0534 20.25 24.1055C20.237 24.1576 20.2109 24.2161 20.1719 24.2812C20.1458 24.3333 20.1198 24.3854 20.0938 24.4375C20.0807 24.4766 20.0677 24.5026 20.0547 24.5156C20.0417 24.5547 19.9961 24.6133 19.918 24.6914C19.8529 24.7565 19.7812 24.8346 19.7031 24.9258C19.625 25.0039 19.5469 25.082 19.4688 25.1602C19.3906 25.2253 19.3385 25.2708 19.3125 25.2969C18.6484 26.8724 18.0495 28.2982 17.5156 29.5742C17.2812 30.1211 17.0469 30.6615 16.8125 31.1953C16.5911 31.7292 16.3828 32.2174 16.1875 32.6602C16.0052 33.0898 15.8424 33.4609 15.6992 33.7734C15.556 34.0729 15.4583 34.2617 15.4062 34.3398C15.3021 34.5482 15.1914 34.724 15.0742 34.8672C14.9701 35.0104 14.8529 35.1471 14.7227 35.2773C14.6055 35.3945 14.4688 35.5117 14.3125 35.6289C14.1693 35.7461 14 35.8698 13.8047 36L13.3359 36.0977C13.1276 36.0977 12.9453 36.0521 12.7891 35.9609C12.6458 35.8568 12.5286 35.7331 12.4375 35.5898C12.3464 35.4336 12.2747 35.2643 12.2227 35.082C12.1836 34.8867 12.1641 34.6979 12.1641 34.5156C12.1641 34.3073 12.2552 33.9948 12.4375 33.5781C12.6198 33.1484 12.8281 32.6992 13.0625 32.2305C13.2969 31.7617 13.5182 31.319 13.7266 30.9023C13.9479 30.4727 14.0977 30.1536 14.1758 29.9453C14.2799 29.7109 14.3451 29.4505 14.3711 29.1641C14.4102 28.8646 14.5143 28.5846 14.6836 28.3242C14.7227 28.2461 14.8073 28.1419 14.9375 28.0117C15.0677 27.8685 15.2044 27.7188 15.3477 27.5625C15.4909 27.3932 15.6211 27.224 15.7383 27.0547C15.8555 26.8724 15.9336 26.7031 15.9727 26.5469C16.0378 26.2604 16.1289 25.9935 16.2461 25.7461C16.3763 25.4857 16.5 25.2318 16.6172 24.9844C16.7344 24.737 16.8385 24.4896 16.9297 24.2422C17.0208 23.9818 17.0664 23.7083 17.0664 23.4219C17.0664 23.3568 17.0599 23.2526 17.0469 23.1094C17.0339 22.9661 17.0143 22.8815 16.9883 22.8555C16.819 22.543 16.5716 22.2956 16.2461 22.1133H15.9727C15.7904 22.1133 15.6471 22.1393 15.543 22.1914C15.4388 22.2435 15.3542 22.3151 15.2891 22.4062C15.237 22.4844 15.1914 22.5885 15.1523 22.7188C15.1133 22.8359 15.0612 22.9596 14.9961 23.0898C14.957 23.1289 14.8398 23.2331 14.6445 23.4023C14.4492 23.5586 14.2409 23.7344 14.0195 23.9297C13.7982 24.112 13.5898 24.2812 13.3945 24.4375C13.1992 24.5807 13.0885 24.6523 13.0625 24.6523C12.9844 24.6523 12.9388 24.6198 12.9258 24.5547C12.9128 24.4896 12.8932 24.431 12.8672 24.3789C12.9974 24.1445 13.1276 23.9232 13.2578 23.7148C13.362 23.5326 13.4661 23.3568 13.5703 23.1875C13.6875 23.0182 13.7786 22.888 13.8438 22.7969L14.1758 22.1133C14.1888 22.1003 14.2344 22.0742 14.3125 22.0352C14.3906 21.9961 14.4753 21.957 14.5664 21.918C14.6576 21.8659 14.7422 21.8203 14.8203 21.7812C14.8984 21.7422 14.957 21.7161 14.9961 21.7031C15.0742 21.651 15.1393 21.5794 15.1914 21.4883C15.2565 21.3841 15.3151 21.2799 15.3672 21.1758C15.4323 21.0586 15.4974 20.9479 15.5625 20.8438C15.6406 20.7266 15.7318 20.6224 15.8359 20.5312C15.9661 20.4401 16.1094 20.3685 16.2656 20.3164C16.4219 20.2643 16.5781 20.2188 16.7344 20.1797C16.8906 20.1276 17.0469 20.0755 17.2031 20.0234C17.3594 19.9714 17.5156 19.8997 17.6719 19.8086H19.1562C19.3125 19.8086 19.4297 19.9193 19.5078 20.1406C19.599 20.349 19.6966 20.5833 19.8008 20.8438C19.9049 21.0911 20.0417 21.319 20.2109 21.5273C20.3932 21.7357 20.6602 21.8398 21.0117 21.8398C21.2852 21.8398 21.474 21.7552 21.5781 21.5859C21.6823 21.4167 21.819 21.2409 21.9883 21.0586C22.1966 20.8633 22.4505 20.6615 22.75 20.4531C23.0495 20.2448 23.375 20.056 23.7266 19.8867C24.0781 19.7174 24.4427 19.5807 24.8203 19.4766C25.1979 19.3594 25.5625 19.3008 25.9141 19.3008C26.2005 19.418 26.5 19.6003 26.8125 19.8477C27.125 20.082 27.3984 20.2708 27.6328 20.4141C27.8021 20.5443 27.9062 20.7135 27.9453 20.9219C27.9974 21.1172 28.0365 21.3125 28.0625 21.5078C28.1016 21.7031 28.1667 21.8724 28.2578 22.0156C28.349 22.1458 28.5378 22.2109 28.8242 22.2109C29.0846 22.2109 29.2799 22.1849 29.4102 22.1328C29.5404 22.0807 29.6445 22.0156 29.7227 21.9375C29.8138 21.8464 29.8984 21.7552 29.9766 21.6641C30.0547 21.5599 30.1654 21.4622 30.3086 21.3711C30.3216 21.3451 30.3737 21.3125 30.4648 21.2734C30.556 21.2214 30.6146 21.1953 30.6406 21.1953C31.0312 21.026 31.3568 20.8438 31.6172 20.6484C31.8776 20.4401 32.1315 20.2513 32.3789 20.082C32.6263 19.8997 32.8997 19.75 33.1992 19.6328C33.5117 19.5026 33.9089 19.4375 34.3906 19.4375C34.6641 19.4375 34.957 19.5091 35.2695 19.6523C35.5951 19.7956 35.888 19.9844 36.1484 20.2188C36.4219 20.4531 36.6432 20.7135 36.8125 21C36.9948 21.2865 37.0859 21.5664 37.0859 21.8398C37.0859 22.0221 37.0404 22.3021 36.9492 22.6797C36.8711 23.0443 36.7734 23.4284 36.6562 23.832C36.5391 24.2357 36.4154 24.6068 36.2852 24.9453C36.168 25.2839 36.0638 25.5117 35.9727 25.6289C35.9466 25.6549 35.8945 25.7135 35.8164 25.8047C35.7383 25.8828 35.6536 25.974 35.5625 26.0781C35.4844 26.1823 35.4062 26.2799 35.3281 26.3711C35.263 26.4622 35.224 26.5273 35.2109 26.5664V27.582C35.1719 27.6992 35.1068 27.8099 35.0156 27.9141C34.9245 28.0052 34.8203 28.1029 34.7031 28.207C34.599 28.2982 34.4948 28.4023 34.3906 28.5195C34.2865 28.6367 34.2083 28.7669 34.1562 28.9102C34.1172 29.0273 34.0846 29.151 34.0586 29.2812C34.0456 29.4115 33.9544 29.5221 33.7852 29.6133C33.7721 29.6523 33.7591 29.724 33.7461 29.8281C33.7331 29.9323 33.7201 30.0365 33.707 30.1406C33.694 30.2448 33.681 30.3424 33.668 30.4336C33.6549 30.5247 33.6484 30.5898 33.6484 30.6289V31.4102C33.6094 31.5143 33.5508 31.612 33.4727 31.7031C33.4076 31.7943 33.3359 31.8919 33.2578 31.9961C33.1797 32.0872 33.1081 32.1849 33.043 32.2891C32.9909 32.3802 32.9648 32.4909 32.9648 32.6211C32.9648 32.7253 33.0169 32.8359 33.1211 32.9531C33.2253 33.0573 33.349 33.1549 33.4922 33.2461C33.6354 33.3372 33.7721 33.4089 33.9023 33.4609C34.0456 33.513 34.1497 33.5391 34.2148 33.5391C34.332 33.5391 34.4688 33.4414 34.625 33.2461C34.7943 33.0508 34.9831 32.8359 35.1914 32.6016C35.4128 32.3542 35.6602 32.1328 35.9336 31.9375C36.2201 31.7422 36.5391 31.6445 36.8906 31.6445C36.8906 31.8268 36.8711 32.0221 36.832 32.2305C36.793 32.4258 36.6888 32.6146 36.5195 32.7969L36.4805 32.8359C36.4674 32.849 36.4609 32.888 36.4609 32.9531C36.0312 33.3047 35.6211 33.6953 35.2305 34.125C34.8398 34.5547 34.4297 34.9583 34 35.3359C33.5703 35.7005 33.1081 36.0065 32.6133 36.2539C32.1315 36.5143 31.5846 36.6445 30.9727 36.6445C30.5299 36.6445 30.1849 36.5013 29.9375 36.2148C29.7031 35.9284 29.5078 35.5964 29.3516 35.2188V34.5156C29.3516 34.0729 29.3841 33.6628 29.4492 33.2852C29.5143 32.8945 29.6055 32.5169 29.7227 32.1523C29.8529 31.7747 30.0026 31.4102 30.1719 31.0586C30.3411 30.694 30.5299 30.3229 30.7383 29.9453C30.7773 29.9323 30.8229 29.8477 30.875 29.6914C30.9271 29.5221 30.9596 29.3919 30.9727 29.3008C31.0638 29.1055 31.168 28.9167 31.2852 28.7344C31.4154 28.5391 31.5391 28.3503 31.6562 28.168C31.7865 27.9857 31.9036 27.7969 32.0078 27.6016C32.112 27.4062 32.1966 27.1979 32.2617 26.9766C32.2617 26.9375 32.2682 26.8724 32.2812 26.7812C32.2943 26.6901 32.3073 26.5924 32.3203 26.4883C32.3333 26.3841 32.3464 26.293 32.3594 26.2148C32.3724 26.1237 32.3854 26.0651 32.3984 26.0391C32.4766 25.8307 32.5742 25.6289 32.6914 25.4336C32.8086 25.2383 32.9193 25.043 33.0234 24.8477C33.1406 24.6393 33.2318 24.431 33.2969 24.2227C33.375 24.0143 33.4141 23.793 33.4141 23.5586C33.4141 23.4414 33.3815 23.2786 33.3164 23.0703C33.2643 22.849 33.1862 22.6341 33.082 22.4258C32.9909 22.2044 32.8867 22.0156 32.7695 21.8594C32.6523 21.6901 32.5286 21.6055 32.3984 21.6055C32.1641 21.6055 31.8906 21.7031 31.5781 21.8984C31.2656 22.0938 30.9531 22.3281 30.6406 22.6016C30.3281 22.875 30.0417 23.1549 29.7812 23.4414C29.5208 23.7148 29.3255 23.9362 29.1953 24.1055C29.1693 24.1445 29.1432 24.2357 29.1172 24.3789C29.1042 24.5221 29.0846 24.6133 29.0586 24.6523C29.0456 24.6914 29.013 24.7565 28.9609 24.8477C28.9089 24.9388 28.8503 25.0365 28.7852 25.1406C28.7201 25.2448 28.6549 25.3424 28.5898 25.4336C28.5247 25.5247 28.4857 25.5898 28.4727 25.6289C28.4076 25.707 28.3164 25.7917 28.1992 25.8828C28.082 25.9609 27.9648 26.0456 27.8477 26.1367C27.7305 26.2148 27.6263 26.2995 27.5352 26.3906C27.444 26.4818 27.3984 26.5794 27.3984 26.6836C27.4245 26.7617 27.4505 26.8333 27.4766 26.8984C27.5156 27.0417 27.5482 27.1589 27.5742 27.25C27.5742 27.5625 27.4961 27.8685 27.3398 28.168C27.1836 28.4544 27.0078 28.7344 26.8125 29.0078C26.6172 29.2812 26.4284 29.5547 26.2461 29.8281C26.0768 30.0885 25.9661 30.3555 25.9141 30.6289C25.901 30.6549 25.888 30.7135 25.875 30.8047C25.862 30.8828 25.849 30.974 25.8359 31.0781C25.8359 31.1693 25.8294 31.2604 25.8164 31.3516C25.8164 31.4427 25.8164 31.4948 25.8164 31.5078C25.7904 31.5599 25.7188 31.651 25.6016 31.7812C25.4974 31.9115 25.4323 31.9896 25.4062 32.0156C25.237 32.276 25.1003 32.5104 24.9961 32.7188C24.9049 32.9141 24.8203 33.1029 24.7422 33.2852C24.6641 33.4674 24.5859 33.6562 24.5078 33.8516C24.4427 34.0339 24.3451 34.2422 24.2148 34.4766C24.2018 34.4766 24.1693 34.5091 24.1172 34.5742C24.0651 34.6263 24.0065 34.6914 23.9414 34.7695C23.8893 34.8477 23.8242 34.9323 23.7461 35.0234C23.681 35.1016 23.6224 35.1667 23.5703 35.2188C23.4922 35.2969 23.375 35.4141 23.2188 35.5703C23.0755 35.7266 22.9128 35.8828 22.7305 36.0391C22.5612 36.2083 22.3919 36.3516 22.2227 36.4688C22.0664 36.5859 21.9427 36.6445 21.8516 36.6445C21.4349 36.6445 21.0898 36.5013 20.8164 36.2148C20.543 35.9414 20.4062 35.5964 20.4062 35.1797L20.4453 34.9258ZM33.0221 46.1758C33.0221 45.9284 33.0417 45.7331 33.0807 45.5898C33.1198 45.4596 33.1849 45.3555 33.276 45.2773C33.3672 45.1992 33.4909 45.1276 33.6471 45.0625C33.7904 44.9974 33.9727 44.9062 34.194 44.7891C34.3372 44.724 34.4479 44.6654 34.526 44.6133C34.5911 44.5612 34.6432 44.5156 34.6823 44.4766C34.7214 44.4505 34.7669 44.4245 34.819 44.3984C34.8581 44.3854 34.9232 44.3789 35.0143 44.3789C35.1836 44.3789 35.3464 44.4375 35.5026 44.5547C35.6589 44.6719 35.8216 44.7956 35.9909 44.9258C36.1602 45.069 36.3424 45.1992 36.5378 45.3164C36.7331 45.4336 36.9674 45.4922 37.2409 45.4922L37.8854 45.4336C38.6536 44.9518 39.3437 44.4505 39.9557 43.9297C40.5677 43.4089 41.1602 42.8034 41.7331 42.1133C41.8112 41.9961 41.8698 41.8659 41.9089 41.7227C41.9479 41.5794 41.9805 41.4297 42.0065 41.2734C42.0325 41.1302 42.0586 40.9805 42.0846 40.8242C42.1237 40.681 42.1758 40.5378 42.2409 40.3945C42.2539 40.3815 42.2799 40.349 42.319 40.2969C42.3711 40.2578 42.4232 40.2122 42.4753 40.1602C42.5273 40.1081 42.5794 40.056 42.6315 40.0039C42.6836 39.9648 42.7227 39.9388 42.7487 39.9258C42.8008 39.8867 42.8529 39.8021 42.9049 39.6719C42.957 39.5547 42.9961 39.4701 43.0221 39.418C43.0221 39.3789 43.0417 39.2682 43.0807 39.0859C43.1328 38.9036 43.1849 38.7018 43.237 38.4805C43.3021 38.2721 43.3542 38.0768 43.3932 37.8945C43.4453 37.7122 43.4779 37.5885 43.4909 37.5234C43.6081 37.1328 43.7708 36.7617 43.9792 36.4102C44.2005 36.0716 44.3437 35.707 44.4089 35.3164V34.0664C44.4219 33.7539 44.4674 33.4219 44.5456 33.0703C44.6367 32.7057 44.6823 32.3737 44.6823 32.0742C44.6823 31.9049 44.6562 31.7487 44.6042 31.6055C44.5651 31.4492 44.513 31.2995 44.4479 31.1562C44.3958 31.013 44.3372 30.8698 44.2721 30.7266C44.22 30.5703 44.1875 30.4141 44.1745 30.2578C44.1484 30.2188 44.1289 30.1146 44.1159 29.9453C44.1029 29.776 44.0898 29.6003 44.0768 29.418C44.0638 29.2227 44.0508 29.0469 44.0378 28.8906C44.0378 28.7344 44.0378 28.6367 44.0378 28.5977C43.9466 28.0898 43.8424 27.6081 43.7253 27.1523C43.6211 26.6836 43.543 26.1758 43.4909 25.6289C43.4128 25.5117 43.3151 25.3815 43.1979 25.2383C43.0937 25.0951 42.9831 24.9648 42.8659 24.8477C42.7487 24.7174 42.6315 24.6068 42.5143 24.5156C42.3971 24.4245 42.2865 24.3789 42.1823 24.3789C41.8047 24.3789 41.5312 24.4896 41.362 24.7109C41.1927 24.9193 41.0625 25.1536 40.9714 25.4141C40.8802 25.6615 40.7891 25.8958 40.6979 26.1172C40.6198 26.3255 40.4831 26.4297 40.2878 26.4297C40.0794 26.4297 39.9102 26.4102 39.7799 26.3711C39.6628 26.319 39.5456 26.2083 39.4284 26.0391C39.4544 25.5833 39.5195 25.1536 39.6237 24.75C39.7279 24.3333 39.8516 23.9297 39.9948 23.5391C40.151 23.1484 40.3203 22.7643 40.5026 22.3867C40.6979 21.9961 40.8932 21.599 41.0885 21.1953L41.1862 20.9609C41.2122 20.9349 41.2448 20.8698 41.2839 20.7656C41.3359 20.6484 41.388 20.5247 41.4401 20.3945C41.4922 20.2643 41.5443 20.1406 41.5964 20.0234C41.6484 19.9062 41.694 19.8346 41.7331 19.8086C41.8763 19.6523 41.987 19.5547 42.0651 19.5156C42.1432 19.4635 42.2083 19.418 42.2604 19.3789C42.3255 19.3398 42.3906 19.2812 42.4557 19.2031C42.5208 19.125 42.6185 18.9688 42.7487 18.7344L43.5299 18.6367C43.6081 18.6367 43.7057 18.6367 43.8229 18.6367C43.9531 18.6367 44.0768 18.6497 44.194 18.6758C44.3242 18.6888 44.4414 18.7148 44.5456 18.7539C44.6497 18.793 44.7279 18.8516 44.7799 18.9297C44.9622 19.138 45.0729 19.3724 45.112 19.6328C45.1641 19.8932 45.2227 20.1536 45.2878 20.4141C45.418 20.8828 45.5547 21.3581 45.6979 21.8398C45.8542 22.3216 45.9909 22.8099 46.1081 23.3047C46.2383 23.7865 46.3424 24.2682 46.4206 24.75C46.5117 25.2318 46.5573 25.7135 46.5573 26.1953C46.5573 26.3776 46.5312 26.5469 46.4792 26.7031C46.4401 26.8464 46.4206 27.0026 46.4206 27.1719C46.4727 27.3672 46.5312 27.6016 46.5964 27.875C46.6615 28.1484 46.7461 28.4089 46.8503 28.6562C46.9544 28.9036 47.0846 29.1185 47.2409 29.3008C47.3971 29.4701 47.599 29.5547 47.8464 29.5547C47.9375 29.5547 48.0286 29.5482 48.1198 29.5352C48.224 29.5091 48.3021 29.444 48.3542 29.3398C48.5104 29.1576 48.6406 28.9232 48.7448 28.6367C48.849 28.3372 48.9336 28.0312 48.9987 27.7188C49.0768 27.4062 49.1419 27.1003 49.194 26.8008C49.2461 26.5013 49.2917 26.2474 49.3307 26.0391C49.4349 25.6615 49.5716 25.3099 49.7409 24.9844C49.9232 24.6458 50.0469 24.2878 50.112 23.9102C50.151 23.7148 50.1771 23.4544 50.1901 23.1289C50.2161 22.8034 50.2422 22.4518 50.2682 22.0742C50.3073 21.6836 50.3594 21.293 50.4245 20.9023C50.4896 20.4987 50.5807 20.1406 50.6979 19.8281C50.8281 19.5026 50.9974 19.2422 51.2057 19.0469C51.4141 18.8385 51.681 18.7344 52.0065 18.7344C52.0716 18.7344 52.1758 18.7604 52.319 18.8125C52.4622 18.8516 52.6055 18.9102 52.7487 18.9883C52.9049 19.0534 53.0482 19.125 53.1784 19.2031C53.3086 19.2812 53.3997 19.3594 53.4518 19.4375V20.082C53.4518 20.2904 53.4388 20.5247 53.4128 20.7852C53.3867 21.0326 53.3411 21.2799 53.276 21.5273C53.224 21.7747 53.1458 22.0156 53.0417 22.25C52.9505 22.4844 52.8333 22.6862 52.6901 22.8555C52.6641 22.8685 52.6185 22.9076 52.5534 22.9727C52.4883 23.0378 52.4167 23.1094 52.3385 23.1875C52.2604 23.2526 52.1888 23.3242 52.1237 23.4023C52.0586 23.4674 52.0195 23.513 52.0065 23.5391C51.9935 23.5651 51.974 23.6367 51.9479 23.7539C51.9349 23.8711 51.9154 24.0013 51.8893 24.1445C51.8763 24.2878 51.8568 24.4245 51.8307 24.5547C51.8177 24.6719 51.8112 24.75 51.8112 24.7891C51.7331 24.9844 51.5964 25.2188 51.401 25.4922C51.2187 25.7656 51.0234 26.0456 50.8151 26.332C50.6068 26.6185 50.418 26.8919 50.2487 27.1523C50.0924 27.3997 50.0013 27.6016 49.9753 27.7578C49.8971 28.1875 49.7734 28.5977 49.6042 28.9883C49.4479 29.3659 49.2656 29.7435 49.0573 30.1211C48.849 30.4857 48.6341 30.8568 48.4128 31.2344C48.2044 31.612 48.0156 32.0091 47.8464 32.4258L47.5729 34.0664C47.3906 34.6914 47.1888 35.3099 46.9674 35.9219C46.7461 36.5208 46.5638 37.1458 46.4206 37.7969C46.4206 37.8099 46.4075 37.8294 46.3815 37.8555C46.3685 37.8815 46.349 37.8945 46.3229 37.8945C46.1927 37.9857 46.0885 38.0768 46.0104 38.168C45.9323 38.2721 45.8607 38.3698 45.7956 38.4609C45.7435 38.5651 45.6849 38.6693 45.6198 38.7734C45.5547 38.8776 45.4766 38.9883 45.3854 39.1055L44.9167 39.5547C44.9036 39.5938 44.8906 39.6654 44.8776 39.7695C44.8776 39.8867 44.8711 40.0039 44.8581 40.1211C44.845 40.2513 44.832 40.3685 44.819 40.4727C44.806 40.5898 44.793 40.6549 44.7799 40.668C44.7539 40.7721 44.7148 40.8958 44.6628 41.0391C44.6237 41.1823 44.5716 41.3255 44.5065 41.4688C44.4544 41.625 44.3958 41.7682 44.3307 41.8984C44.2786 42.0286 44.2266 42.1328 44.1745 42.2109C44.0703 42.3411 43.9596 42.4583 43.8424 42.5625C43.7253 42.6797 43.6081 42.7969 43.4909 42.9141C43.3867 43.0312 43.2891 43.1549 43.1979 43.2852C43.1198 43.4284 43.0612 43.5781 43.0221 43.7344C42.957 43.7995 42.8464 43.9036 42.6901 44.0469C42.5469 44.1901 42.3906 44.3398 42.2214 44.4961C42.0651 44.6654 41.9089 44.8216 41.7526 44.9648C41.6094 45.1211 41.5117 45.2383 41.4596 45.3164L41.0885 46.0391C40.75 46.5208 40.4049 46.8919 40.0534 47.1523C39.7148 47.4128 39.3503 47.6016 38.9596 47.7188C38.569 47.849 38.1458 47.9271 37.6901 47.9531C37.2214 47.9792 36.7005 47.9922 36.1276 47.9922C35.9844 48.0182 35.8411 48.0378 35.6979 48.0508C35.5547 48.0638 35.418 48.0703 35.2878 48.0703C35.1055 48.0703 34.9362 48.0638 34.7799 48.0508C34.6107 48.0378 34.4479 48.0182 34.2917 47.9922C33.9401 47.8099 33.6406 47.569 33.3932 47.2695C33.1458 46.9831 33.0221 46.6185 33.0221 46.1758ZM60.5599 34.2422C60.4818 34.1901 60.3451 34.0729 60.1497 33.8906C59.9544 33.7083 59.7461 33.513 59.5247 33.3047C59.3164 33.0833 59.1146 32.8815 58.9193 32.6992C58.724 32.5039 58.5872 32.3672 58.5091 32.2891C58.3919 32.1589 58.3008 32.0286 58.2357 31.8984C58.1836 31.7552 58.138 31.6185 58.099 31.4883C58.0729 31.3451 58.0469 31.2018 58.0208 31.0586C57.9948 30.9023 57.9427 30.7461 57.8646 30.5898C57.487 29.6263 57.207 28.6367 57.0247 27.6211C56.8555 26.6055 56.7708 25.5833 56.7708 24.5547C56.7708 24.3073 56.7708 24.0273 56.7708 23.7148C56.7708 23.4023 56.7773 23.0898 56.7904 22.7773C56.8164 22.4518 56.8424 22.1393 56.8685 21.8398C56.8945 21.5404 56.9401 21.2734 57.0052 21.0391C57.0964 20.7396 57.2135 20.4596 57.3568 20.1992C57.5 19.9258 57.6497 19.6589 57.806 19.3984C57.9622 19.125 58.1185 18.8581 58.2747 18.5977C58.431 18.3242 58.5742 18.0443 58.7044 17.7578C58.8867 17.1979 59.0755 16.638 59.2708 16.0781C59.4792 15.5182 59.7656 14.9648 60.1302 14.418C60.1432 14.3789 60.1953 14.3008 60.2865 14.1836C60.3906 14.0534 60.4948 13.9232 60.599 13.793C60.7031 13.6497 60.8008 13.5195 60.8919 13.4023C60.9961 13.2852 61.0547 13.2135 61.0677 13.1875C61.2109 12.9792 61.3477 12.8099 61.4779 12.6797C61.6081 12.5495 61.7383 12.4323 61.8685 12.3281C62.0117 12.224 62.1549 12.1133 62.2982 11.9961C62.4414 11.8659 62.5977 11.7031 62.7669 11.5078L62.9622 11.1562C63.0924 10.987 63.2161 10.8568 63.3333 10.7656C63.4635 10.6615 63.5872 10.5703 63.7044 10.4922C63.8346 10.4141 63.9648 10.3359 64.0951 10.2578C64.2253 10.1797 64.3685 10.0755 64.5247 9.94531C64.5508 9.91927 64.6224 9.85417 64.7396 9.75C64.8568 9.63281 64.9805 9.51562 65.1107 9.39844C65.2409 9.26823 65.3581 9.15104 65.4622 9.04688C65.5794 8.92969 65.6445 8.85807 65.6576 8.83203C65.6836 8.83203 65.7227 8.8125 65.7747 8.77344C65.8268 8.72135 65.8659 8.68229 65.8919 8.65625L66.9076 8.5C66.9336 8.47396 66.9987 8.41536 67.1029 8.32422C67.207 8.23307 67.2656 8.1875 67.2786 8.1875C67.4609 8.09635 67.6172 8.03125 67.7474 7.99219C67.8776 7.95312 68.0013 7.92708 68.1185 7.91406C68.2487 7.88802 68.3789 7.875 68.5091 7.875C68.6523 7.86198 68.8216 7.84245 69.0169 7.81641C69.043 7.80339 69.1276 7.77734 69.2708 7.73828C69.4141 7.6862 69.5703 7.64062 69.7396 7.60156C69.9089 7.54948 70.0651 7.50391 70.2083 7.46484C70.3646 7.41276 70.4687 7.38672 70.5208 7.38672H71.5169C71.6081 7.38672 71.7643 7.38672 71.9857 7.38672C72.2201 7.38672 72.4609 7.39323 72.7083 7.40625C72.9557 7.41927 73.1901 7.4388 73.4115 7.46484C73.6328 7.47786 73.7956 7.50391 73.8997 7.54297C73.9388 7.55599 74.0169 7.60156 74.1341 7.67969C74.2513 7.74479 74.375 7.82292 74.5052 7.91406C74.6484 8.00521 74.7786 8.09635 74.8958 8.1875C75.013 8.26562 75.0781 8.32422 75.0911 8.36328C75.4687 8.58464 75.9245 8.72786 76.4583 8.79297C76.9922 8.84505 77.4805 8.87109 77.9232 8.87109C78.1055 8.87109 78.2617 8.81901 78.3919 8.71484C78.5352 8.61068 78.6849 8.55859 78.8411 8.55859C78.9193 8.55859 79.0104 8.60417 79.1146 8.69531C79.2318 8.78646 79.3424 8.89714 79.4466 9.02734C79.5508 9.14453 79.6354 9.26823 79.7005 9.39844C79.7786 9.52865 79.8177 9.63281 79.8177 9.71094V9.75C79.7526 9.98438 79.6745 10.1862 79.5833 10.3555C79.4922 10.5247 79.4466 10.7396 79.4466 11C79.4466 11.2604 79.4792 11.5013 79.5443 11.7227C79.6224 11.931 79.6615 12.1263 79.6615 12.3086V12.543C79.6484 12.582 79.6159 12.6667 79.5638 12.7969C79.5117 12.9271 79.4531 13.0703 79.388 13.2266C79.3359 13.3828 79.2839 13.5326 79.2318 13.6758C79.1797 13.806 79.1536 13.8906 79.1536 13.9297C79.1016 14.138 79.0755 14.3398 79.0755 14.5352C79.0755 14.7174 79.056 14.8802 79.0169 15.0234C78.9909 15.1667 78.9193 15.2839 78.8021 15.375C78.6849 15.4531 78.4831 15.4922 78.1966 15.4922C77.7018 15.4922 77.3307 15.3815 77.0833 15.1602C76.849 14.9258 76.6667 14.6393 76.5365 14.3008C76.4193 13.9492 76.3281 13.5716 76.263 13.168C76.2109 12.7643 76.1263 12.3867 76.0091 12.0352C75.8659 11.6576 75.625 11.306 75.2865 10.9805C74.9479 10.6549 74.5638 10.3685 74.1341 10.1211C73.7174 9.8737 73.2812 9.6849 72.8255 9.55469C72.3698 9.41146 71.9531 9.33984 71.5755 9.33984H71.3802L70.931 9.61328H69.681C69.4987 9.6263 69.2839 9.71745 69.0365 9.88672C68.7891 10.056 68.5352 10.2513 68.2747 10.4727C68.0143 10.681 67.7604 10.8958 67.513 11.1172C67.2786 11.3255 67.0768 11.4883 66.9076 11.6055C66.8945 11.6185 66.8229 11.6706 66.6927 11.7617C66.5755 11.8398 66.4453 11.931 66.3021 12.0352C66.1589 12.1393 66.0221 12.2435 65.8919 12.3477C65.7617 12.4388 65.6836 12.5039 65.6576 12.543C65.5924 12.6081 65.5339 12.6797 65.4818 12.7578C65.4297 12.8229 65.4036 12.901 65.4036 12.9922C65.4036 13.0833 65.4102 13.1484 65.4232 13.1875C65.3841 13.2526 65.319 13.3698 65.2279 13.5391C65.1367 13.6953 65.0391 13.8711 64.9349 14.0664C64.8437 14.2487 64.7591 14.4245 64.681 14.5938C64.6029 14.75 64.5508 14.8542 64.5247 14.9062C64.4206 15.1016 64.2448 15.4466 63.9974 15.9414C63.763 16.4232 63.5156 16.944 63.2552 17.5039C63.0078 18.0508 62.7865 18.5716 62.5911 19.0664C62.4089 19.5612 62.3177 19.9128 62.3177 20.1211C62.1484 20.707 61.9922 21.2995 61.849 21.8984C61.7057 22.4844 61.6016 23.0833 61.5365 23.6953C61.3932 23.9557 61.3021 24.2292 61.263 24.5156C61.224 24.7891 61.2044 25.069 61.2044 25.3555V26.6445L61.0677 28.6953L61.6732 30.3164C61.6732 30.4206 61.6471 30.5182 61.5951 30.6094C61.556 30.7005 61.5365 30.8177 61.5365 30.9609C61.5365 30.987 61.6081 31.0781 61.7513 31.2344C61.8945 31.3776 62.0703 31.5599 62.2786 31.7812C62.5 32.0026 62.7344 32.237 62.9818 32.4844C63.2292 32.7318 63.4635 32.9661 63.6849 33.1875C63.9062 33.3958 64.0951 33.5781 64.2513 33.7344C64.4076 33.8776 64.4987 33.9557 64.5247 33.9688C64.668 34.0599 64.8307 34.1185 65.013 34.1445C65.2083 34.1706 65.4167 34.1836 65.638 34.1836H67.3177C67.4349 34.1836 67.6367 34.138 67.9232 34.0469C68.2096 33.9557 68.5026 33.8516 68.8021 33.7344C69.1146 33.6042 69.3945 33.474 69.6419 33.3438C69.9023 33.2135 70.0521 33.1094 70.0911 33.0312C70.1432 32.9401 70.2344 32.7773 70.3646 32.543C70.5078 32.3086 70.651 32.0677 70.7943 31.8203C70.9505 31.5599 71.0937 31.3125 71.224 31.0781C71.3672 30.8438 71.4648 30.681 71.5169 30.5898C71.543 30.5638 71.569 30.5247 71.5951 30.4727C71.6341 30.4206 71.6536 30.3815 71.6536 30.3555V29.6133C71.6927 29.457 71.7578 29.2812 71.849 29.0859C71.9401 28.8906 72.0312 28.6888 72.1224 28.4805C72.2266 28.2591 72.3112 28.0378 72.3763 27.8164C72.4544 27.5951 72.4935 27.3932 72.4935 27.2109C72.4935 27.0547 72.4609 26.8724 72.3958 26.6641C72.3437 26.4427 72.2656 26.2344 72.1615 26.0391C72.0573 25.8307 71.9401 25.6484 71.8099 25.4922C71.6797 25.3229 71.5365 25.2122 71.3802 25.1602C71.224 25.082 71.0612 25.0234 70.8919 24.9844C70.7227 24.9323 70.5729 24.8737 70.4427 24.8086C70.3125 24.7435 70.2018 24.6458 70.1107 24.5156C70.0326 24.3854 69.9935 24.2031 69.9935 23.9688C69.9935 23.8385 70.0456 23.7083 70.1497 23.5781C70.2539 23.4479 70.3711 23.3307 70.5013 23.2266C70.6445 23.1094 70.7878 23.0117 70.931 22.9336C71.0742 22.8555 71.1784 22.7969 71.2435 22.7578C71.5299 22.7578 71.7318 22.7839 71.849 22.8359C71.9661 22.888 72.1094 22.9271 72.2786 22.9531H73.431C73.6654 22.9792 73.8867 23.0312 74.0951 23.1094C74.3034 23.1875 74.5117 23.2266 74.7201 23.2266C75.0586 23.2266 75.3776 23.181 75.6771 23.0898C75.9896 22.9987 76.2891 22.9531 76.5755 22.9531C76.7187 22.9531 76.9401 22.9466 77.2396 22.9336C77.5391 22.9206 77.8581 22.9141 78.1966 22.9141C78.5612 22.9141 78.8932 22.9206 79.1927 22.9336C79.4922 22.9466 79.7005 22.9531 79.8177 22.9531C79.8437 22.9271 79.8828 22.9076 79.9349 22.8945C80 22.8685 80.0391 22.8555 80.0521 22.8555C80.1172 22.8555 80.1953 22.8815 80.2865 22.9336C80.3906 22.9857 80.4883 23.0508 80.5794 23.1289C80.6706 23.207 80.7487 23.2917 80.8138 23.3828C80.8789 23.4609 80.9115 23.5326 80.9115 23.5977C80.9115 23.6497 80.9049 23.6953 80.8919 23.7344C80.8919 23.7604 80.8594 23.806 80.7943 23.8711C80.7682 23.8841 80.6836 23.9362 80.5404 24.0273C80.4102 24.1055 80.2669 24.1966 80.1107 24.3008C79.9544 24.3919 79.8112 24.4831 79.681 24.5742C79.5508 24.6654 79.4727 24.724 79.4466 24.75C79.3815 24.7891 79.2708 24.8737 79.1146 25.0039C78.9714 25.1341 78.8151 25.2773 78.6458 25.4336C78.4766 25.5768 78.3203 25.7201 78.1771 25.8633C78.0469 25.9935 77.9557 26.0846 77.9036 26.1367C77.8255 26.2409 77.7344 26.4427 77.6302 26.7422C77.526 27.0286 77.4219 27.3411 77.3177 27.6797C77.2266 28.0052 77.1484 28.3242 77.0833 28.6367C77.0182 28.9362 76.9857 29.1576 76.9857 29.3008L77.1615 30.6875C77.1615 30.9609 77.0964 31.2474 76.9661 31.5469C76.849 31.8464 76.6927 32.1393 76.4974 32.4258C76.3021 32.7122 76.0872 32.9792 75.8529 33.2266C75.6315 33.4609 75.4232 33.6628 75.2279 33.832C74.3424 34.1576 73.4701 34.5026 72.6107 34.8672C71.7513 35.2188 70.8789 35.5833 69.9935 35.9609C69.4987 35.987 69.0299 36.0326 68.5872 36.0977C68.1445 36.1628 67.6888 36.1953 67.2201 36.1953C66.9596 36.1953 66.7122 36.1758 66.4779 36.1367C66.2565 36.0977 66.0352 36.0521 65.8138 36C65.6055 35.9609 65.3971 35.9154 65.1888 35.8633C64.9805 35.8112 64.7591 35.7656 64.5247 35.7266C64.4857 35.7266 64.3945 35.7201 64.2513 35.707C64.1211 35.694 63.9714 35.681 63.8021 35.668C63.6458 35.6419 63.4961 35.6159 63.3529 35.5898C63.2227 35.5638 63.138 35.5443 63.099 35.5312C62.8646 35.5182 62.6432 35.4661 62.4349 35.375C62.2266 35.2708 62.0182 35.1602 61.8099 35.043C61.6016 34.9128 61.3932 34.776 61.1849 34.6328C60.9896 34.4896 60.7812 34.3594 60.5599 34.2422ZM81.9062 34.8867C81.9323 34.0013 82.0885 33.2005 82.375 32.4844C82.6615 31.7552 83.013 31.026 83.4297 30.2969C83.5339 30.1016 83.6185 29.8867 83.6836 29.6523C83.7617 29.4049 83.8268 29.1576 83.8789 28.9102C83.931 28.6628 83.9831 28.4219 84.0352 28.1875C84.0872 27.9401 84.1523 27.7188 84.2305 27.5234L84.6406 26C84.6797 25.8958 84.7383 25.7331 84.8164 25.5117C84.8945 25.2904 84.9661 25.043 85.0312 24.7695C85.0964 24.4961 85.1549 24.2161 85.207 23.9297C85.2721 23.6432 85.3047 23.3893 85.3047 23.168C85.3047 23.0768 85.2852 22.9661 85.2461 22.8359C85.2201 22.7057 85.1745 22.582 85.1094 22.4648C85.0573 22.3346 84.9857 22.2305 84.8945 22.1523C84.8164 22.0612 84.7188 22.0156 84.6016 22.0156C84.3281 22.0156 84.0547 22.1328 83.7812 22.3672C83.5208 22.6016 83.2539 22.8685 82.9805 23.168C82.7201 23.4674 82.4531 23.7539 82.1797 24.0273C81.9193 24.3008 81.6458 24.4766 81.3594 24.5547C81.2943 24.5286 81.2617 24.4831 81.2617 24.418C81.2617 24.0664 81.3203 23.7474 81.4375 23.4609C81.5677 23.1615 81.737 22.901 81.9453 22.6797C82.1536 22.4453 82.3815 22.2435 82.6289 22.0742C82.8763 21.9049 83.1302 21.7617 83.3906 21.6445C83.4557 21.5924 83.4948 21.5208 83.5078 21.4297C83.5208 21.3385 83.5273 21.1823 83.5273 20.9609C83.5273 20.7917 83.5729 20.681 83.6641 20.6289C83.6771 20.6159 83.7552 20.5833 83.8984 20.5312C84.0547 20.4661 84.1654 20.4206 84.2305 20.3945C84.2435 20.3815 84.2695 20.3555 84.3086 20.3164C84.3607 20.2643 84.4062 20.2122 84.4453 20.1602C84.4974 20.0951 84.5365 20.0365 84.5625 19.9844C84.6016 19.9323 84.6276 19.8997 84.6406 19.8867C84.9792 19.6654 85.3112 19.4831 85.6367 19.3398C85.9753 19.1836 86.3398 19.0599 86.7305 18.9688C86.7695 18.9948 86.8346 19.0339 86.9258 19.0859C87.0299 19.125 87.1341 19.1771 87.2383 19.2422C87.3424 19.2943 87.4401 19.3464 87.5312 19.3984C87.6354 19.4375 87.707 19.4635 87.7461 19.4766C87.8372 19.5417 87.9219 19.6589 88 19.8281C88.0911 19.9974 88.1758 20.1797 88.2539 20.375C88.332 20.5703 88.4036 20.7526 88.4688 20.9219C88.5339 21.0911 88.5859 21.2148 88.625 21.293C88.7292 21.3581 88.8464 21.4102 88.9766 21.4492C89.1198 21.4883 89.263 21.5078 89.4062 21.5078C89.4974 21.5078 89.6016 21.4753 89.7188 21.4102C89.8359 21.3451 89.9401 21.2669 90.0312 21.1758C90.1354 21.0716 90.2201 20.9609 90.2852 20.8438C90.3633 20.7266 90.4089 20.6224 90.4219 20.5312L91.5352 19.3398C91.5872 19.3138 91.6523 19.3008 91.7305 19.3008C91.8086 19.2878 91.8997 19.2812 92.0039 19.2812H92.4727C92.5117 19.2812 92.5573 19.2682 92.6094 19.2422C92.6615 19.2161 92.694 19.2031 92.707 19.2031C92.7201 19.2031 92.7461 19.1836 92.7852 19.1445C92.8372 19.1055 92.8893 19.0664 92.9414 19.0273C93.0065 18.9753 93.0651 18.9297 93.1172 18.8906C93.1693 18.8516 93.2018 18.832 93.2148 18.832C93.2148 18.806 93.2604 18.793 93.3516 18.793C93.4427 18.793 93.5208 18.793 93.5859 18.793C93.9375 18.793 94.2174 18.8451 94.4258 18.9492C94.6341 19.0534 94.7969 19.1966 94.9141 19.3789C95.0312 19.5612 95.1094 19.7826 95.1484 20.043C95.1875 20.2904 95.207 20.5638 95.207 20.8633C95.207 21.1497 95.194 21.4036 95.168 21.625C95.1549 21.8333 95.1029 22.0091 95.0117 22.1523C94.9336 22.2826 94.8034 22.3802 94.6211 22.4453C94.4518 22.5104 94.2109 22.543 93.8984 22.543C93.5469 22.543 93.1953 22.5039 92.8438 22.4258C92.4922 22.3346 92.0885 22.2891 91.6328 22.2891C91.5938 22.2891 91.5156 22.2956 91.3984 22.3086C91.2943 22.3216 91.1706 22.3411 91.0273 22.3672C90.8971 22.3802 90.7734 22.3997 90.6562 22.4258C90.5391 22.4388 90.4609 22.4453 90.4219 22.4453C90.2526 22.5495 90.1159 22.6667 90.0117 22.7969C89.9076 22.9271 89.8164 23.0703 89.7383 23.2266C89.6602 23.3828 89.5885 23.5456 89.5234 23.7148C89.4583 23.8711 89.3867 24.0273 89.3086 24.1836L88.7227 24.8477V25.4531C88.7096 25.6615 88.6576 25.8438 88.5664 26C88.4883 26.1562 88.3906 26.306 88.2734 26.4492C88.1693 26.5794 88.0651 26.7096 87.9609 26.8398C87.8698 26.957 87.7982 27.0938 87.7461 27.25V28.2656C87.7461 28.2917 87.707 28.3633 87.6289 28.4805C87.5508 28.5846 87.4987 28.6497 87.4727 28.6758C87.3424 28.8711 87.2383 29.0859 87.1602 29.3203C87.082 29.5547 87.0104 29.7891 86.9453 30.0234C86.8932 30.2578 86.8411 30.4987 86.7891 30.7461C86.737 30.9805 86.6719 31.2083 86.5938 31.4297L85.8125 32.9922C85.6562 33.4609 85.5456 33.9036 85.4805 34.3203C85.4284 34.724 85.3242 35.0755 85.168 35.375C85.0247 35.6615 84.7969 35.8893 84.4844 36.0586C84.1719 36.2279 83.6836 36.3125 83.0195 36.3125C82.8763 36.3125 82.7396 36.2539 82.6094 36.1367C82.4922 36.0326 82.3815 35.9023 82.2773 35.7461C82.1862 35.5898 82.1081 35.4336 82.043 35.2773C81.9779 35.1081 81.9323 34.9779 81.9062 34.8867ZM93.9753 35.2188C93.9753 34.8932 93.9883 34.6068 94.0143 34.3594C94.0404 34.112 94.0859 33.8776 94.151 33.6562C94.2292 33.4349 94.3203 33.2201 94.4245 33.0117C94.5417 32.7904 94.6849 32.5495 94.8542 32.2891C94.8802 32.25 94.8997 32.1719 94.9128 32.0547C94.9388 31.9375 94.9518 31.8659 94.9518 31.8398C95.095 31.5794 95.2708 31.3451 95.4792 31.1367C95.7005 30.9284 95.8633 30.681 95.9674 30.3945C95.9805 30.3555 96.013 30.2578 96.0651 30.1016C96.1172 29.9453 96.1693 29.7891 96.2214 29.6328C96.2865 29.4635 96.3385 29.3073 96.3776 29.1641C96.4297 29.0208 96.4622 28.9362 96.4753 28.9102C96.5404 28.7148 96.612 28.5456 96.6901 28.4023C96.7812 28.2591 96.8789 28.1289 96.9831 28.0117C97.0872 27.8945 97.2044 27.7839 97.3346 27.6797C97.4648 27.5625 97.6081 27.4323 97.7643 27.2891C97.7904 27.0807 97.8294 26.8073 97.8815 26.4688C97.9466 26.1302 98.0508 25.8503 98.194 25.6289C98.2982 25.4206 98.4284 25.2383 98.5846 25.082C98.7539 24.9128 98.8385 24.7109 98.8385 24.4766C98.8385 24.138 98.7409 23.8776 98.5456 23.6953C98.3633 23.5 98.1029 23.4023 97.7643 23.4023C97.5039 23.4023 97.2825 23.4609 97.1003 23.5781C96.918 23.6953 96.7357 23.8255 96.5534 23.9688C96.3711 24.099 96.1693 24.2227 95.9479 24.3398C95.7266 24.457 95.4531 24.5156 95.1276 24.5156C95.1797 24.1901 95.2578 23.9232 95.362 23.7148C95.4661 23.5065 95.5964 23.3307 95.7526 23.1875C95.9089 23.0443 96.0846 22.9141 96.2799 22.7969C96.4753 22.6667 96.6836 22.5169 96.9049 22.3477C96.944 22.3086 97.0221 22.2305 97.1393 22.1133C97.2565 21.9831 97.3867 21.8464 97.5299 21.7031C97.6732 21.5469 97.8034 21.4102 97.9206 21.293C98.0508 21.1628 98.1419 21.0846 98.194 21.0586C98.3503 20.9154 98.487 20.8242 98.6042 20.7852C98.7344 20.7331 98.8581 20.7005 98.9753 20.6875C99.1055 20.6745 99.2422 20.6615 99.3854 20.6484C99.5286 20.6354 99.6979 20.5964 99.8932 20.5312C100.102 20.4922 100.271 20.4141 100.401 20.2969C100.544 20.1797 100.687 20.0625 100.831 19.9453C100.974 19.8151 101.143 19.6979 101.339 19.5938C101.547 19.4896 101.827 19.4375 102.178 19.4375C102.23 19.4375 102.315 19.4505 102.432 19.4766C102.562 19.4896 102.686 19.5221 102.803 19.5742C102.934 19.6133 103.044 19.6654 103.135 19.7305C103.227 19.7826 103.272 19.8477 103.272 19.9258V21.332C103.272 21.3971 103.246 21.4818 103.194 21.5859C103.142 21.6901 103.083 21.7943 103.018 21.8984C102.953 22.0026 102.888 22.1068 102.823 22.2109C102.771 22.3151 102.738 22.4062 102.725 22.4844C102.699 22.6016 102.654 22.7513 102.589 22.9336C102.536 23.1029 102.491 23.2005 102.452 23.2266C102.452 23.2526 102.426 23.2982 102.374 23.3633C102.335 23.4284 102.283 23.5 102.217 23.5781C102.165 23.6432 102.113 23.7083 102.061 23.7734C102.022 23.8385 101.996 23.8841 101.983 23.9102V24.2812C101.957 24.4115 101.924 24.5156 101.885 24.5938C101.859 24.6589 101.814 24.724 101.749 24.7891C101.697 24.8411 101.632 24.8997 101.553 24.9648C101.488 25.0299 101.417 25.1276 101.339 25.2578C101.339 25.2839 101.312 25.3424 101.26 25.4336C101.221 25.5247 101.189 25.5898 101.163 25.6289C101.098 25.9284 101.033 26.1758 100.967 26.3711C100.915 26.5664 100.85 26.7487 100.772 26.918C100.694 27.0742 100.609 27.2435 100.518 27.4258C100.427 27.5951 100.329 27.7969 100.225 28.0312C100.108 28.2917 100.004 28.5651 99.9128 28.8516C99.8346 29.138 99.7435 29.4245 99.6393 29.7109C99.5482 29.9844 99.431 30.2448 99.2878 30.4922C99.1575 30.7396 98.9818 30.9414 98.7604 31.0977C98.7604 31.2539 98.7604 31.4167 98.7604 31.5859C98.7734 31.7552 98.806 31.9115 98.8581 32.0547C98.9232 32.1849 99.0078 32.2956 99.112 32.3867C99.2292 32.4779 99.3984 32.5234 99.6198 32.5234C99.8802 32.5234 100.147 32.4388 100.421 32.2695C100.694 32.0872 100.98 31.8919 101.28 31.6836C101.579 31.4622 101.905 31.2669 102.257 31.0977C102.608 30.9154 102.992 30.8242 103.409 30.8242C103.409 30.9414 103.383 31.0911 103.331 31.2734C103.279 31.4427 103.214 31.5794 103.135 31.6836L100.049 34.8086C100.023 34.8216 99.9974 34.8346 99.9714 34.8477C99.9583 34.8607 99.9388 34.8737 99.9128 34.8867C99.8737 34.8997 99.8411 34.9128 99.8151 34.9258C99.1641 35.3424 98.5195 35.6875 97.8815 35.9609C97.2565 36.2344 96.5729 36.3711 95.8307 36.3711C95.7135 36.3711 95.5508 36.3451 95.3424 36.293C95.1341 36.2409 94.9258 36.1628 94.7174 36.0586C94.5221 35.9674 94.3464 35.8503 94.1901 35.707C94.0469 35.5638 93.9753 35.401 93.9753 35.2188ZM102.315 10.8242C102.315 10.5378 102.374 10.2773 102.491 10.043C102.608 9.79557 102.764 9.58724 102.96 9.41797C103.168 9.23568 103.402 9.09896 103.663 9.00781C103.936 8.91667 104.223 8.87109 104.522 8.87109C104.704 8.87109 104.926 8.8776 105.186 8.89062C105.46 8.89062 105.707 8.91667 105.928 8.96875C106.059 9.02083 106.182 9.14453 106.299 9.33984C106.417 9.53516 106.521 9.75651 106.612 10.0039C106.703 10.2383 106.775 10.4727 106.827 10.707C106.879 10.9414 106.905 11.1172 106.905 11.2344C106.905 11.4036 106.866 11.5339 106.788 11.625C106.71 11.7161 106.625 11.8659 106.534 12.0742C106.404 12.3607 106.293 12.5951 106.202 12.7773C106.124 12.9596 106.02 13.1029 105.889 13.207C105.759 13.2982 105.596 13.3633 105.401 13.4023C105.206 13.4414 104.932 13.4609 104.581 13.4609C104.216 13.4609 103.891 13.3893 103.604 13.2461C103.331 13.0898 103.096 12.8945 102.901 12.6602C102.706 12.4128 102.556 12.1328 102.452 11.8203C102.361 11.4948 102.315 11.1628 102.315 10.8242ZM113.622 34.9258C113.622 34.9128 113.642 34.8542 113.681 34.75C113.72 34.6458 113.766 34.5286 113.818 34.3984C113.87 34.2682 113.922 34.138 113.974 34.0078C114.039 33.8646 114.085 33.7539 114.111 33.6758C114.137 33.6497 114.189 33.5846 114.267 33.4805L114.384 33.3242C114.41 33.2982 114.436 33.2266 114.462 33.1094C114.488 32.9792 114.508 32.8359 114.521 32.6797C114.547 32.5755 114.566 32.4909 114.579 32.4258C114.592 32.3477 114.599 32.3021 114.599 32.2891C114.729 31.9766 114.859 31.7161 114.99 31.5078C115.133 31.2995 115.257 31.0977 115.361 30.9023C115.478 30.707 115.576 30.5052 115.654 30.2969C115.732 30.0755 115.771 29.8021 115.771 29.4766C115.836 29.4505 115.921 29.3984 116.025 29.3203C116.129 29.2292 116.227 29.1576 116.318 29.1055C116.331 29.0404 116.37 28.9167 116.435 28.7344C116.5 28.5521 116.572 28.3633 116.65 28.168C116.741 27.9596 116.819 27.7643 116.884 27.582C116.962 27.3867 117.021 27.25 117.06 27.1719C117.164 26.9245 117.288 26.6771 117.431 26.4297C117.574 26.1693 117.711 25.9023 117.841 25.6289C117.984 25.3555 118.102 25.082 118.193 24.8086C118.297 24.5221 118.349 24.2292 118.349 23.9297L118.251 23.5C118.16 23.2396 118.063 22.9857 117.958 22.7383C117.854 22.4909 117.724 22.2695 117.568 22.0742C117.411 21.8789 117.21 21.7227 116.962 21.6055C116.715 21.4883 116.409 21.4297 116.044 21.4297C115.758 21.4297 115.517 21.5078 115.322 21.6641C115.139 21.8203 114.977 22.0091 114.833 22.2305C114.703 22.4518 114.579 22.6862 114.462 22.9336C114.358 23.168 114.241 23.3698 114.111 23.5391C114.033 23.6172 113.922 23.6823 113.779 23.7344C113.648 23.7734 113.551 23.8646 113.486 24.0078C113.473 24.0208 113.453 24.0534 113.427 24.1055C113.414 24.1576 113.388 24.2161 113.349 24.2812C113.323 24.3333 113.297 24.3854 113.271 24.4375C113.258 24.4766 113.245 24.5026 113.232 24.5156C113.219 24.5547 113.173 24.6133 113.095 24.6914C113.03 24.7565 112.958 24.8346 112.88 24.9258C112.802 25.0039 112.724 25.082 112.646 25.1602C112.568 25.2253 112.516 25.2708 112.49 25.2969C111.826 26.8724 111.227 28.2982 110.693 29.5742C110.458 30.1211 110.224 30.6615 109.99 31.1953C109.768 31.7292 109.56 32.2174 109.365 32.6602C109.182 33.0898 109.02 33.4609 108.876 33.7734C108.733 34.0729 108.635 34.2617 108.583 34.3398C108.479 34.5482 108.368 34.724 108.251 34.8672C108.147 35.0104 108.03 35.1471 107.9 35.2773C107.783 35.3945 107.646 35.5117 107.49 35.6289C107.346 35.7461 107.177 35.8698 106.982 36L106.513 36.0977C106.305 36.0977 106.122 36.0521 105.966 35.9609C105.823 35.8568 105.706 35.7331 105.615 35.5898C105.523 35.4336 105.452 35.2643 105.4 35.082C105.361 34.8867 105.341 34.6979 105.341 34.5156C105.341 34.3073 105.432 33.9948 105.615 33.5781C105.797 33.1484 106.005 32.6992 106.24 32.2305C106.474 31.7617 106.695 31.319 106.904 30.9023C107.125 30.4727 107.275 30.1536 107.353 29.9453C107.457 29.7109 107.522 29.4505 107.548 29.1641C107.587 28.8646 107.691 28.5846 107.861 28.3242C107.9 28.2461 107.984 28.1419 108.115 28.0117C108.245 27.8685 108.382 27.7188 108.525 27.5625C108.668 27.3932 108.798 27.224 108.915 27.0547C109.033 26.8724 109.111 26.7031 109.15 26.5469C109.215 26.2604 109.306 25.9935 109.423 25.7461C109.553 25.4857 109.677 25.2318 109.794 24.9844C109.911 24.737 110.016 24.4896 110.107 24.2422C110.198 23.9818 110.243 23.7083 110.243 23.4219C110.243 23.3568 110.237 23.2526 110.224 23.1094C110.211 22.9661 110.191 22.8815 110.165 22.8555C109.996 22.543 109.749 22.2956 109.423 22.1133H109.15C108.967 22.1133 108.824 22.1393 108.72 22.1914C108.616 22.2435 108.531 22.3151 108.466 22.4062C108.414 22.4844 108.368 22.5885 108.329 22.7188C108.29 22.8359 108.238 22.9596 108.173 23.0898C108.134 23.1289 108.017 23.2331 107.822 23.4023C107.626 23.5586 107.418 23.7344 107.197 23.9297C106.975 24.112 106.767 24.2812 106.572 24.4375C106.376 24.5807 106.266 24.6523 106.24 24.6523C106.161 24.6523 106.116 24.6198 106.103 24.5547C106.09 24.4896 106.07 24.431 106.044 24.3789C106.174 24.1445 106.305 23.9232 106.435 23.7148C106.539 23.5326 106.643 23.3568 106.747 23.1875C106.865 23.0182 106.956 22.888 107.021 22.7969L107.353 22.1133C107.366 22.1003 107.411 22.0742 107.49 22.0352C107.568 21.9961 107.652 21.957 107.743 21.918C107.835 21.8659 107.919 21.8203 107.997 21.7812C108.076 21.7422 108.134 21.7161 108.173 21.7031C108.251 21.651 108.316 21.5794 108.368 21.4883C108.434 21.3841 108.492 21.2799 108.544 21.1758C108.609 21.0586 108.674 20.9479 108.74 20.8438C108.818 20.7266 108.909 20.6224 109.013 20.5312C109.143 20.4401 109.286 20.3685 109.443 20.3164C109.599 20.2643 109.755 20.2188 109.911 20.1797C110.068 20.1276 110.224 20.0755 110.38 20.0234C110.536 19.9714 110.693 19.8997 110.849 19.8086H112.333C112.49 19.8086 112.607 19.9193 112.685 20.1406C112.776 20.349 112.874 20.5833 112.978 20.8438C113.082 21.0911 113.219 21.319 113.388 21.5273C113.57 21.7357 113.837 21.8398 114.189 21.8398C114.462 21.8398 114.651 21.7552 114.755 21.5859C114.859 21.4167 114.996 21.2409 115.165 21.0586C115.374 20.8633 115.628 20.6615 115.927 20.4531C116.227 20.2448 116.552 20.056 116.904 19.8867C117.255 19.7174 117.62 19.5807 117.997 19.4766C118.375 19.3594 118.74 19.3008 119.091 19.3008C119.378 19.418 119.677 19.6003 119.99 19.8477C120.302 20.082 120.576 20.2708 120.81 20.4141C120.979 20.5443 121.083 20.7135 121.122 20.9219C121.174 21.1172 121.214 21.3125 121.24 21.5078C121.279 21.7031 121.344 21.8724 121.435 22.0156C121.526 22.1458 121.715 22.2109 122.001 22.2109C122.262 22.2109 122.457 22.1849 122.587 22.1328C122.717 22.0807 122.822 22.0156 122.9 21.9375C122.991 21.8464 123.076 21.7552 123.154 21.6641C123.232 21.5599 123.342 21.4622 123.486 21.3711C123.499 21.3451 123.551 21.3125 123.642 21.2734C123.733 21.2214 123.792 21.1953 123.818 21.1953C124.208 21.026 124.534 20.8438 124.794 20.6484C125.055 20.4401 125.309 20.2513 125.556 20.082C125.803 19.8997 126.077 19.75 126.376 19.6328C126.689 19.5026 127.086 19.4375 127.568 19.4375C127.841 19.4375 128.134 19.5091 128.447 19.6523C128.772 19.7956 129.065 19.9844 129.326 20.2188C129.599 20.4531 129.82 20.7135 129.99 21C130.172 21.2865 130.263 21.5664 130.263 21.8398C130.263 22.0221 130.217 22.3021 130.126 22.6797C130.048 23.0443 129.951 23.4284 129.833 23.832C129.716 24.2357 129.592 24.6068 129.462 24.9453C129.345 25.2839 129.241 25.5117 129.15 25.6289C129.124 25.6549 129.072 25.7135 128.993 25.8047C128.915 25.8828 128.831 25.974 128.74 26.0781C128.661 26.1823 128.583 26.2799 128.505 26.3711C128.44 26.4622 128.401 26.5273 128.388 26.5664V27.582C128.349 27.6992 128.284 27.8099 128.193 27.9141C128.102 28.0052 127.997 28.1029 127.88 28.207C127.776 28.2982 127.672 28.4023 127.568 28.5195C127.464 28.6367 127.385 28.7669 127.333 28.9102C127.294 29.0273 127.262 29.151 127.236 29.2812C127.223 29.4115 127.132 29.5221 126.962 29.6133C126.949 29.6523 126.936 29.724 126.923 29.8281C126.91 29.9323 126.897 30.0365 126.884 30.1406C126.871 30.2448 126.858 30.3424 126.845 30.4336C126.832 30.5247 126.826 30.5898 126.826 30.6289V31.4102C126.786 31.5143 126.728 31.612 126.65 31.7031C126.585 31.7943 126.513 31.8919 126.435 31.9961C126.357 32.0872 126.285 32.1849 126.22 32.2891C126.168 32.3802 126.142 32.4909 126.142 32.6211C126.142 32.7253 126.194 32.8359 126.298 32.9531C126.402 33.0573 126.526 33.1549 126.669 33.2461C126.813 33.3372 126.949 33.4089 127.079 33.4609C127.223 33.513 127.327 33.5391 127.392 33.5391C127.509 33.5391 127.646 33.4414 127.802 33.2461C127.971 33.0508 128.16 32.8359 128.368 32.6016C128.59 32.3542 128.837 32.1328 129.111 31.9375C129.397 31.7422 129.716 31.6445 130.068 31.6445C130.068 31.8268 130.048 32.0221 130.009 32.2305C129.97 32.4258 129.866 32.6146 129.697 32.7969L129.658 32.8359C129.645 32.849 129.638 32.888 129.638 32.9531C129.208 33.3047 128.798 33.6953 128.408 34.125C128.017 34.5547 127.607 34.9583 127.177 35.3359C126.747 35.7005 126.285 36.0065 125.79 36.2539C125.309 36.5143 124.762 36.6445 124.15 36.6445C123.707 36.6445 123.362 36.5013 123.115 36.2148C122.88 35.9284 122.685 35.5964 122.529 35.2188V34.5156C122.529 34.0729 122.561 33.6628 122.626 33.2852C122.691 32.8945 122.783 32.5169 122.9 32.1523C123.03 31.7747 123.18 31.4102 123.349 31.0586C123.518 30.694 123.707 30.3229 123.915 29.9453C123.954 29.9323 124 29.8477 124.052 29.6914C124.104 29.5221 124.137 29.3919 124.15 29.3008C124.241 29.1055 124.345 28.9167 124.462 28.7344C124.592 28.5391 124.716 28.3503 124.833 28.168C124.964 27.9857 125.081 27.7969 125.185 27.6016C125.289 27.4062 125.374 27.1979 125.439 26.9766C125.439 26.9375 125.445 26.8724 125.458 26.7812C125.471 26.6901 125.484 26.5924 125.497 26.4883C125.51 26.3841 125.523 26.293 125.536 26.2148C125.549 26.1237 125.563 26.0651 125.576 26.0391C125.654 25.8307 125.751 25.6289 125.868 25.4336C125.986 25.2383 126.096 25.043 126.201 24.8477C126.318 24.6393 126.409 24.431 126.474 24.2227C126.552 24.0143 126.591 23.793 126.591 23.5586C126.591 23.4414 126.559 23.2786 126.493 23.0703C126.441 22.849 126.363 22.6341 126.259 22.4258C126.168 22.2044 126.064 22.0156 125.947 21.8594C125.829 21.6901 125.706 21.6055 125.576 21.6055C125.341 21.6055 125.068 21.7031 124.755 21.8984C124.443 22.0938 124.13 22.3281 123.818 22.6016C123.505 22.875 123.219 23.1549 122.958 23.4414C122.698 23.7148 122.503 23.9362 122.372 24.1055C122.346 24.1445 122.32 24.2357 122.294 24.3789C122.281 24.5221 122.262 24.6133 122.236 24.6523C122.223 24.6914 122.19 24.7565 122.138 24.8477C122.086 24.9388 122.027 25.0365 121.962 25.1406C121.897 25.2448 121.832 25.3424 121.767 25.4336C121.702 25.5247 121.663 25.5898 121.65 25.6289C121.585 25.707 121.493 25.7917 121.376 25.8828C121.259 25.9609 121.142 26.0456 121.025 26.1367C120.908 26.2148 120.803 26.2995 120.712 26.3906C120.621 26.4818 120.576 26.5794 120.576 26.6836C120.602 26.7617 120.628 26.8333 120.654 26.8984C120.693 27.0417 120.725 27.1589 120.751 27.25C120.751 27.5625 120.673 27.8685 120.517 28.168C120.361 28.4544 120.185 28.7344 119.99 29.0078C119.794 29.2812 119.605 29.5547 119.423 29.8281C119.254 30.0885 119.143 30.3555 119.091 30.6289C119.078 30.6549 119.065 30.7135 119.052 30.8047C119.039 30.8828 119.026 30.974 119.013 31.0781C119.013 31.1693 119.007 31.2604 118.993 31.3516C118.993 31.4427 118.993 31.4948 118.993 31.5078C118.967 31.5599 118.896 31.651 118.779 31.7812C118.674 31.9115 118.609 31.9896 118.583 32.0156C118.414 32.276 118.277 32.5104 118.173 32.7188C118.082 32.9141 117.997 33.1029 117.919 33.2852C117.841 33.4674 117.763 33.6562 117.685 33.8516C117.62 34.0339 117.522 34.2422 117.392 34.4766C117.379 34.4766 117.346 34.5091 117.294 34.5742C117.242 34.6263 117.184 34.6914 117.118 34.7695C117.066 34.8477 117.001 34.9323 116.923 35.0234C116.858 35.1016 116.799 35.1667 116.747 35.2188C116.669 35.2969 116.552 35.4141 116.396 35.5703C116.253 35.7266 116.09 35.8828 115.908 36.0391C115.738 36.2083 115.569 36.3516 115.4 36.4688C115.243 36.5859 115.12 36.6445 115.029 36.6445C114.612 36.6445 114.267 36.5013 113.993 36.2148C113.72 35.9414 113.583 35.5964 113.583 35.1797L113.622 34.9258ZM132.742 31.9375C132.742 31 132.833 30.0104 133.016 28.9688C133.198 27.9141 133.419 26.9375 133.68 26.0391C133.719 26 133.784 25.9284 133.875 25.8242C133.979 25.7201 134.031 25.6549 134.031 25.6289C134.109 25.4727 134.168 25.3034 134.207 25.1211C134.246 24.9388 134.279 24.7565 134.305 24.5742C134.331 24.3789 134.37 24.1901 134.422 24.0078C134.474 23.8125 134.552 23.6302 134.656 23.4609C134.786 23.2396 134.936 23.0247 135.105 22.8164C135.288 22.6081 135.477 22.4062 135.672 22.2109C135.867 22.0156 136.062 21.8333 136.258 21.6641C136.453 21.4818 136.629 21.306 136.785 21.1367C136.941 20.9284 137.078 20.707 137.195 20.4727C137.312 20.2253 137.462 20.0495 137.645 19.9453C137.697 19.9193 137.794 19.8672 137.938 19.7891C138.081 19.7109 138.159 19.6719 138.172 19.6719C138.185 19.6458 138.224 19.6133 138.289 19.5742C138.354 19.5221 138.426 19.4766 138.504 19.4375C138.582 19.3854 138.654 19.3333 138.719 19.2812C138.784 19.2292 138.829 19.1901 138.855 19.1641C139.155 19.112 139.454 19.0599 139.754 19.0078C140.053 18.9557 140.353 18.9297 140.652 18.9297C140.913 18.9297 141.16 18.9557 141.395 19.0078C141.642 19.0599 141.902 19.112 142.176 19.1641C142.189 19.2031 142.234 19.2487 142.312 19.3008C142.404 19.3529 142.469 19.3919 142.508 19.418C142.755 19.5482 143.016 19.724 143.289 19.9453C143.576 20.1536 143.836 20.3945 144.07 20.668C144.318 20.9284 144.52 21.2083 144.676 21.5078C144.845 21.7943 144.93 22.0872 144.93 22.3867C144.93 22.4648 144.91 22.543 144.871 22.6211C144.845 22.6992 144.832 22.8099 144.832 22.9531C144.832 23.1354 144.845 23.3242 144.871 23.5195C144.91 23.7148 144.93 23.8906 144.93 24.0469C144.93 24.2422 144.897 24.431 144.832 24.6133C144.78 24.7956 144.715 24.9779 144.637 25.1602C144.572 25.3294 144.507 25.4987 144.441 25.668C144.376 25.8372 144.337 26.0065 144.324 26.1758C144.311 26.2539 144.298 26.3906 144.285 26.5859C144.272 26.7812 144.259 26.9896 144.246 27.2109C144.233 27.4193 144.22 27.6211 144.207 27.8164C144.194 28.0117 144.188 28.1484 144.188 28.2266C144.174 28.2526 144.142 28.3372 144.09 28.4805C144.038 28.6107 143.979 28.6823 143.914 28.6953C143.732 29.0078 143.582 29.3268 143.465 29.6523C143.348 29.9648 143.237 30.2839 143.133 30.6094C143.042 30.9349 142.944 31.2604 142.84 31.5859C142.749 31.9115 142.638 32.224 142.508 32.5234C142.43 32.7318 142.332 32.9076 142.215 33.0508C142.111 33.194 141.993 33.3307 141.863 33.4609C141.746 33.5781 141.616 33.6953 141.473 33.8125C141.329 33.9167 141.18 34.0469 141.023 34.2031C140.854 34.3594 140.73 34.4701 140.652 34.5352C140.587 34.5872 140.529 34.6263 140.477 34.6523C140.438 34.6654 140.385 34.6914 140.32 34.7305C140.268 34.7565 140.164 34.8281 140.008 34.9453L139.363 35.5898C139.35 35.6029 139.311 35.6159 139.246 35.6289C139.181 35.6419 139.109 35.6549 139.031 35.668C138.966 35.668 138.901 35.6745 138.836 35.6875C138.771 35.6875 138.732 35.6875 138.719 35.6875C138.693 35.6875 138.628 35.707 138.523 35.7461C138.432 35.7852 138.374 35.8112 138.348 35.8242L136.668 35.8633C136.368 35.8633 136.076 35.8503 135.789 35.8242C135.503 35.7982 135.288 35.7526 135.145 35.6875C134.871 35.6094 134.591 35.4206 134.305 35.1211C134.018 34.8216 133.758 34.4831 133.523 34.1055C133.302 33.7148 133.113 33.3242 132.957 32.9336C132.814 32.543 132.742 32.2109 132.742 31.9375ZM135.613 31.3125C135.613 31.5339 135.633 31.8138 135.672 32.1523C135.724 32.4779 135.809 32.7969 135.926 33.1094C136.056 33.4089 136.232 33.6693 136.453 33.8906C136.688 34.099 136.98 34.2031 137.332 34.2031C137.41 34.151 137.521 34.0599 137.664 33.9297C137.82 33.7995 137.977 33.6562 138.133 33.5C138.289 33.3438 138.432 33.2005 138.562 33.0703C138.706 32.9401 138.803 32.849 138.855 32.7969L139.051 32.3086C139.064 32.2826 139.096 32.2435 139.148 32.1914C139.201 32.1263 139.259 32.0677 139.324 32.0156C139.389 31.9505 139.448 31.8984 139.5 31.8594C139.565 31.8073 139.611 31.7812 139.637 31.7812L139.734 30.9023C139.747 30.8763 139.773 30.8177 139.812 30.7266C139.865 30.6354 139.917 30.5378 139.969 30.4336C140.034 30.3164 140.092 30.2057 140.145 30.1016C140.197 29.9974 140.242 29.9258 140.281 29.8867C140.281 29.8737 140.301 29.8346 140.34 29.7695C140.379 29.7044 140.424 29.6393 140.477 29.5742C140.529 29.4961 140.574 29.431 140.613 29.3789C140.665 29.3138 140.698 29.2812 140.711 29.2812C140.945 28.9557 141.121 28.5846 141.238 28.168C141.368 27.7513 141.512 27.3672 141.668 27.0156C141.668 26.9896 141.674 26.9245 141.688 26.8203C141.714 26.7161 141.727 26.6315 141.727 26.5664C141.74 26.5273 141.753 26.4557 141.766 26.3516C141.779 26.2474 141.792 26.1432 141.805 26.0391C141.818 25.9219 141.831 25.8177 141.844 25.7266C141.857 25.6354 141.863 25.5768 141.863 25.5508C141.876 25.5378 141.902 25.5052 141.941 25.4531C141.98 25.401 142.026 25.349 142.078 25.2969C142.13 25.2318 142.176 25.1732 142.215 25.1211C142.254 25.069 142.273 25.0365 142.273 25.0234C142.273 24.9974 142.28 24.9714 142.293 24.9453C142.319 24.9193 142.332 24.8867 142.332 24.8477C142.332 24.8216 142.319 24.7826 142.293 24.7305C142.28 24.6784 142.273 24.5807 142.273 24.4375C142.273 24.3854 142.286 24.3398 142.312 24.3008C142.339 24.2617 142.371 24.2096 142.41 24.1445C142.436 23.9622 142.456 23.793 142.469 23.6367C142.495 23.4674 142.508 23.2982 142.508 23.1289C142.508 22.9596 142.495 22.7904 142.469 22.6211C142.456 22.4388 142.436 22.2565 142.41 22.0742C142.371 21.944 142.247 21.7227 142.039 21.4102C141.909 21.306 141.798 21.2083 141.707 21.1172C141.629 21.013 141.577 20.9154 141.551 20.8242C141.551 20.6419 141.466 20.5508 141.297 20.5508C141.141 20.5508 140.945 20.5964 140.711 20.6875C140.477 20.7786 140.242 20.8958 140.008 21.0391C139.786 21.1693 139.585 21.319 139.402 21.4883C139.22 21.6576 139.103 21.8203 139.051 21.9766C139.051 22.0026 139.044 22.0547 139.031 22.1328C139.031 22.1979 139.025 22.276 139.012 22.3672C138.999 22.4453 138.986 22.5234 138.973 22.6016C138.973 22.6797 138.966 22.7318 138.953 22.7578C138.536 23.1875 138.152 23.819 137.801 24.6523C137.632 25.056 137.508 25.4727 137.43 25.9023C137.365 26.332 137.286 26.7552 137.195 27.1719C137.169 27.276 137.124 27.3737 137.059 27.4648C137.007 27.543 136.941 27.6276 136.863 27.7188C136.798 27.7969 136.74 27.888 136.688 27.9922C136.635 28.0833 136.603 28.1875 136.59 28.3047V29.0664C136.525 29.2487 136.44 29.4375 136.336 29.6328C136.232 29.8151 136.121 29.9974 136.004 30.1797C135.9 30.362 135.809 30.5508 135.73 30.7461C135.652 30.9284 135.613 31.1172 135.613 31.3125ZM146.491 35.2188C146.491 34.8932 146.504 34.6068 146.53 34.3594C146.556 34.112 146.602 33.8776 146.667 33.6562C146.745 33.4349 146.836 33.2201 146.94 33.0117C147.057 32.7904 147.201 32.5495 147.37 32.2891C147.396 32.25 147.415 32.1719 147.428 32.0547C147.454 31.9375 147.467 31.8659 147.467 31.8398C147.611 31.5794 147.786 31.3451 147.995 31.1367C148.216 30.9284 148.379 30.681 148.483 30.3945C148.496 30.3555 148.529 30.2578 148.581 30.1016C148.633 29.9453 148.685 29.7891 148.737 29.6328C148.802 29.4635 148.854 29.3073 148.893 29.1641C148.945 29.0208 148.978 28.9362 148.991 28.9102C149.056 28.7148 149.128 28.5456 149.206 28.4023C149.297 28.2591 149.395 28.1289 149.499 28.0117C149.603 27.8945 149.72 27.7839 149.85 27.6797C149.98 27.5625 150.124 27.4323 150.28 27.2891C150.306 27.0807 150.345 26.8073 150.397 26.4688C150.462 26.1302 150.566 25.8503 150.71 25.6289C150.814 25.4206 150.944 25.2383 151.1 25.082C151.27 24.9128 151.354 24.7109 151.354 24.4766C151.354 24.138 151.257 23.8776 151.061 23.6953C150.879 23.5 150.618 23.4023 150.28 23.4023C150.02 23.4023 149.798 23.4609 149.616 23.5781C149.434 23.6953 149.251 23.8255 149.069 23.9688C148.887 24.099 148.685 24.2227 148.464 24.3398C148.242 24.457 147.969 24.5156 147.643 24.5156C147.695 24.1901 147.773 23.9232 147.878 23.7148C147.982 23.5065 148.112 23.3307 148.268 23.1875C148.424 23.0443 148.6 22.9141 148.796 22.7969C148.991 22.6667 149.199 22.5169 149.421 22.3477C149.46 22.3086 149.538 22.2305 149.655 22.1133C149.772 21.9831 149.902 21.8464 150.046 21.7031C150.189 21.5469 150.319 21.4102 150.436 21.293C150.566 21.1628 150.658 21.0846 150.71 21.0586C150.866 20.9154 151.003 20.8242 151.12 20.7852C151.25 20.7331 151.374 20.7005 151.491 20.6875C151.621 20.6745 151.758 20.6615 151.901 20.6484C152.044 20.6354 152.214 20.5964 152.409 20.5312C152.617 20.4922 152.786 20.4141 152.917 20.2969C153.06 20.1797 153.203 20.0625 153.346 19.9453C153.49 19.8151 153.659 19.6979 153.854 19.5938C154.063 19.4896 154.342 19.4375 154.694 19.4375C154.746 19.4375 154.831 19.4505 154.948 19.4766C155.078 19.4896 155.202 19.5221 155.319 19.5742C155.449 19.6133 155.56 19.6654 155.651 19.7305C155.742 19.7826 155.788 19.8477 155.788 19.9258V21.332C155.788 21.3971 155.762 21.4818 155.71 21.5859C155.658 21.6901 155.599 21.7943 155.534 21.8984C155.469 22.0026 155.404 22.1068 155.339 22.2109C155.286 22.3151 155.254 22.4062 155.241 22.4844C155.215 22.6016 155.169 22.7513 155.104 22.9336C155.052 23.1029 155.007 23.2005 154.967 23.2266C154.967 23.2526 154.941 23.2982 154.889 23.3633C154.85 23.4284 154.798 23.5 154.733 23.5781C154.681 23.6432 154.629 23.7083 154.577 23.7734C154.538 23.8385 154.512 23.8841 154.499 23.9102V24.2812C154.473 24.4115 154.44 24.5156 154.401 24.5938C154.375 24.6589 154.329 24.724 154.264 24.7891C154.212 24.8411 154.147 24.8997 154.069 24.9648C154.004 25.0299 153.932 25.1276 153.854 25.2578C153.854 25.2839 153.828 25.3424 153.776 25.4336C153.737 25.5247 153.704 25.5898 153.678 25.6289C153.613 25.9284 153.548 26.1758 153.483 26.3711C153.431 26.5664 153.366 26.7487 153.288 26.918C153.21 27.0742 153.125 27.2435 153.034 27.4258C152.943 27.5951 152.845 27.7969 152.741 28.0312C152.624 28.2917 152.52 28.5651 152.428 28.8516C152.35 29.138 152.259 29.4245 152.155 29.7109C152.064 29.9844 151.947 30.2448 151.803 30.4922C151.673 30.7396 151.497 30.9414 151.276 31.0977C151.276 31.2539 151.276 31.4167 151.276 31.5859C151.289 31.7552 151.322 31.9115 151.374 32.0547C151.439 32.1849 151.523 32.2956 151.628 32.3867C151.745 32.4779 151.914 32.5234 152.135 32.5234C152.396 32.5234 152.663 32.4388 152.936 32.2695C153.21 32.0872 153.496 31.8919 153.796 31.6836C154.095 31.4622 154.421 31.2669 154.772 31.0977C155.124 30.9154 155.508 30.8242 155.924 30.8242C155.924 30.9414 155.898 31.0911 155.846 31.2734C155.794 31.4427 155.729 31.5794 155.651 31.6836L152.565 34.8086C152.539 34.8216 152.513 34.8346 152.487 34.8477C152.474 34.8607 152.454 34.8737 152.428 34.8867C152.389 34.8997 152.357 34.9128 152.331 34.9258C151.68 35.3424 151.035 35.6875 150.397 35.9609C149.772 36.2344 149.089 36.3711 148.346 36.3711C148.229 36.3711 148.066 36.3451 147.858 36.293C147.65 36.2409 147.441 36.1628 147.233 36.0586C147.038 35.9674 146.862 35.8503 146.706 35.707C146.563 35.5638 146.491 35.401 146.491 35.2188ZM154.831 10.8242C154.831 10.5378 154.889 10.2773 155.007 10.043C155.124 9.79557 155.28 9.58724 155.475 9.41797C155.684 9.23568 155.918 9.09896 156.178 9.00781C156.452 8.91667 156.738 8.87109 157.038 8.87109C157.22 8.87109 157.441 8.8776 157.702 8.89062C157.975 8.89062 158.223 8.91667 158.444 8.96875C158.574 9.02083 158.698 9.14453 158.815 9.33984C158.932 9.53516 159.036 9.75651 159.128 10.0039C159.219 10.2383 159.29 10.4727 159.342 10.707C159.395 10.9414 159.421 11.1172 159.421 11.2344C159.421 11.4036 159.382 11.5339 159.303 11.625C159.225 11.7161 159.141 11.8659 159.049 12.0742C158.919 12.3607 158.809 12.5951 158.717 12.7773C158.639 12.9596 158.535 13.1029 158.405 13.207C158.275 13.2982 158.112 13.3633 157.917 13.4023C157.721 13.4414 157.448 13.4609 157.096 13.4609C156.732 13.4609 156.406 13.3893 156.12 13.2461C155.846 13.0898 155.612 12.8945 155.417 12.6602C155.221 12.4128 155.072 12.1328 154.967 11.8203C154.876 11.4948 154.831 11.1628 154.831 10.8242ZM158.872 34.8867C158.898 34.0013 159.055 33.2005 159.341 32.4844C159.628 31.7552 159.979 31.026 160.396 30.2969C160.5 30.1016 160.585 29.8867 160.65 29.6523C160.728 29.4049 160.793 29.1576 160.845 28.9102C160.897 28.6628 160.949 28.4219 161.001 28.1875C161.053 27.9401 161.118 27.7188 161.197 27.5234L161.607 26C161.646 25.8958 161.704 25.7331 161.783 25.5117C161.861 25.2904 161.932 25.043 161.997 24.7695C162.062 24.4961 162.121 24.2161 162.173 23.9297C162.238 23.6432 162.271 23.3893 162.271 23.168C162.271 23.0768 162.251 22.9661 162.212 22.8359C162.186 22.7057 162.141 22.582 162.076 22.4648C162.023 22.3346 161.952 22.2305 161.861 22.1523C161.783 22.0612 161.685 22.0156 161.568 22.0156C161.294 22.0156 161.021 22.1328 160.747 22.3672C160.487 22.6016 160.22 22.8685 159.947 23.168C159.686 23.4674 159.419 23.7539 159.146 24.0273C158.885 24.3008 158.612 24.4766 158.326 24.5547C158.26 24.5286 158.228 24.4831 158.228 24.418C158.228 24.0664 158.286 23.7474 158.404 23.4609C158.534 23.1615 158.703 22.901 158.911 22.6797C159.12 22.4453 159.348 22.2435 159.595 22.0742C159.842 21.9049 160.096 21.7617 160.357 21.6445C160.422 21.5924 160.461 21.5208 160.474 21.4297C160.487 21.3385 160.493 21.1823 160.493 20.9609C160.493 20.7917 160.539 20.681 160.63 20.6289C160.643 20.6159 160.721 20.5833 160.865 20.5312C161.021 20.4661 161.132 20.4206 161.197 20.3945C161.21 20.3815 161.236 20.3555 161.275 20.3164C161.327 20.2643 161.372 20.2122 161.411 20.1602C161.464 20.0951 161.503 20.0365 161.529 19.9844C161.568 19.9323 161.594 19.8997 161.607 19.8867C161.945 19.6654 162.277 19.4831 162.603 19.3398C162.941 19.1836 163.306 19.0599 163.697 18.9688C163.736 18.9948 163.801 19.0339 163.892 19.0859C163.996 19.125 164.1 19.1771 164.204 19.2422C164.309 19.2943 164.406 19.3464 164.497 19.3984C164.602 19.4375 164.673 19.4635 164.712 19.4766C164.803 19.5417 164.888 19.6589 164.966 19.8281C165.057 19.9974 165.142 20.1797 165.22 20.375C165.298 20.5703 165.37 20.7526 165.435 20.9219C165.5 21.0911 165.552 21.2148 165.591 21.293C165.695 21.3581 165.812 21.4102 165.943 21.4492C166.086 21.4883 166.229 21.5078 166.372 21.5078C166.464 21.5078 166.568 21.4753 166.685 21.4102C166.802 21.3451 166.906 21.2669 166.997 21.1758C167.102 21.0716 167.186 20.9609 167.251 20.8438C167.329 20.7266 167.375 20.6224 167.388 20.5312L168.501 19.3398C168.553 19.3138 168.618 19.3008 168.697 19.3008C168.775 19.2878 168.866 19.2812 168.97 19.2812H169.439C169.478 19.2812 169.523 19.2682 169.576 19.2422C169.628 19.2161 169.66 19.2031 169.673 19.2031C169.686 19.2031 169.712 19.1836 169.751 19.1445C169.803 19.1055 169.855 19.0664 169.908 19.0273C169.973 18.9753 170.031 18.9297 170.083 18.8906C170.135 18.8516 170.168 18.832 170.181 18.832C170.181 18.806 170.227 18.793 170.318 18.793C170.409 18.793 170.487 18.793 170.552 18.793C170.904 18.793 171.184 18.8451 171.392 18.9492C171.6 19.0534 171.763 19.1966 171.88 19.3789C171.997 19.5612 172.076 19.7826 172.115 20.043C172.154 20.2904 172.173 20.5638 172.173 20.8633C172.173 21.1497 172.16 21.4036 172.134 21.625C172.121 21.8333 172.069 22.0091 171.978 22.1523C171.9 22.2826 171.77 22.3802 171.587 22.4453C171.418 22.5104 171.177 22.543 170.865 22.543C170.513 22.543 170.161 22.5039 169.81 22.4258C169.458 22.3346 169.055 22.2891 168.599 22.2891C168.56 22.2891 168.482 22.2956 168.365 22.3086C168.26 22.3216 168.137 22.3411 167.993 22.3672C167.863 22.3802 167.74 22.3997 167.622 22.4258C167.505 22.4388 167.427 22.4453 167.388 22.4453C167.219 22.5495 167.082 22.6667 166.978 22.7969C166.874 22.9271 166.783 23.0703 166.704 23.2266C166.626 23.3828 166.555 23.5456 166.49 23.7148C166.424 23.8711 166.353 24.0273 166.275 24.1836L165.689 24.8477V25.4531C165.676 25.6615 165.624 25.8438 165.533 26C165.454 26.1562 165.357 26.306 165.24 26.4492C165.135 26.5794 165.031 26.7096 164.927 26.8398C164.836 26.957 164.764 27.0938 164.712 27.25V28.2656C164.712 28.2917 164.673 28.3633 164.595 28.4805C164.517 28.5846 164.465 28.6497 164.439 28.6758C164.309 28.8711 164.204 29.0859 164.126 29.3203C164.048 29.5547 163.977 29.7891 163.911 30.0234C163.859 30.2578 163.807 30.4987 163.755 30.7461C163.703 30.9805 163.638 31.2083 163.56 31.4297L162.779 32.9922C162.622 33.4609 162.512 33.9036 162.447 34.3203C162.395 34.724 162.29 35.0755 162.134 35.375C161.991 35.6615 161.763 35.8893 161.451 36.0586C161.138 36.2279 160.65 36.3125 159.986 36.3125C159.842 36.3125 159.706 36.2539 159.576 36.1367C159.458 36.0326 159.348 35.9023 159.243 35.7461C159.152 35.5898 159.074 35.4336 159.009 35.2773C158.944 35.1081 158.898 34.9779 158.872 34.8867ZM170.238 32.0742C170.251 31.9831 170.29 31.8333 170.355 31.625C170.434 31.4167 170.518 31.1953 170.609 30.9609C170.714 30.7266 170.811 30.5052 170.902 30.2969C170.993 30.0755 171.065 29.9062 171.117 29.7891C171.299 29.3464 171.501 28.8971 171.723 28.4414C171.944 27.9727 172.113 27.5299 172.23 27.1133C172.27 27.0352 172.296 26.944 172.309 26.8398C172.322 26.7357 172.335 26.6315 172.348 26.5273C172.361 26.4232 172.38 26.319 172.406 26.2148C172.432 26.1107 172.478 26.026 172.543 25.9609L173.559 24.7891C173.637 24.6979 173.695 24.5872 173.734 24.457C173.786 24.3268 173.826 24.1966 173.852 24.0664C173.891 23.9232 173.923 23.7865 173.949 23.6562C173.988 23.513 174.034 23.3958 174.086 23.3047C174.086 23.2656 174.112 23.194 174.164 23.0898C174.229 22.9857 174.275 22.9206 174.301 22.8945C174.366 22.8164 174.451 22.7122 174.555 22.582C174.672 22.4388 174.789 22.3021 174.906 22.1719C175.023 22.0417 175.121 21.9245 175.199 21.8203C175.29 21.7161 175.336 21.6576 175.336 21.6445C175.388 21.5664 175.505 21.4362 175.688 21.2539C175.87 21.0716 176.065 20.8828 176.273 20.6875C176.482 20.4792 176.677 20.2839 176.859 20.1016C177.055 19.9062 177.191 19.763 177.27 19.6719C177.504 19.5026 177.777 19.3984 178.09 19.3594C178.415 19.3203 178.728 19.3008 179.027 19.3008H179.633C179.841 19.3008 180.01 19.3203 180.141 19.3594C180.284 19.3854 180.414 19.431 180.531 19.4961C180.648 19.5612 180.779 19.6458 180.922 19.75C181.065 19.8542 181.254 19.9779 181.488 20.1211C182.191 20.5378 182.68 21.0326 182.953 21.6055C183.24 22.1784 183.383 22.875 183.383 23.6953V24.5547C183.357 24.5807 183.305 24.6393 183.227 24.7305C183.161 24.8086 183.083 24.8997 182.992 25.0039C182.914 25.0951 182.836 25.1862 182.758 25.2773C182.693 25.3555 182.654 25.4141 182.641 25.4531C182.484 25.6224 182.25 25.8047 181.938 26C181.625 26.1953 181.286 26.3906 180.922 26.5859C180.57 26.7682 180.219 26.9375 179.867 27.0938C179.516 27.237 179.223 27.3477 178.988 27.4258C178.415 27.7122 177.921 27.8815 177.504 27.9336C177.087 27.9727 176.658 27.9922 176.215 27.9922C175.98 27.9922 175.746 27.9987 175.512 28.0117C175.277 28.0117 175.004 28.0247 174.691 28.0508C174.535 28.194 174.418 28.3372 174.34 28.4805C174.275 28.6237 174.223 28.7669 174.184 28.9102C174.158 29.0534 174.138 29.2096 174.125 29.3789C174.125 29.5352 174.112 29.7044 174.086 29.8867C174.086 29.8997 174.073 29.9453 174.047 30.0234C174.021 30.0885 173.988 30.1667 173.949 30.2578C173.923 30.3359 173.891 30.4141 173.852 30.4922C173.826 30.5703 173.806 30.6159 173.793 30.6289V30.8242C173.793 31.0586 173.806 31.3255 173.832 31.625C173.858 31.9245 173.917 32.2109 174.008 32.4844C174.099 32.7448 174.236 32.9727 174.418 33.168C174.6 33.3503 174.854 33.4414 175.18 33.4414C175.258 33.4414 175.368 33.4414 175.512 33.4414C175.668 33.4414 175.831 33.4349 176 33.4219C176.169 33.4089 176.332 33.3893 176.488 33.3633C176.658 33.3242 176.781 33.2786 176.859 33.2266C176.872 33.2135 176.892 33.181 176.918 33.1289C176.944 33.0638 176.97 32.9987 176.996 32.9336C177.022 32.8685 177.048 32.8099 177.074 32.7578C177.113 32.6927 177.146 32.6602 177.172 32.6602C177.406 32.4779 177.699 32.3216 178.051 32.1914C178.415 32.0482 178.728 31.8789 178.988 31.6836C179.145 31.5924 179.294 31.5339 179.438 31.5078C179.594 31.4818 179.75 31.4688 179.906 31.4688H180.473C180.473 31.7292 180.427 31.9701 180.336 32.1914C180.245 32.3997 180.128 32.5951 179.984 32.7773C179.841 32.9596 179.678 33.1289 179.496 33.2852C179.314 33.4284 179.132 33.5651 178.949 33.6953L178.793 33.8711L177.875 34.1836C177.862 34.1836 177.836 34.2096 177.797 34.2617C177.771 34.3008 177.738 34.3464 177.699 34.3984C177.66 34.4375 177.621 34.4766 177.582 34.5156C177.543 34.5547 177.504 34.5742 177.465 34.5742C177.452 34.5872 177.413 34.6068 177.348 34.6328C177.283 34.6458 177.217 34.6654 177.152 34.6914C177.087 34.7044 177.022 34.7174 176.957 34.7305C176.905 34.7435 176.872 34.75 176.859 34.75C176.664 34.7891 176.475 34.8737 176.293 35.0039C176.124 35.1341 175.954 35.2643 175.785 35.3945C175.616 35.5247 175.44 35.6419 175.258 35.7461C175.089 35.8503 174.9 35.9023 174.691 35.9023C174.613 35.9023 174.522 35.8828 174.418 35.8438C174.327 35.7917 174.249 35.7656 174.184 35.7656C173.988 35.7656 173.806 35.8047 173.637 35.8828C173.48 35.9609 173.292 36 173.07 36C172.654 36 172.27 35.8958 171.918 35.6875C171.566 35.4661 171.26 35.1862 171 34.8477C170.753 34.4961 170.557 34.112 170.414 33.6953C170.271 33.2786 170.199 32.875 170.199 32.4844L170.238 32.0742ZM175.551 26.5078C175.551 26.5599 175.577 26.6055 175.629 26.6445C175.681 26.6836 175.74 26.7227 175.805 26.7617C175.87 26.7878 175.935 26.8073 176 26.8203C176.065 26.8333 176.117 26.8398 176.156 26.8398C176.534 26.8398 176.931 26.7227 177.348 26.4883C177.777 26.2539 178.188 25.9674 178.578 25.6289C178.969 25.2904 179.327 24.9388 179.652 24.5742C179.978 24.2096 180.232 23.8971 180.414 23.6367C180.466 23.4284 180.492 23.2461 180.492 23.0898C180.505 22.9336 180.512 22.7643 180.512 22.582V22.1133C180.421 21.957 180.31 21.8529 180.18 21.8008C180.062 21.7357 179.913 21.7031 179.73 21.7031C179.535 21.7031 179.294 21.7943 179.008 21.9766C178.734 22.1458 178.441 22.3737 178.129 22.6602C177.816 22.9466 177.504 23.2721 177.191 23.6367C176.892 23.9883 176.618 24.3398 176.371 24.6914C176.124 25.043 175.922 25.3815 175.766 25.707C175.622 26.0326 175.551 26.2995 175.551 26.5078Z" fill="#F3F3CD"/>
<path d="M195.741 0.823402L196.915 13.2273L206.327 16.5133L196.546 18.4413L193.638 30.5564L192.464 18.1525L183.052 14.8665L192.833 12.9385L195.741 0.823402Z" fill="#816E94"/>
<path d="M52.5 41C109 50.3333 217.6 59.7 200 22.5" stroke="#816E94" stroke-width="2" stroke-linecap="round"/>
</svg>
