<svg width="289" height="50" viewBox="0 0 289 50" fill="none" xmlns="http://www.w3.org/2000/svg">
<path d="M23.8409 12.739L24.1614 7.99087L24.437 12.7388C24.8008 19.0063 29.76 24.007 36.0242 24.423L40.5447 24.7231L36.0214 25.027C29.7532 25.448 24.7467 30.4528 24.3237 36.7207L24.0032 41.4689L23.7276 36.721C23.3638 30.4534 18.4045 25.4527 12.1404 25.0368L7.61986 24.7366L12.1432 24.4328C18.4113 24.0117 23.4178 19.0069 23.8409 12.739Z" fill="#F3F3CD" stroke="#F3F3CD"/>
<path d="M83.8409 12.739L84.1614 7.99087L84.437 12.7388C84.8008 19.0063 89.76 24.007 96.0242 24.423L100.545 24.7231L96.0214 25.027C89.7532 25.448 84.7467 30.4528 84.3237 36.7207L84.0032 41.4689L83.7276 36.721C83.3638 30.4534 78.4045 25.4527 72.1404 25.0368L67.6199 24.7366L72.1432 24.4328C78.4113 24.0117 83.4178 19.0069 83.8409 12.739Z" fill="#F3F3CD" stroke="#F3F3CD"/>
<path d="M143.841 12.739L144.161 7.99087L144.437 12.7388C144.801 19.0063 149.76 24.007 156.024 24.423L160.545 24.7231L156.021 25.027C149.753 25.448 144.747 30.4528 144.324 36.7207L144.003 41.4689L143.728 36.721C143.364 30.4534 138.405 25.4527 132.14 25.0368L127.62 24.7366L132.143 24.4328C138.411 24.0117 143.418 19.0069 143.841 12.739Z" stroke="#F3F3CD"/>
<path d="M203.841 12.739L204.161 7.99087L204.437 12.7388C204.801 19.0063 209.76 24.007 216.024 24.423L220.545 24.7231L216.021 25.027C209.753 25.448 204.747 30.4528 204.324 36.7207L204.003 41.4689L203.728 36.721C203.364 30.4534 198.405 25.4527 192.14 25.0368L187.62 24.7366L192.143 24.4328C198.411 24.0117 203.418 19.0069 203.841 12.739Z" stroke="#F3F3CD"/>
<path d="M263.841 12.739L264.161 7.99087L264.437 12.7388C264.801 19.0063 269.76 24.007 276.024 24.423L280.545 24.7231L276.021 25.027C269.753 25.448 264.747 30.4528 264.324 36.7207L264.003 41.4689L263.728 36.721C263.364 30.4534 258.405 25.4527 252.14 25.0368L247.62 24.7366L252.143 24.4328C258.411 24.0117 263.418 19.0069 263.841 12.739Z" stroke="#F3F3CD"/>
</svg>
