<svg width="128" height="26" viewBox="0 0 128 26" fill="none" xmlns="http://www.w3.org/2000/svg">
<path d="M8.97656 19H8.34375C8.33594 19 8.27344 19.0078 8.15625 19.0234C8.04688 19.0469 7.96484 19.0664 7.91016 19.082C7.90234 19.082 7.86719 19.0938 7.80469 19.1172C7.74219 19.1406 7.70703 19.1523 7.69922 19.1523C7.67578 19.1445 7.65234 19.1328 7.62891 19.1172C7.61328 19.1094 7.59375 19.1016 7.57031 19.0938C7.55469 19.0859 7.54297 19.082 7.53516 19.082H7.30078C7.19922 19.082 7.10547 19.082 7.01953 19.082C6.94141 19.0898 6.85156 19.1133 6.75 19.1523H5.13281C5.10156 19.1523 5.06641 19.1328 5.02734 19.0938C4.99609 19.0625 4.96484 19.0234 4.93359 18.9766C4.91016 18.9297 4.88672 18.8828 4.86328 18.8359C4.84766 18.7812 4.83984 18.7383 4.83984 18.707C4.83984 18.5664 4.88672 18.4453 4.98047 18.3438C5.08203 18.2422 5.20703 18.1914 5.35547 18.1914H6.97266C7.10547 18.1914 7.25 18.1602 7.40625 18.0977C7.5625 18.0352 7.66016 17.9297 7.69922 17.7812C7.69922 17.7344 7.70312 17.6641 7.71094 17.5703C7.71875 17.4688 7.72656 17.3633 7.73438 17.2539C7.74219 17.1445 7.74609 17.043 7.74609 16.9492C7.75391 16.8477 7.75781 16.7773 7.75781 16.7383V16.5156V16.3047C7.75781 16.2578 7.75391 16.1484 7.74609 15.9766C7.74609 15.8047 7.74219 15.6211 7.73438 15.4258C7.72656 15.2305 7.71875 15.0469 7.71094 14.875C7.70312 14.7031 7.69922 14.5938 7.69922 14.5469V11.1836C7.69922 11.168 7.69531 11.1445 7.6875 11.1133C7.67969 11.0742 7.67188 11.0352 7.66406 10.9961C7.65625 10.9492 7.64844 10.9102 7.64062 10.8789C7.63281 10.8398 7.625 10.8164 7.61719 10.8086V9.90625V9.55469C7.58594 8.52344 7.54688 7.50391 7.5 6.49609C7.46094 5.48047 7.44922 4.44922 7.46484 3.40234L7.34766 3.13281C7.33984 3.125 7.31641 3.11719 7.27734 3.10938C7.23828 3.10156 7.19141 3.09375 7.13672 3.08594C7.08203 3.07812 7.02344 3.07031 6.96094 3.0625C6.90625 3.05469 6.86328 3.05078 6.83203 3.05078C6.78516 3.05078 6.70703 3.04688 6.59766 3.03906C6.48828 3.02344 6.36719 3.01172 6.23438 3.00391C6.10938 2.99609 5.99219 2.98828 5.88281 2.98047C5.77344 2.97266 5.69531 2.96875 5.64844 2.96875C5.63281 2.99219 5.59766 3.01172 5.54297 3.02734C5.48828 3.04297 5.45312 3.05078 5.4375 3.05078C5.42188 3.05078 5.38672 3.04688 5.33203 3.03906C5.28516 3.03125 5.23047 3.02344 5.16797 3.01562C5.10547 3 5.04688 2.98828 4.99219 2.98047C4.94531 2.97266 4.91406 2.96875 4.89844 2.96875C4.89062 2.96875 4.84375 2.98047 4.75781 3.00391C4.67188 3.02734 4.60938 3.04297 4.57031 3.05078C4.28125 3.11328 3.99219 3.15234 3.70312 3.16797C3.42188 3.17578 3.14453 3.23047 2.87109 3.33203C2.85547 3.33984 2.82812 3.36328 2.78906 3.40234C2.75 3.44141 2.72656 3.46094 2.71875 3.46094C2.70312 3.48438 2.65234 3.50391 2.56641 3.51953C2.48047 3.53516 2.43359 3.54297 2.42578 3.54297C2.26953 3.60547 2.15234 3.69922 2.07422 3.82422C1.99609 3.94922 1.91406 4.07812 1.82812 4.21094C1.82812 4.21875 1.81641 4.23828 1.79297 4.26953C1.77734 4.30078 1.75391 4.33594 1.72266 4.375C1.69922 4.40625 1.67578 4.4375 1.65234 4.46875C1.63672 4.49219 1.62891 4.50781 1.62891 4.51562C1.56641 4.60938 1.49609 4.73047 1.41797 4.87891C1.34766 5.02734 1.26562 5.17188 1.17188 5.3125C1.07812 5.45312 0.976562 5.57422 0.867188 5.67578C0.765625 5.77734 0.652344 5.82812 0.527344 5.82812C0.457031 5.82812 0.402344 5.80859 0.363281 5.76953C0.324219 5.72266 0.292969 5.66797 0.269531 5.60547C0.253906 5.54297 0.242188 5.48047 0.234375 5.41797C0.234375 5.34766 0.234375 5.28906 0.234375 5.24219C0.234375 5.02344 0.277344 4.82812 0.363281 4.65625C0.457031 4.47656 0.539062 4.27734 0.609375 4.05859C0.617188 4.03516 0.628906 3.97266 0.644531 3.87109C0.667969 3.76953 0.691406 3.66406 0.714844 3.55469C0.738281 3.44531 0.761719 3.33984 0.785156 3.23828C0.808594 3.13672 0.820312 3.07422 0.820312 3.05078C0.820312 3.04297 0.832031 3.00781 0.855469 2.94531C0.886719 2.88281 0.902344 2.84766 0.902344 2.83984C0.902344 2.81641 0.90625 2.75781 0.914062 2.66406C0.929688 2.5625 0.945312 2.46094 0.960938 2.35938C0.976562 2.25 0.992188 2.14844 1.00781 2.05469C1.02344 1.95312 1.03516 1.89062 1.04297 1.86719C1.05859 1.78906 1.07422 1.69141 1.08984 1.57422C1.11328 1.45703 1.14453 1.34375 1.18359 1.23438C1.22266 1.125 1.27734 1.03516 1.34766 0.964844C1.42578 0.886719 1.52734 0.847656 1.65234 0.847656H1.6875L1.74609 0.90625C1.76172 0.929688 1.78906 0.972656 1.82812 1.03516C1.86719 1.08984 1.90625 1.15234 1.94531 1.22266C1.99219 1.28516 2.03125 1.34375 2.0625 1.39844C2.10156 1.45313 2.12109 1.48437 2.12109 1.49219C2.15234 1.53125 2.21094 1.59375 2.29688 1.67969C2.39062 1.76562 2.45703 1.82813 2.49609 1.86719C2.56641 1.92969 2.64844 1.97656 2.74219 2.00781C2.84375 2.03906 2.94531 2.05859 3.04688 2.06641C3.15625 2.07422 3.26562 2.07812 3.375 2.07812C3.48438 2.07812 3.58594 2.08203 3.67969 2.08984C3.71094 2.08984 3.76953 2.09375 3.85547 2.10156C3.94922 2.10938 4.04688 2.11719 4.14844 2.125C4.25 2.13281 4.34375 2.14062 4.42969 2.14844C4.51562 2.15625 4.57422 2.16406 4.60547 2.17188H11.7891C12.0156 2.20313 12.2656 2.22656 12.5391 2.24219C12.8203 2.25781 13.0898 2.26562 13.3477 2.26562C13.4648 2.26562 13.5781 2.26172 13.6875 2.25391C13.7969 2.24609 13.8984 2.24219 13.9922 2.24219C14.0078 2.24219 14.0312 2.25781 14.0625 2.28906C14.0938 2.3125 14.1172 2.32422 14.1328 2.32422H14.1914H14.2148C14.2305 2.32422 14.2773 2.3125 14.3555 2.28906C14.4414 2.25781 14.4922 2.24219 14.5078 2.24219H14.6484C14.7344 2.24219 14.8164 2.24609 14.8945 2.25391C14.9727 2.26172 15.0547 2.26562 15.1406 2.26562C15.2188 2.26562 15.2969 2.26172 15.375 2.25391C15.4531 2.23828 15.5312 2.21094 15.6094 2.17188C15.6406 2.15625 15.6797 2.13281 15.7266 2.10156C15.7812 2.07031 15.8164 2.04687 15.832 2.03125C15.8555 1.98438 15.8828 1.91016 15.9141 1.80859C15.9453 1.69922 15.9844 1.59375 16.0312 1.49219C16.0859 1.39062 16.1484 1.30469 16.2188 1.23438C16.2891 1.15625 16.375 1.125 16.4766 1.14062C16.4844 1.14844 16.5039 1.16016 16.5352 1.17578C16.5664 1.18359 16.5977 1.19531 16.6289 1.21094C16.668 1.22656 16.6992 1.24219 16.7227 1.25781C16.7539 1.26563 16.7695 1.27344 16.7695 1.28125C16.793 1.71875 16.8438 2.15234 16.9219 2.58203C17 3.00391 17.0742 3.42188 17.1445 3.83594C17.1602 3.97656 17.1875 4.10547 17.2266 4.22266C17.2734 4.33203 17.3203 4.44531 17.3672 4.5625C17.4141 4.67188 17.4531 4.78906 17.4844 4.91406C17.5234 5.03125 17.543 5.16406 17.543 5.3125C17.543 5.32812 17.5391 5.35938 17.5312 5.40625C17.5312 5.44531 17.5273 5.48828 17.5195 5.53516C17.5117 5.58203 17.5039 5.62891 17.4961 5.67578C17.4961 5.71484 17.4961 5.74609 17.4961 5.76953C17.4805 5.91797 17.3828 5.99219 17.2031 5.99219C17.1641 5.99219 17.125 5.97656 17.0859 5.94531C17.0547 5.91406 17.0195 5.87891 16.9805 5.83984C16.9492 5.79297 16.9219 5.75 16.8984 5.71094C16.875 5.66406 16.8594 5.63281 16.8516 5.61719C16.8438 5.60938 16.832 5.58594 16.8164 5.54688C16.8008 5.50781 16.7852 5.46875 16.7695 5.42969C16.7539 5.38281 16.7383 5.34375 16.7227 5.3125C16.707 5.27344 16.6992 5.25 16.6992 5.24219C16.6992 5.22656 16.6875 5.19922 16.6641 5.16016C16.6484 5.12109 16.6328 5.10156 16.6172 5.10156C16.5312 4.96094 16.4414 4.81641 16.3477 4.66797C16.2617 4.51953 16.168 4.37109 16.0664 4.22266C15.9727 4.07422 15.8711 3.9375 15.7617 3.8125C15.6523 3.67969 15.5312 3.5625 15.3984 3.46094C15.2266 3.35156 15.043 3.26953 14.8477 3.21484C14.6523 3.16016 14.4531 3.12109 14.25 3.09766C14.0469 3.07422 13.8438 3.0625 13.6406 3.0625C13.4375 3.0625 13.2422 3.05859 13.0547 3.05078C13.0312 3.05078 12.9883 3.04688 12.9258 3.03906C12.8711 3.02344 12.8086 3.01172 12.7383 3.00391C12.6758 2.99609 12.6172 2.98828 12.5625 2.98047C12.5078 2.97266 12.4727 2.96875 12.457 2.96875C12.4492 2.96875 12.3867 2.96875 12.2695 2.96875C12.1523 2.96094 12.0586 2.95703 11.9883 2.95703H11.4727C11.3477 2.95703 11.2148 2.96094 11.0742 2.96875C10.9414 2.97656 10.8125 2.99219 10.6875 3.01562C10.5703 3.03906 10.4648 3.07812 10.3711 3.13281C10.2852 3.17969 10.2266 3.24609 10.1953 3.33203V3.44922V3.76562C10.1797 3.79688 10.1523 3.85156 10.1133 3.92969C10.0742 4 10.0547 4.04297 10.0547 4.05859L10.0312 4.10547C10.0234 4.11328 10.0195 4.125 10.0195 4.14062V4.15234C10.0195 4.16797 10.0195 4.18359 10.0195 4.19922C10.0195 4.21484 10.0234 4.23047 10.0312 4.24609C10.0391 4.26953 10.0469 4.28516 10.0547 4.29297C10.0547 4.32422 10.0547 4.37891 10.0547 4.45703C10.0625 4.52734 10.0703 4.60938 10.0781 4.70312C10.0859 4.78906 10.0938 4.87109 10.1016 4.94922C10.1094 5.01953 10.1133 5.07031 10.1133 5.10156V10C10.1523 10.1094 10.1758 10.2148 10.1836 10.3164C10.1914 10.418 10.1953 10.5156 10.1953 10.6094V10.8438C10.1953 11.0156 10.1797 11.1719 10.1484 11.3125C10.1172 11.4453 10.1016 11.5859 10.1016 11.7344C10.1016 11.7656 10.1016 11.8008 10.1016 11.8398C10.1094 11.8789 10.1133 11.9023 10.1133 11.9102C10.1133 11.9258 10.1172 11.9609 10.125 12.0156C10.1328 12.0703 10.1406 12.1328 10.1484 12.2031C10.1562 12.2656 10.1641 12.3242 10.1719 12.3789C10.1797 12.4336 10.1875 12.4688 10.1953 12.4844V14.8516C10.1953 14.8672 10.207 14.9219 10.2305 15.0156C10.2617 15.1094 10.2773 15.1641 10.2773 15.1797C10.2773 15.1953 10.2617 15.2344 10.2305 15.2969C10.207 15.3594 10.1953 15.3984 10.1953 15.4141V15.6133V16.1406C10.1797 16.1719 10.1602 16.2344 10.1367 16.3281C10.1211 16.4219 10.1133 16.4844 10.1133 16.5156V16.5391V16.5977C10.1133 16.668 10.1172 16.7656 10.125 16.8906C10.1328 17.0078 10.1406 17.125 10.1484 17.2422C10.1562 17.3516 10.1641 17.4531 10.1719 17.5469C10.1797 17.6328 10.1875 17.6836 10.1953 17.6992C10.2031 17.7617 10.207 17.8281 10.207 17.8984C10.2148 17.9609 10.2266 18.0195 10.2422 18.0742C10.2656 18.1289 10.3008 18.1758 10.3477 18.2148C10.3945 18.2539 10.4609 18.2734 10.5469 18.2734H12.1641C12.3125 18.2734 12.4336 18.3242 12.5273 18.4258C12.6289 18.5195 12.6797 18.6328 12.6797 18.7656C12.6797 18.9297 12.625 19.043 12.5156 19.1055C12.4141 19.1758 12.2852 19.2109 12.1289 19.2109H11.7891C11.7656 19.2109 11.707 19.2031 11.6133 19.1875C11.5195 19.1797 11.418 19.1641 11.3086 19.1406C11.207 19.125 11.1094 19.1094 11.0156 19.0938C10.9297 19.0859 10.875 19.082 10.8516 19.082H10.1133C10.1055 19.082 10.0781 19.0781 10.0312 19.0703C9.98438 19.0625 9.92969 19.0508 9.86719 19.0352C9.8125 19.0273 9.75781 19.0195 9.70312 19.0117C9.65625 19.0039 9.625 19 9.60938 19H8.97656ZM17.3268 16.1406C17.3268 16.2812 17.3464 16.4219 17.3854 16.5625C17.4323 16.7031 17.4948 16.832 17.5729 16.9492C17.651 17.0586 17.7487 17.1484 17.8659 17.2188C17.9831 17.2891 18.1198 17.3242 18.276 17.3242C18.5026 17.3242 18.7292 17.3164 18.9557 17.3008C19.1901 17.2852 19.4089 17.2344 19.612 17.1484C19.7917 17.1016 19.9557 17.0312 20.1042 16.9375C20.2526 16.8359 20.4049 16.7422 20.5612 16.6562C20.6081 16.3672 20.6354 16.1133 20.6432 15.8945C20.651 15.6758 20.6549 15.4297 20.6549 15.1562C20.6549 14.9062 20.651 14.6797 20.6432 14.4766C20.6354 14.2656 20.6081 14.0391 20.5612 13.7969H20.4206C20.2878 13.7969 20.1628 13.8164 20.0456 13.8555C19.9284 13.8867 19.8112 13.9297 19.694 13.9844C19.5846 14.0312 19.4753 14.082 19.3659 14.1367C19.2643 14.1914 19.1549 14.2422 19.0378 14.2891C18.9284 14.3438 18.8385 14.3828 18.7682 14.4062C18.7057 14.4219 18.6198 14.4648 18.5104 14.5352C18.3932 14.6211 18.2643 14.7227 18.1237 14.8398C17.9909 14.957 17.8659 15.0859 17.7487 15.2266C17.6315 15.3672 17.5299 15.5156 17.444 15.6719C17.3659 15.8203 17.3268 15.9766 17.3268 16.1406ZM15.651 16.6562C15.651 16.3906 15.7096 16.1328 15.8268 15.8828C15.9518 15.6328 16.112 15.4023 16.3073 15.1914C16.5026 14.9805 16.7174 14.793 16.9518 14.6289C17.1862 14.4648 17.4167 14.332 17.6432 14.2305C17.651 14.2305 17.6745 14.2227 17.7135 14.207C17.7604 14.1914 17.8073 14.1797 17.8542 14.1719C17.901 14.1562 17.944 14.1406 17.9831 14.125C18.0299 14.1094 18.0612 14.1016 18.0768 14.1016C18.0846 14.0938 18.1081 14.0781 18.1471 14.0547C18.194 14.0234 18.2409 13.9922 18.2878 13.9609C18.3346 13.9219 18.3776 13.8867 18.4167 13.8555C18.4635 13.8242 18.4948 13.8047 18.5104 13.7969C18.7682 13.6406 19.0534 13.5156 19.3659 13.4219C19.6862 13.3203 19.9909 13.2305 20.2799 13.1523C20.4284 13.0977 20.5534 13.043 20.6549 12.9883C20.7565 12.9336 20.8229 12.8125 20.8542 12.625C20.8542 12.6172 20.8581 12.5898 20.8659 12.543C20.8737 12.4883 20.8815 12.4258 20.8893 12.3555C20.8971 12.2852 20.9049 12.2148 20.9128 12.1445C20.9206 12.0664 20.9245 12.0078 20.9245 11.9688V11.9336V11.875C20.9245 11.8047 20.9206 11.7148 20.9128 11.6055C20.9049 11.4883 20.8971 11.3789 20.8893 11.2773C20.8815 11.168 20.8737 11.0742 20.8659 10.9961C20.8581 10.918 20.8542 10.875 20.8542 10.8672C20.8229 10.6875 20.7565 10.5156 20.6549 10.3516C20.5612 10.1797 20.4401 10.0312 20.2917 9.90625C20.1432 9.77344 19.9792 9.66797 19.7995 9.58984C19.6198 9.51172 19.4323 9.47266 19.237 9.47266C19.0651 9.47266 18.8971 9.49219 18.7331 9.53125C18.5768 9.5625 18.4362 9.62109 18.3112 9.70703C18.194 9.78516 18.0924 9.89062 18.0065 10.0234C17.9284 10.1484 17.8776 10.3047 17.8542 10.4922C17.8385 10.6328 17.8268 10.7773 17.819 10.9258C17.819 11.0742 17.7604 11.1992 17.6432 11.3008C17.6198 11.3242 17.5846 11.3594 17.5378 11.4062C17.4909 11.4453 17.4401 11.4844 17.3854 11.5234C17.3385 11.5625 17.2956 11.5977 17.2565 11.6289C17.2174 11.6523 17.194 11.668 17.1862 11.6758C17.1237 11.7227 17.0378 11.7852 16.9284 11.8633C16.8268 11.9336 16.7682 11.9688 16.7526 11.9688H15.8854C15.8698 11.9688 15.8424 11.9414 15.8034 11.8867C15.7721 11.8242 15.7409 11.7734 15.7096 11.7344C15.6628 11.6328 15.6276 11.5664 15.6042 11.5352C15.5885 11.4961 15.5807 11.4258 15.5807 11.3242V11.2422C15.7057 10.9062 15.8932 10.6211 16.1432 10.3867C16.401 10.1445 16.6784 9.9375 16.9753 9.76562C16.9831 9.76562 16.9948 9.75391 17.0104 9.73047C17.026 9.69922 17.0417 9.68359 17.0573 9.68359C17.4401 9.34766 17.8737 9.07031 18.3581 8.85156C18.8424 8.63281 19.3503 8.52344 19.8815 8.52344C20.0534 8.52344 20.2018 8.53125 20.3268 8.54688C20.4518 8.5625 20.569 8.58203 20.6784 8.60547C20.7956 8.62891 20.9128 8.66016 21.0299 8.69922C21.1471 8.73047 21.2839 8.76953 21.4401 8.81641C21.6589 8.97266 21.8503 9.125 22.0143 9.27344C22.1784 9.42188 22.3151 9.58203 22.4245 9.75391C22.5339 9.92578 22.6159 10.1172 22.6706 10.3281C22.7331 10.5391 22.7643 10.7773 22.7643 11.043V11.0898C22.694 12.0273 22.6159 12.9727 22.5299 13.9258C22.444 14.8711 22.401 15.8086 22.401 16.7383C22.401 16.9883 22.4479 17.2109 22.5417 17.4062C22.6354 17.5938 22.7995 17.7305 23.0339 17.8164H23.1745C23.3385 17.8164 23.487 17.8008 23.6198 17.7695C23.7604 17.7305 23.8932 17.6836 24.0182 17.6289C24.151 17.5664 24.2839 17.5039 24.4167 17.4414C24.5495 17.3711 24.6862 17.3047 24.8268 17.2422V17.3828C24.8268 17.5625 24.776 17.7031 24.6745 17.8047C24.5807 17.9062 24.4792 18.0156 24.3698 18.1328C24.362 18.1406 24.3424 18.1602 24.3112 18.1914C24.2799 18.2227 24.2487 18.2617 24.2174 18.3086C24.1862 18.3477 24.1549 18.3867 24.1237 18.4258C24.1003 18.457 24.0846 18.4766 24.0768 18.4844C24.0299 18.5469 23.9753 18.5938 23.9128 18.625C23.8581 18.6484 23.7878 18.6758 23.7018 18.707C23.5143 18.7852 23.2956 18.8594 23.0456 18.9297C22.8034 18.9922 22.569 19.0234 22.3424 19.0234C22.3034 19.0234 22.2643 19.0234 22.2253 19.0234C22.1862 19.0234 22.1471 19.0156 22.1081 19C22.069 18.9922 22.0065 18.9766 21.9206 18.9531C21.8346 18.9297 21.7448 18.9023 21.651 18.8711C21.5573 18.8398 21.4714 18.8086 21.3932 18.7773C21.3151 18.7461 21.2604 18.7227 21.2292 18.707C21.2057 18.6914 21.1549 18.6484 21.0768 18.5781C20.9987 18.5 20.9479 18.4492 20.9245 18.4258C20.8932 18.3867 20.8503 18.3125 20.7956 18.2031C20.7487 18.0859 20.694 17.9648 20.6315 17.8398C20.5768 17.7148 20.5221 17.6055 20.4674 17.5117C20.4206 17.418 20.3854 17.3711 20.362 17.3711C20.3151 17.3711 20.2604 17.4062 20.1979 17.4766C20.1354 17.5391 20.0729 17.6133 20.0104 17.6992C19.9479 17.7852 19.8893 17.8711 19.8346 17.957C19.7799 18.043 19.7331 18.1016 19.694 18.1328C19.5456 18.2578 19.4089 18.375 19.2839 18.4844C19.1589 18.5859 19.0299 18.6758 18.8971 18.7539C18.7643 18.832 18.6198 18.8945 18.4635 18.9414C18.3151 18.9805 18.1393 19 17.9362 19C17.8268 19 17.7292 19 17.6432 19C17.5651 18.9922 17.4909 18.9805 17.4206 18.9648C17.3503 18.9492 17.2799 18.9258 17.2096 18.8945C17.1393 18.8633 17.0612 18.8203 16.9753 18.7656C16.7253 18.6328 16.4831 18.4805 16.2487 18.3086C16.0221 18.1367 15.8776 17.9062 15.8151 17.6172C15.7604 17.4297 15.7174 17.2617 15.6862 17.1133C15.6628 16.9648 15.651 16.8125 15.651 16.6562ZM24.7747 18.7891C24.7747 18.6797 24.806 18.5898 24.8685 18.5195C24.931 18.4414 25.0052 18.3789 25.0911 18.332C25.1849 18.2852 25.2826 18.2539 25.3841 18.2383C25.4857 18.2148 25.5794 18.1992 25.6654 18.1914H26.3333C26.4193 18.1523 26.4818 18.0938 26.5208 18.0156C26.5599 17.9297 26.5833 17.8359 26.5911 17.7344C26.6068 17.6328 26.6146 17.5312 26.6146 17.4297C26.6146 17.3203 26.6185 17.2266 26.6263 17.1484C26.6341 17.1406 26.6419 17.125 26.6497 17.1016C26.6576 17.0859 26.6654 17.0703 26.6732 17.0547C26.681 17.0391 26.6927 17.0234 26.7083 17.0078C26.724 16.9922 26.7357 16.957 26.7435 16.9023C26.7591 16.8477 26.7669 16.8125 26.7669 16.7969V13.7266C26.7669 13.7031 26.7786 13.6523 26.8021 13.5742C26.8333 13.4961 26.849 13.4492 26.849 13.4336V13.3867C26.849 13.2695 26.8333 13.1523 26.8021 13.0352C26.7786 12.918 26.7669 12.793 26.7669 12.6602C26.7669 12.5039 26.7786 12.3594 26.8021 12.2266C26.8333 12.0859 26.849 11.9414 26.849 11.793V11.6758C26.849 11.6289 26.8451 11.5664 26.8372 11.4883C26.8294 11.4023 26.8177 11.3164 26.8021 11.2305C26.7943 11.1367 26.7865 11.0586 26.7786 10.9961C26.7708 10.9258 26.7669 10.8828 26.7669 10.8672C26.7435 10.7031 26.638 10.5938 26.4505 10.5391C26.263 10.4844 26.0599 10.4414 25.8411 10.4102C25.6302 10.3789 25.4349 10.3438 25.2552 10.3047C25.0833 10.2578 24.9974 10.1641 24.9974 10.0234C24.9974 9.92188 25.0794 9.83203 25.2435 9.75391C25.4076 9.66797 25.5951 9.59375 25.806 9.53125C26.0169 9.46875 26.224 9.41406 26.4271 9.36719C26.6302 9.32031 26.7708 9.28125 26.849 9.25C26.8646 9.24219 26.8997 9.22266 26.9544 9.19141C27.0091 9.16016 27.0677 9.12891 27.1302 9.09766C27.1927 9.06641 27.2513 9.03906 27.306 9.01562C27.3685 8.98438 27.4115 8.96484 27.4349 8.95703C27.4427 8.95703 27.4701 8.94922 27.5169 8.93359C27.5716 8.91797 27.6263 8.90234 27.681 8.88672C27.7435 8.86328 27.7982 8.84375 27.8451 8.82812C27.8997 8.8125 27.9349 8.80469 27.9505 8.80469C27.9505 8.80469 27.9661 8.80078 27.9974 8.79297C28.0365 8.77734 28.0755 8.76172 28.1146 8.74609C28.1536 8.73047 28.1927 8.71484 28.2318 8.69922C28.2708 8.68359 28.2943 8.67188 28.3021 8.66406H28.3372H28.3841C28.5404 8.72656 28.6497 8.78906 28.7122 8.85156C28.7826 8.90625 28.8177 9.02734 28.8177 9.21484C28.8177 9.31641 28.806 9.41797 28.7826 9.51953C28.7669 9.61328 28.7591 9.70312 28.7591 9.78906V10C28.7591 10.1016 28.7669 10.1953 28.7826 10.2812C28.806 10.3594 28.8607 10.4297 28.9466 10.4922H29.0052C29.099 10.4922 29.1927 10.4531 29.2865 10.375C29.388 10.2969 29.4857 10.207 29.5794 10.1055C29.6732 9.99609 29.7591 9.89062 29.8372 9.78906C29.9232 9.67969 29.9974 9.59375 30.0599 9.53125C30.2552 9.375 30.4583 9.23828 30.6693 9.12109C30.8802 9.00391 31.0951 8.87109 31.3138 8.72266C31.3372 8.73828 31.3763 8.74609 31.431 8.74609C31.5169 8.74609 31.6185 8.73438 31.7357 8.71094C31.8529 8.67969 31.9544 8.66406 32.0404 8.66406C32.1654 8.66406 32.2943 8.68359 32.4271 8.72266C32.5599 8.75391 32.6771 8.80859 32.7786 8.88672C32.888 8.95703 32.974 9.04688 33.0365 9.15625C33.1068 9.26562 33.1419 9.39062 33.1419 9.53125V9.68359C33.1185 9.84766 33.099 10.0078 33.0833 10.1641C33.0755 10.3125 33.0482 10.4453 33.0013 10.5625C32.9544 10.6797 32.8763 10.7734 32.7669 10.8438C32.6576 10.9141 32.4935 10.9492 32.2747 10.9492H32.181C32.1576 10.9414 32.1224 10.9336 32.0755 10.9258C32.0286 10.9102 31.9818 10.8984 31.9349 10.8906C31.888 10.8828 31.8451 10.8789 31.806 10.8789C31.7747 10.8711 31.7552 10.8672 31.7474 10.8672C31.7396 10.8594 31.7201 10.8438 31.6888 10.8203C31.6654 10.7969 31.638 10.7734 31.6068 10.75C31.5755 10.7188 31.5443 10.6914 31.513 10.668C31.4896 10.6445 31.474 10.6328 31.4661 10.6328H31.2904H30.8568C30.849 10.6328 30.8216 10.6289 30.7747 10.6211C30.7279 10.6133 30.6732 10.6094 30.6107 10.6094C30.556 10.6016 30.5013 10.5938 30.4466 10.5859C30.3997 10.5781 30.3724 10.5742 30.3646 10.5742H30.2943C30.1771 10.5742 30.0443 10.5859 29.8958 10.6094C29.7552 10.6328 29.6146 10.6758 29.474 10.7383C29.3333 10.793 29.2083 10.8672 29.099 10.9609C28.9896 11.0469 28.9193 11.1602 28.888 11.3008C28.9036 12.1289 28.8958 12.9531 28.8646 13.7734C28.8333 14.5938 28.8177 15.418 28.8177 16.2461C28.8177 16.3164 28.8138 16.4102 28.806 16.5273C28.7982 16.6367 28.7943 16.7578 28.7943 16.8906C28.7943 17.0234 28.7982 17.1602 28.806 17.3008C28.8216 17.4414 28.8451 17.5742 28.8763 17.6992C28.9076 17.8164 28.9505 17.9219 29.0052 18.0156C29.0677 18.1016 29.1497 18.1602 29.2513 18.1914C29.2826 18.1914 29.3372 18.1875 29.4154 18.1797C29.5013 18.1719 29.5951 18.168 29.6966 18.168C29.7982 18.168 29.888 18.1719 29.9661 18.1797C30.0443 18.1875 30.099 18.1914 30.1302 18.1914C30.263 18.207 30.3724 18.25 30.4583 18.3203C30.5443 18.3828 30.5872 18.4727 30.5872 18.5898C30.5872 18.6992 30.5755 18.7812 30.5521 18.8359C30.5286 18.8906 30.4935 18.9297 30.4466 18.9531C30.3997 18.9688 30.3411 18.9805 30.2708 18.9883C30.2083 18.9883 30.138 18.9922 30.0599 19C30.0521 19 30.0247 19.0156 29.9779 19.0469C29.9544 19.0625 29.9349 19.0742 29.9193 19.082H29.8724C29.5599 19.082 29.2161 19.0703 28.8411 19.0469C28.4661 19.0234 28.1107 18.9805 27.7747 18.918H27.7513C27.6732 18.918 27.599 18.9336 27.5286 18.9648C27.4583 18.9883 27.388 19 27.3177 19C27.2474 19 27.181 18.9883 27.1185 18.9648C27.0638 18.9336 27.0052 18.918 26.9427 18.918H26.9076C26.6888 18.9805 26.4622 19.0234 26.2279 19.0469C26.0013 19.0703 25.7747 19.082 25.5482 19.082H25.3841C25.2591 19.082 25.1263 19.0664 24.9857 19.0352C24.8451 19.0039 24.7747 18.9219 24.7747 18.7891ZM35.7031 14.0781V14.7695C35.7109 14.832 35.7266 14.9297 35.75 15.0625C35.7812 15.1953 35.8164 15.3359 35.8555 15.4844C35.8945 15.625 35.9336 15.7578 35.9727 15.8828C36.0117 16.0078 36.0469 16.0938 36.0781 16.1406C36.0859 16.1641 36.1094 16.2109 36.1484 16.2812C36.1953 16.3438 36.2422 16.4141 36.2891 16.4922C36.3438 16.5625 36.3906 16.6328 36.4297 16.7031C36.4766 16.7656 36.5039 16.8047 36.5117 16.8203C36.5195 16.8359 36.5352 16.875 36.5586 16.9375C36.5898 16.9922 36.6211 17.0508 36.6523 17.1133C36.6914 17.1758 36.7227 17.2383 36.7461 17.3008C36.7773 17.3555 36.7969 17.3906 36.8047 17.4062C36.8125 17.4141 36.8281 17.4336 36.8516 17.4648C36.8828 17.4961 36.9141 17.5273 36.9453 17.5586C36.9844 17.5898 37.0195 17.6211 37.0508 17.6523C37.082 17.6758 37.0977 17.6914 37.0977 17.6992C37.1602 17.7695 37.2305 17.8711 37.3086 18.0039C37.3867 18.1289 37.4688 18.2188 37.5547 18.2734C37.5625 18.2891 37.6094 18.3086 37.6953 18.332C37.7812 18.3477 37.832 18.3594 37.8477 18.3672C38.0039 18.4297 38.1523 18.4805 38.293 18.5195C38.4414 18.5508 38.6094 18.5664 38.7969 18.5664C38.9375 18.5664 39.0547 18.5508 39.1484 18.5195C39.2422 18.4805 39.3281 18.4297 39.4062 18.3672C39.4922 18.3047 39.5742 18.2344 39.6523 18.1562C39.7383 18.0703 39.8398 17.9844 39.957 17.8984C40.0742 17.8125 40.1562 17.7148 40.2031 17.6055C40.2578 17.4883 40.3242 17.375 40.4023 17.2656C40.4727 17.1484 40.5508 17.0352 40.6367 16.9258C40.7305 16.8164 40.8164 16.707 40.8945 16.5977C40.9258 16.5508 40.9453 16.5117 40.9531 16.4805C40.9688 16.4492 40.9766 16.4219 40.9766 16.3984C40.9844 16.3672 40.9883 16.332 40.9883 16.293C40.9961 16.2539 41.0117 16.2031 41.0352 16.1406C41.043 16.1406 41.0586 16.1172 41.082 16.0703C41.1133 16.0156 41.1445 15.9531 41.1758 15.8828C41.207 15.8125 41.2383 15.7422 41.2695 15.6719C41.3008 15.6016 41.3281 15.543 41.3516 15.4961C41.3594 15.4805 41.3672 15.4609 41.375 15.4375C41.3828 15.4219 41.3906 15.4062 41.3984 15.3906C41.4062 15.375 41.4102 15.3633 41.4102 15.3555C41.4258 15.3086 41.4414 15.2383 41.457 15.1445C41.4805 15.0508 41.5 14.957 41.5156 14.8633C41.5312 14.7695 41.543 14.6875 41.5508 14.6172C41.5664 14.5391 41.5742 14.4922 41.5742 14.4766V13.7031C41.5742 13.2969 41.5508 12.8828 41.5039 12.4609C41.4648 12.0391 41.3672 11.6328 41.2109 11.2422C41.0781 10.9453 40.9375 10.668 40.7891 10.4102C40.6484 10.1445 40.4414 9.91016 40.168 9.70703C40.1523 9.69922 40.1016 9.67578 40.0156 9.63672C39.9297 9.58984 39.8359 9.54297 39.7344 9.49609C39.6406 9.44141 39.5508 9.39453 39.4648 9.35547C39.3789 9.30859 39.3242 9.28125 39.3008 9.27344C39.293 9.26562 39.2695 9.25 39.2305 9.22656C39.1992 9.20312 39.1602 9.17969 39.1133 9.15625C39.0742 9.13281 39.0352 9.11328 38.9961 9.09766C38.957 9.07422 38.9336 9.0625 38.9258 9.0625C38.9258 9.04688 38.9023 9.03906 38.8555 9.03906C38.8164 9.03906 38.7891 9.03906 38.7734 9.03906C38.4766 9.03906 38.1992 9.10547 37.9414 9.23828C37.6914 9.36328 37.4609 9.52734 37.25 9.73047C37.0469 9.93359 36.8633 10.1641 36.6992 10.4219C36.543 10.6719 36.4062 10.9258 36.2891 11.1836C36.0859 11.6289 35.9375 12.1016 35.8438 12.6016C35.75 13.0938 35.7031 13.5859 35.7031 14.0781ZM33.5703 13.7852C33.5703 13.6445 33.5859 13.4648 33.6172 13.2461C33.6484 13.0273 33.6914 12.8047 33.7461 12.5781C33.8008 12.3438 33.8633 12.1211 33.9336 11.9102C34.0117 11.6992 34.0898 11.5234 34.168 11.3828C34.2539 11.2266 34.3516 11.0938 34.4609 10.9844C34.5781 10.8672 34.7031 10.7305 34.8359 10.5742C34.9141 10.4883 34.9727 10.3828 35.0117 10.2578C35.0508 10.1328 35.1094 10.0273 35.1875 9.94141C35.2188 9.90234 35.2695 9.84766 35.3398 9.77734C35.418 9.69922 35.4727 9.64844 35.5039 9.625C35.5195 9.61719 35.5508 9.60547 35.5977 9.58984C35.6523 9.57422 35.6875 9.56641 35.7031 9.56641C35.8047 9.51953 35.8945 9.46484 35.9727 9.40234C36.0508 9.33203 36.125 9.26562 36.1953 9.20312C36.2656 9.13281 36.3359 9.06641 36.4062 9.00391C36.4844 8.93359 36.5703 8.87109 36.6641 8.81641C36.9922 8.63672 37.3555 8.51953 37.7539 8.46484C38.1602 8.41016 38.5469 8.38281 38.9141 8.38281C39.0156 8.38281 39.1016 8.41406 39.1719 8.47656C39.25 8.53125 39.3398 8.57422 39.4414 8.60547C39.457 8.61328 39.4922 8.62109 39.5469 8.62891C39.6016 8.63672 39.6602 8.64453 39.7227 8.65234C39.793 8.65234 39.8555 8.65625 39.9102 8.66406C39.9727 8.67188 40.0156 8.67969 40.0391 8.6875C40.0469 8.6875 40.0781 8.69922 40.1328 8.72266C40.1953 8.73828 40.2344 8.75 40.25 8.75781C40.2656 8.76562 40.3008 8.78516 40.3555 8.81641C40.4102 8.83984 40.4688 8.87109 40.5312 8.91016C40.6016 8.94141 40.6641 8.97266 40.7188 9.00391C40.7812 9.03516 40.8203 9.05469 40.8359 9.0625C40.9375 9.10156 41.0586 9.14062 41.1992 9.17969C41.3477 9.21094 41.4727 9.26172 41.5742 9.33203C41.5898 9.33984 41.6133 9.36328 41.6445 9.40234C41.6836 9.44141 41.7227 9.48438 41.7617 9.53125C41.8008 9.57031 41.8359 9.60938 41.8672 9.64844C41.9062 9.67969 41.9297 9.69922 41.9375 9.70703C41.9453 9.71484 41.9648 9.73047 41.9961 9.75391C42.0352 9.76953 42.0742 9.79297 42.1133 9.82422C42.1523 9.84766 42.1914 9.87109 42.2305 9.89453C42.2695 9.91797 42.2969 9.93359 42.3125 9.94141C42.5469 10.1289 42.7461 10.3633 42.9102 10.6445C43.082 10.9258 43.2188 11.2305 43.3203 11.5586C43.4297 11.8789 43.5078 12.207 43.5547 12.543C43.6094 12.8711 43.6367 13.1797 43.6367 13.4688V13.7969C43.6289 13.875 43.6172 13.9844 43.6016 14.125C43.5938 14.2578 43.5859 14.3906 43.5781 14.5234C43.5703 14.6562 43.5625 14.7734 43.5547 14.875C43.5547 14.9766 43.5547 15.0312 43.5547 15.0391C43.5547 15.0625 43.5391 15.125 43.5078 15.2266C43.4766 15.3203 43.4414 15.4258 43.4023 15.543C43.3633 15.6602 43.3203 15.7773 43.2734 15.8945C43.2344 16.0039 43.2031 16.0859 43.1797 16.1406C43.1797 16.1562 43.168 16.1875 43.1445 16.2344C43.1211 16.2734 43.0977 16.3203 43.0742 16.375C43.0508 16.4219 43.0273 16.4688 43.0039 16.5156C42.9883 16.5547 42.9766 16.582 42.9688 16.5977C42.9688 16.6133 42.9531 16.6484 42.9219 16.7031C42.8984 16.7578 42.8867 16.7969 42.8867 16.8203C42.8633 16.8516 42.8164 16.9102 42.7461 16.9961C42.6758 17.0742 42.6016 17.1602 42.5234 17.2539C42.4453 17.3477 42.3711 17.4375 42.3008 17.5234C42.2305 17.6094 42.1836 17.668 42.1602 17.6992C42.1445 17.7148 42.1055 17.7422 42.043 17.7812C41.9883 17.8203 41.9531 17.8398 41.9375 17.8398C41.9141 17.8789 41.8828 17.8984 41.8438 17.8984C41.8203 17.9297 41.7734 17.9727 41.7031 18.0273C41.6406 18.082 41.5742 18.1367 41.5039 18.1914C41.4336 18.2461 41.3672 18.2969 41.3047 18.3438C41.25 18.3906 41.2188 18.418 41.2109 18.4258C41.125 18.4805 41.0508 18.5117 40.9883 18.5195C40.9336 18.5195 40.8594 18.5352 40.7656 18.5664C40.7422 18.582 40.6875 18.6094 40.6016 18.6484C40.5234 18.6875 40.4766 18.707 40.4609 18.707C40.4531 18.707 40.4258 18.7148 40.3789 18.7305C40.332 18.7383 40.2773 18.7461 40.2148 18.7539C40.1602 18.7617 40.1055 18.7734 40.0508 18.7891C40.0039 18.7969 39.9727 18.8008 39.957 18.8008C39.9258 18.8008 39.8633 18.8203 39.7695 18.8594C39.6758 18.8984 39.6211 18.9258 39.6055 18.9414H38.9141H38.3984C38.2188 18.9414 38.043 18.9414 37.8711 18.9414C37.6992 18.9336 37.5352 18.9141 37.3789 18.8828C37.3711 18.8828 37.3516 18.875 37.3203 18.8594C37.2891 18.8438 37.25 18.8242 37.2031 18.8008C37.1641 18.7773 37.1289 18.7578 37.0977 18.7422C37.0664 18.7188 37.0469 18.707 37.0391 18.707C37.0312 18.707 37.0078 18.707 36.9688 18.707C36.9297 18.6992 36.8867 18.6914 36.8398 18.6836C36.8008 18.6758 36.7617 18.668 36.7227 18.6602C36.6914 18.6523 36.6719 18.6484 36.6641 18.6484C36.6562 18.6484 36.6172 18.625 36.5469 18.5781C36.4844 18.5312 36.4453 18.5078 36.4297 18.5078C36.4141 18.4922 36.3672 18.4688 36.2891 18.4375C36.2188 18.4062 36.168 18.3828 36.1367 18.3672C35.957 18.2812 35.7734 18.1719 35.5859 18.0391C35.4062 17.8984 35.2344 17.7422 35.0703 17.5703C34.9141 17.3984 34.7695 17.2188 34.6367 17.0312C34.5039 16.8438 34.3984 16.6523 34.3203 16.457C34.3125 16.4258 34.2969 16.3594 34.2734 16.2578C34.2578 16.1562 34.25 16.0977 34.25 16.082C34.2344 16.0742 34.207 16.0391 34.168 15.9766C34.1289 15.9062 34.1016 15.8633 34.0859 15.8477C34.0156 15.7148 33.9492 15.5625 33.8867 15.3906C33.8242 15.2109 33.7695 15.0273 33.7227 14.8398C33.6758 14.6523 33.6367 14.4688 33.6055 14.2891C33.582 14.1016 33.5703 13.9336 33.5703 13.7852ZM45.8229 14.8516C45.8229 14.1875 45.8464 13.5234 45.8932 12.8594C45.9479 12.1953 45.9753 11.5195 45.9753 10.832V10.5742C45.9284 10.4883 45.8464 10.4258 45.7292 10.3867C45.6198 10.3477 45.5026 10.3125 45.3776 10.2812C45.2604 10.2422 45.1549 10.2031 45.0612 10.1641C44.9753 10.1172 44.9323 10.043 44.9323 9.94141V9.82422C44.9635 9.79297 45.0143 9.74219 45.0846 9.67188C45.1628 9.59375 45.2448 9.51172 45.3307 9.42578C45.4245 9.33984 45.5065 9.26172 45.5768 9.19141C45.6549 9.11328 45.7096 9.05469 45.7409 9.01562C45.7643 9.00781 45.7917 8.97656 45.8229 8.92188C45.862 8.86719 45.8815 8.83203 45.8815 8.81641C45.8971 8.80859 45.9128 8.79688 45.9284 8.78125C45.9518 8.75781 45.9674 8.74609 45.9753 8.74609C45.9753 8.73047 46.0065 8.70312 46.069 8.66406C46.1315 8.625 46.1745 8.59766 46.1979 8.58203C46.2214 8.55078 46.2565 8.50391 46.3034 8.44141C46.3503 8.37891 46.401 8.31641 46.4557 8.25391C46.5104 8.18359 46.5573 8.12109 46.5964 8.06641C46.6432 8.00391 46.6745 7.96094 46.6901 7.9375C46.7135 7.91406 46.7487 7.85156 46.7956 7.75C46.8503 7.64062 46.9049 7.52734 46.9596 7.41016C47.0221 7.29297 47.0768 7.1875 47.1237 7.09375C47.1706 6.99219 47.2018 6.92969 47.2174 6.90625C47.2174 6.90625 47.2253 6.89453 47.2409 6.87109C47.2643 6.83984 47.2878 6.80859 47.3112 6.77734C47.3424 6.73828 47.3698 6.70703 47.3932 6.68359C47.4167 6.65234 47.4323 6.62891 47.4401 6.61328C47.4557 6.56641 47.4674 6.51562 47.4753 6.46094C47.4909 6.39844 47.5065 6.34375 47.5221 6.29688C47.5378 6.24219 47.5651 6.19922 47.6042 6.16797C47.6432 6.12891 47.6979 6.10938 47.7682 6.10938C47.8464 6.10938 47.9089 6.14453 47.9557 6.21484C48.0026 6.28516 48.0378 6.36719 48.0612 6.46094C48.0846 6.55469 48.0964 6.64844 48.0964 6.74219C48.1042 6.82812 48.1081 6.89062 48.1081 6.92969C48.1081 7.11719 48.0885 7.30078 48.0495 7.48047C48.0182 7.65234 48.0026 7.83203 48.0026 8.01953C48.0026 8.19922 48.0221 8.33984 48.0612 8.44141C48.1003 8.53516 48.1589 8.60547 48.237 8.65234C48.3151 8.69922 48.4167 8.72656 48.5417 8.73438C48.6667 8.74219 48.8112 8.74609 48.9753 8.74609H49.4089C49.4714 8.67578 49.5456 8.63281 49.6315 8.61719C49.7253 8.59375 49.8151 8.58203 49.901 8.58203H50.0885H50.5221C50.569 8.65234 50.6354 8.69531 50.7214 8.71094C50.8151 8.71875 50.9049 8.73047 50.9909 8.74609C51.0768 8.75391 51.151 8.77344 51.2135 8.80469C51.2839 8.83594 51.319 8.90625 51.319 9.01562V10C51.319 10.0625 51.2721 10.1133 51.1784 10.1523C51.0924 10.1836 50.9909 10.2109 50.8737 10.2344C50.7565 10.25 50.6432 10.2617 50.5339 10.2695C50.4323 10.2773 50.3659 10.2812 50.3346 10.2812H50.1471C50.1159 10.2812 50.0378 10.2773 49.9128 10.2695C49.7956 10.2617 49.6667 10.2539 49.526 10.2461C49.3854 10.2305 49.2526 10.2188 49.1276 10.2109C49.0104 10.2031 48.9401 10.1992 48.9167 10.1992H48.8346C48.8268 10.1992 48.7995 10.1953 48.7526 10.1875C48.7135 10.1797 48.6667 10.1758 48.612 10.1758C48.5651 10.168 48.5182 10.1602 48.4714 10.1523C48.4323 10.1445 48.4089 10.1406 48.401 10.1406H48.3659C48.2643 10.1406 48.1823 10.1758 48.1198 10.2461C48.0573 10.3086 48.0065 10.3867 47.9674 10.4805C47.9362 10.5742 47.9128 10.6719 47.8971 10.7734C47.8815 10.8672 47.8737 10.9453 47.8737 11.0078C47.8503 11.3281 47.8307 11.6016 47.8151 11.8281C47.7995 12.0469 47.7917 12.2969 47.7917 12.5781C47.7917 12.7344 47.7956 12.8711 47.8034 12.9883C47.8112 13.1055 47.8346 13.2539 47.8737 13.4336V16.4453C47.8737 16.4531 47.8815 16.4961 47.8971 16.5742C47.9206 16.6523 47.9323 16.6992 47.9323 16.7148C47.9479 16.7461 47.9753 16.793 48.0143 16.8555C48.0534 16.918 48.0924 16.9844 48.1315 17.0547C48.1706 17.125 48.2057 17.1914 48.237 17.2539C48.2682 17.3164 48.2917 17.3594 48.3073 17.3828C48.487 17.6406 48.6979 17.7969 48.9401 17.8516C49.1823 17.8984 49.444 17.9219 49.7253 17.9219C49.8581 17.9219 50.0143 17.9102 50.194 17.8867C50.3737 17.8633 50.5299 17.8203 50.6628 17.7578C50.6784 17.7422 50.7135 17.7148 50.7682 17.6758C50.8307 17.6367 50.8698 17.6172 50.8854 17.6172C50.8854 17.6094 50.901 17.6055 50.9323 17.6055C50.9714 17.6055 50.9987 17.6055 51.0143 17.6055C51.1003 17.6055 51.1706 17.625 51.2253 17.6641C51.2878 17.6953 51.319 17.7656 51.319 17.875C51.319 18.0156 51.2682 18.1328 51.1667 18.2266C51.0729 18.3125 50.9792 18.3984 50.8854 18.4844C50.7057 18.6562 50.5182 18.7656 50.3229 18.8125C50.1354 18.8594 49.9362 18.9219 49.7253 19H48.1081C48.0924 19 48.0456 18.9922 47.9674 18.9766C47.8893 18.9609 47.8307 18.9414 47.7917 18.918C47.5651 18.832 47.3659 18.7617 47.194 18.707C47.0299 18.6523 46.862 18.5586 46.6901 18.4258C46.4948 18.2773 46.3385 18.0938 46.2214 17.875C46.1042 17.6562 46.0143 17.4219 45.9518 17.1719C45.8971 16.9219 45.862 16.6641 45.8464 16.3984C45.8307 16.125 45.8229 15.8633 45.8229 15.6133V14.8516ZM60.5664 18.8828C60.3633 18.8359 60.1367 18.7812 59.8867 18.7188C59.6445 18.6562 59.4258 18.5938 59.2305 18.5312C59.2148 18.5312 59.1758 18.5078 59.1133 18.4609C59.0586 18.4141 59.0312 18.3828 59.0312 18.3672C58.8438 18.2734 58.668 18.1992 58.5039 18.1445C58.3477 18.0898 58.207 18.0273 58.082 17.957C57.9648 17.8789 57.8711 17.7734 57.8008 17.6406C57.7383 17.5078 57.707 17.3125 57.707 17.0547V16.9961C57.707 16.9805 57.7305 16.9297 57.7773 16.8438C57.8242 16.7578 57.8477 16.707 57.8477 16.6914C57.8867 16.5273 57.9023 16.3516 57.8945 16.1641C57.8945 15.9688 57.9062 15.7773 57.9297 15.5898C57.9297 15.582 57.9414 15.5508 57.9648 15.4961C57.9961 15.4336 58.0117 15.3945 58.0117 15.3789C58.0117 15.3711 58.0117 15.3477 58.0117 15.3086C58.0195 15.2695 58.0273 15.2266 58.0352 15.1797C58.043 15.1328 58.0508 15.0898 58.0586 15.0508C58.0664 15.0039 58.0742 14.9688 58.082 14.9453C58.082 14.9297 58.082 14.8945 58.082 14.8398C58.0898 14.7773 58.0977 14.7148 58.1055 14.6523C58.1133 14.5898 58.1211 14.5312 58.1289 14.4766C58.1367 14.4141 58.1406 14.375 58.1406 14.3594C58.1406 14.3516 58.1445 14.3242 58.1523 14.2773C58.1602 14.2305 58.168 14.1836 58.1758 14.1367C58.1914 14.0898 58.2031 14.0469 58.2109 14.0078C58.2188 13.9609 58.2227 13.9336 58.2227 13.9258C58.2227 13.9102 58.2266 13.875 58.2344 13.8203C58.2422 13.7656 58.25 13.707 58.2578 13.6445C58.2656 13.5742 58.2734 13.5117 58.2812 13.457C58.2891 13.3945 58.2969 13.3516 58.3047 13.3281C58.3047 13.3047 58.3086 13.2695 58.3164 13.2227C58.332 13.168 58.3477 13.1172 58.3633 13.0703C58.3867 13.0234 58.4102 12.9805 58.4336 12.9414C58.4648 12.9023 58.5 12.8828 58.5391 12.8828C58.6016 12.8828 58.6562 12.9414 58.7031 13.0586C58.75 13.1758 58.7891 13.3164 58.8203 13.4805C58.8594 13.6367 58.8906 13.793 58.9141 13.9492C58.9375 14.1055 58.957 14.2188 58.9727 14.2891C58.9805 14.3359 58.9883 14.4219 58.9961 14.5469C59.0117 14.6719 59.0234 14.8047 59.0312 14.9453C59.0469 15.0859 59.0586 15.2188 59.0664 15.3438C59.082 15.4609 59.0898 15.543 59.0898 15.5898C59.1055 15.6055 59.1211 15.6289 59.1367 15.6602C59.1602 15.6914 59.1719 15.7148 59.1719 15.7305C59.2344 15.8633 59.2812 15.9883 59.3125 16.1055C59.3438 16.2227 59.3945 16.3477 59.4648 16.4805C59.4727 16.5039 59.4883 16.543 59.5117 16.5977C59.543 16.6445 59.5742 16.6953 59.6055 16.75C59.6367 16.7969 59.6641 16.8438 59.6875 16.8906C59.7188 16.9375 59.7422 16.9727 59.7578 16.9961C59.7734 17.0039 59.8008 17.0273 59.8398 17.0664C59.8789 17.1055 59.8984 17.1328 59.8984 17.1484C59.9062 17.1562 59.918 17.1836 59.9336 17.2305C59.957 17.2695 59.9805 17.3164 60.0039 17.3711C60.0273 17.418 60.0508 17.4648 60.0742 17.5117C60.0977 17.5508 60.1094 17.5742 60.1094 17.582C60.1797 17.6836 60.2734 17.7734 60.3906 17.8516C60.5078 17.9297 60.6328 18 60.7656 18.0625C60.8984 18.1172 61.0312 18.1719 61.1641 18.2266C61.2969 18.2734 61.418 18.3203 61.5273 18.3672C61.543 18.3828 61.5742 18.4141 61.6211 18.4609C61.6758 18.5078 61.7109 18.5312 61.7266 18.5312H61.8438H62.1602C62.1914 18.5312 62.2656 18.543 62.3828 18.5664C62.5078 18.582 62.5859 18.5898 62.6172 18.5898H62.9453C63.2344 18.5898 63.4883 18.5547 63.707 18.4844C63.9336 18.4141 64.1719 18.3281 64.4219 18.2266C64.4766 18.2109 64.5508 18.1953 64.6445 18.1797C64.7461 18.1562 64.8242 18.1211 64.8789 18.0742C64.8945 18.0664 64.9297 18.0391 64.9844 17.9922C65.0391 17.9375 65.0977 17.8789 65.1602 17.8164C65.2227 17.7539 65.2812 17.6914 65.3359 17.6289C65.3984 17.5664 65.4414 17.5234 65.4648 17.5C65.4961 17.4688 65.5391 17.4219 65.5938 17.3594C65.6484 17.2969 65.7031 17.2344 65.7578 17.1719C65.8125 17.1094 65.8594 17.0547 65.8984 17.0078C65.9453 16.9531 65.9727 16.9219 65.9805 16.9141C65.9883 16.9062 65.9961 16.8828 66.0039 16.8438C66.0195 16.7969 66.0352 16.75 66.0508 16.7031C66.0664 16.6484 66.0781 16.6016 66.0859 16.5625C66.1016 16.5156 66.1133 16.4883 66.1211 16.4805C66.1602 16.3789 66.1953 16.3008 66.2266 16.2461C66.2656 16.1836 66.2969 16.125 66.3203 16.0703C66.3516 16.0078 66.375 15.9414 66.3906 15.8711C66.4062 15.8008 66.4141 15.707 66.4141 15.5898C66.4141 15.3398 66.4062 15.0977 66.3906 14.8633C66.3828 14.6289 66.3711 14.3867 66.3555 14.1367C66.3242 13.9805 66.2617 13.8477 66.168 13.7383C66.0742 13.6289 65.9844 13.5195 65.8984 13.4102C65.8906 13.3945 65.8594 13.3555 65.8047 13.293C65.7578 13.2305 65.7031 13.1602 65.6406 13.082C65.5859 13.0039 65.5312 12.9336 65.4766 12.8711C65.4297 12.8008 65.4023 12.7578 65.3945 12.7422C65.3398 12.6719 65.2891 12.625 65.2422 12.6016C65.2031 12.5703 65.1602 12.5469 65.1133 12.5312C65.0742 12.5156 65.0273 12.5 64.9727 12.4844C64.9258 12.4688 64.8672 12.4375 64.7969 12.3906C64.7188 12.3281 64.6406 12.25 64.5625 12.1562C64.4922 12.0625 64.4062 11.9961 64.3047 11.957C64.2891 11.9492 64.2578 11.9414 64.2109 11.9336C64.1719 11.9258 64.125 11.918 64.0703 11.9102C64.0234 11.9023 63.9766 11.8945 63.9297 11.8867C63.8906 11.8789 63.8672 11.875 63.8594 11.875C63.8203 11.8594 63.7539 11.8359 63.6602 11.8047C63.5742 11.7734 63.5195 11.75 63.4961 11.7344C63.4805 11.7188 63.4336 11.6875 63.3555 11.6406C63.2852 11.5938 63.207 11.5469 63.1211 11.5C63.043 11.4453 62.9648 11.3984 62.8867 11.3594C62.8164 11.3125 62.7695 11.2852 62.7461 11.2773C62.543 11.1914 62.3125 11.1289 62.0547 11.0898C61.8047 11.0508 61.5781 10.9922 61.375 10.9141C61.1719 10.8516 60.9766 10.7656 60.7891 10.6562C60.6094 10.5469 60.4375 10.4336 60.2734 10.3164C60.0859 10.207 59.9023 10.0898 59.7227 9.96484C59.5508 9.83984 59.3672 9.72266 59.1719 9.61328C59.1719 9.59766 59.1602 9.58203 59.1367 9.56641C59.1211 9.54297 59.1055 9.53125 59.0898 9.53125C58.7305 8.98438 58.4336 8.42578 58.1992 7.85547C57.9648 7.27734 57.8477 6.64844 57.8477 5.96875V5.74609C57.8477 5.66797 57.8516 5.59375 57.8594 5.52344C57.8672 5.44531 57.8906 5.36328 57.9297 5.27734C57.9375 5.26953 57.9492 5.24609 57.9648 5.20703C57.9883 5.16016 58.0117 5.11328 58.0352 5.06641C58.0586 5.01172 58.082 4.96484 58.1055 4.92578C58.1289 4.87891 58.1406 4.85156 58.1406 4.84375C58.1406 4.83594 58.1445 4.8125 58.1523 4.77344C58.1602 4.72656 58.168 4.67969 58.1758 4.63281C58.1836 4.57812 58.1914 4.53125 58.1992 4.49219C58.207 4.44531 58.2148 4.41797 58.2227 4.41016C58.2383 4.37109 58.2578 4.32031 58.2812 4.25781C58.3047 4.19531 58.332 4.12891 58.3633 4.05859C58.3945 3.98828 58.4297 3.92187 58.4688 3.85938C58.5078 3.78906 58.5508 3.73047 58.5977 3.68359C58.6055 3.66797 58.6328 3.63672 58.6797 3.58984C58.7344 3.53516 58.7891 3.48047 58.8438 3.42578C58.9062 3.36328 58.9609 3.30859 59.0078 3.26172C59.0547 3.21484 59.082 3.18359 59.0898 3.16797C59.1055 3.16797 59.1211 3.15234 59.1367 3.12109C59.1602 3.08203 59.1719 3.04688 59.1719 3.01562C59.2656 2.79687 59.3906 2.62891 59.5469 2.51172C59.7031 2.38672 59.8906 2.25781 60.1094 2.125C60.125 2.14062 60.1445 2.14844 60.168 2.14844C60.1836 2.14844 60.1914 2.14062 60.1914 2.125C60.1992 2.125 60.2148 2.11719 60.2383 2.10156C60.2695 2.07812 60.3008 2.05469 60.332 2.03125C60.3711 2 60.4062 1.97656 60.4375 1.96094C60.4688 1.9375 60.4844 1.92578 60.4844 1.92578H60.543H60.707C60.7227 1.92578 60.7734 1.91406 60.8594 1.89062C60.9453 1.86719 61.0352 1.84375 61.1289 1.82031C61.2305 1.78906 61.3242 1.76562 61.4102 1.75C61.5039 1.72656 61.5625 1.71484 61.5859 1.71484H61.75H62.1602C62.1836 1.70703 62.2383 1.69922 62.3242 1.69141C62.4102 1.68359 62.5 1.67578 62.5938 1.66797C62.6953 1.66016 62.7891 1.65234 62.875 1.64453C62.9688 1.63672 63.0273 1.63281 63.0508 1.63281H63.1094H63.1211C63.1367 1.63281 63.1602 1.64844 63.1914 1.67969C63.2227 1.70312 63.2461 1.71484 63.2617 1.71484H63.5781H63.7188C63.8203 1.72266 63.9414 1.76172 64.082 1.83203C64.2305 1.89453 64.3789 1.96875 64.5273 2.05469C64.6758 2.13281 64.8203 2.21484 64.9609 2.30078C65.1016 2.38672 65.2188 2.45312 65.3125 2.5C65.3281 2.51562 65.3633 2.53516 65.418 2.55859C65.4805 2.57422 65.5156 2.58203 65.5234 2.58203C65.5938 2.62109 65.6602 2.67578 65.7227 2.74609C65.7852 2.80859 65.8477 2.87109 65.9102 2.93359C65.9805 2.99609 66.0508 3.05078 66.1211 3.09766C66.1992 3.14453 66.2852 3.16797 66.3789 3.16797C66.4883 3.16797 66.5664 3.13281 66.6133 3.0625C66.668 2.99219 66.707 2.91016 66.7305 2.81641C66.7617 2.72266 66.7852 2.62891 66.8008 2.53516C66.8164 2.43359 66.8398 2.35156 66.8711 2.28906C66.8711 2.26562 66.8867 2.23437 66.918 2.19531C66.9492 2.15625 66.9844 2.11328 67.0234 2.06641C67.0625 2.01953 67.0977 1.97656 67.1289 1.9375C67.168 1.89844 67.1914 1.87109 67.1992 1.85547C67.2148 1.83984 67.2344 1.83203 67.2578 1.83203H67.2812C67.3906 1.83203 67.4648 1.88672 67.5039 1.99609C67.5508 2.10547 67.5742 2.20313 67.5742 2.28906V2.41797C67.5742 2.44141 67.5664 2.48438 67.5508 2.54688C67.543 2.60156 67.5312 2.66406 67.5156 2.73438C67.5 2.79687 67.4844 2.85938 67.4688 2.92188C67.4531 2.97656 67.4414 3.00781 67.4336 3.01562C67.3164 3.89844 67.2578 4.79688 67.2578 5.71094C67.2578 5.85156 67.2617 5.99219 67.2695 6.13281C67.2773 6.26562 67.2812 6.40234 67.2812 6.54297C67.2656 6.58984 67.2461 6.64844 67.2227 6.71875C67.207 6.78125 67.1797 6.84375 67.1406 6.90625C67.1094 6.96875 67.0703 7.02344 67.0234 7.07031C66.9766 7.10938 66.9258 7.12891 66.8711 7.12891C66.7773 7.12891 66.7031 7.10938 66.6484 7.07031C66.6016 7.03125 66.5625 6.98438 66.5312 6.92969C66.5078 6.86719 66.4883 6.80469 66.4727 6.74219C66.457 6.67188 66.4375 6.60547 66.4141 6.54297C66.3281 6.29297 66.2422 6.01562 66.1562 5.71094C66.0703 5.40625 65.9844 5.13672 65.8984 4.90234C65.8594 4.80859 65.793 4.69922 65.6992 4.57422C65.6133 4.44922 65.5117 4.32422 65.3945 4.19922C65.2852 4.06641 65.1758 3.94531 65.0664 3.83594C64.957 3.71875 64.8672 3.61719 64.7969 3.53125C64.7188 3.42969 64.6445 3.3125 64.5742 3.17969C64.5039 3.03906 64.4141 2.9375 64.3047 2.875C64.2188 2.82812 64.1172 2.78125 64 2.73438C63.8828 2.67969 63.7617 2.62891 63.6367 2.58203C63.5117 2.53516 63.3867 2.49609 63.2617 2.46484C63.1445 2.43359 63.0391 2.41797 62.9453 2.41797C62.75 2.41797 62.5586 2.45703 62.3711 2.53516C62.1836 2.60547 61.9883 2.66797 61.7852 2.72266C61.7773 2.72266 61.7539 2.72656 61.7148 2.73438C61.6836 2.74219 61.6445 2.75 61.5977 2.75781C61.5508 2.76563 61.5078 2.77344 61.4688 2.78125C61.4297 2.78906 61.3984 2.79297 61.375 2.79297H61.082C61.0742 2.80078 61.0547 2.81641 61.0234 2.83984C60.9922 2.86328 60.9531 2.89062 60.9062 2.92188C60.8672 2.95313 60.8281 2.98437 60.7891 3.01562C60.75 3.04688 60.7227 3.07422 60.707 3.09766C60.4961 3.28516 60.3242 3.46094 60.1914 3.625C60.0586 3.78906 59.9531 3.96094 59.875 4.14062C59.8047 4.3125 59.7539 4.50391 59.7227 4.71484C59.6914 4.92578 59.6758 5.17188 59.6758 5.45312C59.6758 5.51562 59.6797 5.60156 59.6875 5.71094C59.6953 5.82031 59.707 5.9375 59.7227 6.0625C59.7383 6.17969 59.7578 6.28906 59.7812 6.39062C59.8125 6.49219 59.8516 6.56641 59.8984 6.61328L60.8594 7.53906C60.8828 7.55469 60.9141 7.57422 60.9531 7.59766C60.9922 7.62109 61.0352 7.64453 61.082 7.66797C61.1289 7.69141 61.1719 7.71094 61.2109 7.72656C61.25 7.74219 61.2773 7.75391 61.293 7.76172C61.3008 7.76953 61.3242 7.78906 61.3633 7.82031C61.4102 7.85156 61.457 7.88281 61.5039 7.91406C61.5586 7.94531 61.6055 7.97656 61.6445 8.00781C61.6914 8.03125 61.7188 8.04688 61.7266 8.05469C61.8828 8.15625 62.0508 8.23828 62.2305 8.30078C62.4102 8.35547 62.582 8.42578 62.7461 8.51172C62.7695 8.51953 62.8125 8.53906 62.875 8.57031C62.9453 8.59375 63.0156 8.62109 63.0859 8.65234C63.1562 8.68359 63.2227 8.71484 63.2852 8.74609C63.3555 8.76953 63.4023 8.78906 63.4258 8.80469C63.4336 8.80469 63.4648 8.82031 63.5195 8.85156C63.5742 8.88281 63.6328 8.91797 63.6953 8.95703C63.7656 8.98828 63.8281 9.01953 63.8828 9.05078C63.9453 9.07422 63.9883 9.08984 64.0117 9.09766C64.0195 9.09766 64.0469 9.10156 64.0938 9.10938C64.1406 9.10938 64.1914 9.11328 64.2461 9.12109C64.3008 9.12891 64.3516 9.14062 64.3984 9.15625C64.4531 9.16406 64.4883 9.17188 64.5039 9.17969C64.5195 9.17969 64.5547 9.19922 64.6094 9.23828C64.6719 9.27734 64.707 9.30078 64.7148 9.30859C64.7461 9.32422 64.7969 9.35156 64.8672 9.39062C64.9453 9.42188 65.0234 9.45703 65.1016 9.49609C65.1797 9.53516 65.2539 9.57422 65.3242 9.61328C65.3945 9.64453 65.4414 9.66797 65.4648 9.68359C65.8633 9.87109 66.2305 10.125 66.5664 10.4453C66.9102 10.7656 67.2031 11.1289 67.4453 11.5352C67.6953 11.9414 67.8906 12.3711 68.0312 12.8242C68.1719 13.2695 68.2422 13.7148 68.2422 14.1602V14.2891C68.2344 14.3672 68.2227 14.4766 68.207 14.6172C68.1992 14.75 68.1875 14.8867 68.1719 15.0273C68.1562 15.168 68.1406 15.293 68.125 15.4023C68.1094 15.5117 68.0977 15.5742 68.0898 15.5898C68.0586 15.7617 68.0117 15.9219 67.9492 16.0703C67.8867 16.2109 67.8086 16.3477 67.7148 16.4805C67.6289 16.6133 67.5352 16.7461 67.4336 16.8789C67.3398 17.0117 67.2422 17.1484 67.1406 17.2891C67.1406 17.2969 67.1328 17.3164 67.1172 17.3477C67.1016 17.3711 67.0859 17.3984 67.0703 17.4297C67.0547 17.4609 67.0352 17.4922 67.0117 17.5234C66.9961 17.5547 66.9883 17.5742 66.9883 17.582C66.9336 17.6836 66.8438 17.7617 66.7188 17.8164C66.6016 17.8711 66.5 17.9297 66.4141 17.9922C66.4062 18.0078 66.3828 18.0352 66.3438 18.0742C66.3125 18.1133 66.2773 18.1562 66.2383 18.2031C66.1992 18.2422 66.1602 18.2812 66.1211 18.3203C66.0898 18.3516 66.0703 18.3672 66.0625 18.3672C65.9219 18.4609 65.7852 18.5352 65.6523 18.5898C65.5195 18.6445 65.3828 18.6914 65.2422 18.7305C65.1016 18.7695 64.957 18.8086 64.8086 18.8477C64.668 18.8789 64.5156 18.918 64.3516 18.9648C64.1953 19.0117 64.0547 19.0586 63.9297 19.1055C63.8125 19.1523 63.668 19.1758 63.4961 19.1758H63.2617C63.1602 19.168 62.9805 19.1484 62.7227 19.1172C62.4648 19.0938 62.1914 19.0664 61.9023 19.0352C61.6211 19.0039 61.3516 18.9766 61.0938 18.9531C60.8438 18.9219 60.668 18.8984 60.5664 18.8828ZM74.7526 9.80078H74.3424C74.2409 9.80078 74.1354 9.80469 74.026 9.8125C73.9245 9.82031 73.8268 9.84375 73.7331 9.88281C73.6393 9.91406 73.5573 9.96094 73.487 10.0234C73.4167 10.0859 73.362 10.1719 73.3229 10.2812C73.3151 10.3047 73.3034 10.3398 73.2878 10.3867C73.2721 10.4336 73.2565 10.4805 73.2409 10.5273C73.2253 10.5742 73.2096 10.6172 73.194 10.6562C73.1862 10.6875 73.1823 10.707 73.1823 10.7148V16.7148C73.1823 16.7305 73.2018 16.7773 73.2409 16.8555C73.2799 16.9258 73.3073 16.9766 73.3229 17.0078C73.3776 17.0938 73.4284 17.1562 73.4753 17.1953C73.5299 17.2266 73.5807 17.25 73.6276 17.2656C73.6823 17.2812 73.737 17.2969 73.7917 17.3125C73.8542 17.3203 73.9206 17.3438 73.9909 17.3828C74.1003 17.4375 74.2135 17.5039 74.3307 17.582C74.4479 17.6602 74.5651 17.7383 74.6823 17.8164C74.7995 17.8945 74.9167 17.9688 75.0339 18.0391C75.151 18.1016 75.2682 18.1523 75.3854 18.1914H75.444C75.7956 18.1914 76.1198 18.1445 76.4167 18.0508C76.7214 17.9492 76.9635 17.7539 77.1432 17.4648C77.1589 17.4336 77.1979 17.3633 77.2604 17.2539C77.3307 17.1445 77.4049 17.0273 77.4831 16.9023C77.5612 16.7773 77.6315 16.6602 77.694 16.5508C77.7565 16.4414 77.7956 16.3711 77.8112 16.3398C77.8112 16.332 77.8307 16.2969 77.8698 16.2344C77.9089 16.1719 77.9362 16.1367 77.9518 16.1289C77.9674 16.0977 77.9909 16.0547 78.0221 16C78.0534 15.9375 78.0846 15.875 78.1159 15.8125C78.1471 15.75 78.1745 15.6953 78.1979 15.6484C78.2292 15.5938 78.2487 15.5625 78.2565 15.5547C78.2799 15.5 78.2956 15.418 78.3034 15.3086C78.319 15.1914 78.3346 15.0781 78.3503 14.9688C78.3659 14.8594 78.3893 14.7617 78.4206 14.6758C78.4518 14.582 78.4909 14.5273 78.5378 14.5117V13.8672C78.5456 13.8594 78.5534 13.8359 78.5612 13.7969C78.569 13.7578 78.5729 13.7188 78.5729 13.6797C78.5807 13.6328 78.5885 13.5938 78.5964 13.5625C78.6042 13.5234 78.612 13.5 78.6198 13.4922V13.4453V13.4336C78.6042 13.4102 78.5885 13.3711 78.5729 13.3164C78.5651 13.2617 78.5534 13.2188 78.5378 13.1875L78.4909 13.1172C78.4753 13.0938 78.4635 13.0742 78.4557 13.0586C78.4401 12.9336 78.4245 12.8203 78.4089 12.7188C78.401 12.6094 78.3698 12.5 78.3151 12.3906C78.2839 12.3203 78.237 12.2266 78.1745 12.1094C78.112 11.9844 78.0495 11.8633 77.987 11.7461C77.9245 11.6289 77.8659 11.5273 77.8112 11.4414C77.7643 11.3477 77.737 11.293 77.7292 11.2773C77.7057 11.2461 77.6589 11.1953 77.5885 11.125C77.526 11.0547 77.4557 10.9844 77.3776 10.9141C77.2995 10.8359 77.2253 10.7617 77.1549 10.6914C77.0846 10.6211 77.0339 10.5742 77.0026 10.5508C76.987 10.5352 76.9479 10.5117 76.8854 10.4805C76.8229 10.4414 76.7526 10.4023 76.6745 10.3633C76.5964 10.3242 76.5182 10.2891 76.4401 10.2578C76.3698 10.2266 76.3151 10.207 76.276 10.1992C76.2135 10.1758 76.1237 10.1445 76.0065 10.1055C75.8971 10.0586 75.7839 10.0156 75.6667 9.97656C75.5495 9.9375 75.4401 9.90234 75.3385 9.87109C75.2448 9.83984 75.1901 9.82422 75.1745 9.82422C75.1198 9.82422 75.0651 9.82031 75.0104 9.8125C74.9635 9.8125 74.9167 9.8125 74.8698 9.8125C74.8229 9.80469 74.7839 9.80078 74.7526 9.80078ZM69.5143 25.7383C69.4206 25.7148 69.3385 25.6758 69.2682 25.6211C69.1901 25.5664 69.151 25.4805 69.151 25.3633C69.151 25.3086 69.1862 25.2422 69.2565 25.1641C69.3268 25.0859 69.3932 25.0469 69.4557 25.0469H70.6979C70.7135 25.0469 70.7565 25.0039 70.8268 24.918C70.8971 24.832 70.9518 24.7617 70.9909 24.707C71.0065 24.6914 71.0221 24.6328 71.0378 24.5312C71.0612 24.4375 71.0729 24.3711 71.0729 24.332V20.5117C71.0729 20.4961 71.0807 20.4414 71.0964 20.3477C71.1198 20.2539 71.1315 20.1914 71.1315 20.1602V20.125V20.0781C71.1315 20.0547 71.1276 20.0156 71.1198 19.9609C71.112 19.9062 71.1042 19.8477 71.0964 19.7852C71.0964 19.7305 71.0924 19.6758 71.0846 19.6211C71.0768 19.5664 71.0729 19.5312 71.0729 19.5156V14.4297C71.0729 14.4219 71.0807 14.3711 71.0964 14.2773C71.112 14.1836 71.1237 14.1172 71.1315 14.0781C71.1315 14.0625 71.1432 14.0273 71.1667 13.9727C71.1979 13.9102 71.2135 13.875 71.2135 13.8672V13.8203V13.7969C71.1979 13.7656 71.1745 13.7148 71.1432 13.6445C71.112 13.5742 71.0885 13.5234 71.0729 13.4922V10.7148C71.0729 10.6914 71.0651 10.6602 71.0495 10.6211C71.0417 10.582 71.026 10.5391 71.0026 10.4922C70.987 10.4453 70.9674 10.4023 70.944 10.3633C70.9284 10.3242 70.9128 10.2969 70.8971 10.2812C70.8503 10.1953 70.7643 10.1328 70.6393 10.0938C70.5221 10.0469 70.401 10.0078 70.276 9.97656C70.151 9.9375 70.0378 9.89453 69.9362 9.84766C69.8424 9.79297 69.7956 9.71484 69.7956 9.61328C69.7956 9.55078 69.8034 9.50781 69.819 9.48438C69.8424 9.46094 69.8854 9.42969 69.9479 9.39062C70.0182 9.32812 70.0885 9.29688 70.1589 9.29688C70.237 9.28906 70.319 9.26953 70.4049 9.23828C70.4284 9.23047 70.4831 9.21094 70.569 9.17969C70.6549 9.14062 70.7448 9.10156 70.8385 9.0625C70.9401 9.02344 71.0339 8.98438 71.1198 8.94531C71.2057 8.90625 71.2565 8.87891 71.2721 8.86328C71.3971 8.81641 71.5221 8.76562 71.6471 8.71094C71.7799 8.64844 71.9089 8.59375 72.0339 8.54688C72.1667 8.49219 72.2956 8.44531 72.4206 8.40625C72.5534 8.36719 72.6823 8.34766 72.8073 8.34766C72.9948 8.34766 73.112 8.40234 73.1589 8.51172C73.2135 8.62109 73.2448 8.74609 73.2526 8.88672C73.2604 9.01953 73.2682 9.14062 73.276 9.25C73.2839 9.35938 73.3385 9.41406 73.4401 9.41406C73.4479 9.41406 73.4635 9.41016 73.487 9.40234C73.5182 9.39453 73.5417 9.39062 73.5573 9.39062C73.6979 9.25781 73.8698 9.14062 74.0729 9.03906C74.276 8.92969 74.487 8.83594 74.7057 8.75781C74.9323 8.67188 75.1549 8.59766 75.3737 8.53516C75.5924 8.46484 75.7956 8.40234 75.9831 8.34766L76.0534 8.32422C76.0768 8.31641 76.0964 8.30469 76.112 8.28906C76.1198 8.28906 76.1432 8.29688 76.1823 8.3125C76.2214 8.32812 76.2604 8.34375 76.2995 8.35938C76.3385 8.375 76.3737 8.39062 76.4049 8.40625C76.444 8.42188 76.4674 8.42969 76.4753 8.42969C76.7018 8.50781 76.9245 8.57031 77.1432 8.61719C77.3698 8.65625 77.5924 8.71875 77.8112 8.80469C77.944 8.85156 78.0573 8.90625 78.151 8.96875C78.2448 9.03125 78.3307 9.09766 78.4089 9.16797C78.4948 9.23828 78.5807 9.3125 78.6667 9.39062C78.7604 9.46094 78.8698 9.53516 78.9948 9.61328C79.0026 9.62109 79.0456 9.62891 79.1237 9.63672C79.2018 9.64453 79.2487 9.65625 79.2643 9.67188C79.2799 9.67969 79.2956 9.71875 79.3112 9.78906C79.3346 9.85156 79.3503 9.89062 79.3581 9.90625C79.3581 9.92188 79.3776 9.94531 79.4167 9.97656C79.4635 10.0078 79.4909 10.0312 79.4987 10.0469C79.5221 10.0781 79.5612 10.1328 79.6159 10.2109C79.6706 10.2812 79.6979 10.3242 79.6979 10.3398C79.9635 10.8242 80.1901 11.3242 80.3776 11.8398C80.5651 12.3555 80.6589 12.8906 80.6589 13.4453C80.6589 14.4297 80.4674 15.2812 80.0846 16C79.7018 16.7109 79.112 17.3438 78.3151 17.8984C78.3073 17.8984 78.2839 17.9102 78.2448 17.9336C78.2135 17.9492 78.194 17.957 78.1862 17.957C77.7174 18.1289 77.2409 18.2852 76.7565 18.4258C76.2799 18.5586 75.7956 18.625 75.3034 18.625C75.1003 18.625 74.8971 18.6133 74.694 18.5898C74.4987 18.5586 74.2917 18.543 74.0729 18.543H73.6979C73.612 18.6133 73.5417 18.7031 73.487 18.8125C73.4401 18.9219 73.4167 19.0312 73.4167 19.1406V24.6484C73.4167 24.6719 73.4284 24.6992 73.4518 24.7305C73.4831 24.7695 73.5143 24.8086 73.5456 24.8477C73.5846 24.8867 73.6159 24.9219 73.6393 24.9531C73.6706 24.9844 73.6901 25 73.6979 25C73.7604 25.0312 73.8424 25.0469 73.944 25.0469C74.0534 25.0547 74.1745 25.0586 74.3073 25.0586C74.4557 25.0586 74.612 25.0586 74.776 25.0586C74.9401 25.0664 75.0885 25.082 75.2214 25.1055C75.3542 25.1367 75.4635 25.1836 75.5495 25.2461C75.6354 25.3086 75.6784 25.3984 75.6784 25.5156C75.6784 25.5703 75.6549 25.6211 75.6081 25.668C75.569 25.7227 75.5221 25.7695 75.4674 25.8086C75.4128 25.8555 75.3542 25.8906 75.2917 25.9141C75.2292 25.9375 75.1823 25.9492 75.151 25.9492C75.0339 25.9492 74.9206 25.9297 74.8112 25.8906C74.7018 25.8516 74.6003 25.8242 74.5065 25.8086H74.3424H73.9323C73.9089 25.8086 73.8464 25.8047 73.7448 25.7969C73.651 25.7891 73.5495 25.7812 73.4401 25.7734C73.3385 25.7656 73.2409 25.7578 73.1471 25.75C73.0612 25.7422 73.0065 25.7383 72.9831 25.7383H69.5143ZM81.4388 18.7891C81.4388 18.6797 81.4701 18.5898 81.5326 18.5195C81.5951 18.4414 81.6693 18.3789 81.7552 18.332C81.849 18.2852 81.9466 18.2539 82.0482 18.2383C82.1497 18.2148 82.2435 18.1992 82.3294 18.1914H82.9974C83.0833 18.1523 83.1458 18.0938 83.1849 18.0156C83.224 17.9297 83.2474 17.8359 83.2552 17.7344C83.2708 17.6328 83.2786 17.5312 83.2786 17.4297C83.2786 17.3203 83.2826 17.2266 83.2904 17.1484C83.2982 17.1406 83.306 17.125 83.3138 17.1016C83.3216 17.0859 83.3294 17.0703 83.3372 17.0547C83.3451 17.0391 83.3568 17.0234 83.3724 17.0078C83.388 16.9922 83.3997 16.957 83.4076 16.9023C83.4232 16.8477 83.431 16.8125 83.431 16.7969V13.7266C83.431 13.7031 83.4427 13.6523 83.4661 13.5742C83.4974 13.4961 83.513 13.4492 83.513 13.4336V13.3867C83.513 13.2695 83.4974 13.1523 83.4661 13.0352C83.4427 12.918 83.431 12.793 83.431 12.6602C83.431 12.5039 83.4427 12.3594 83.4661 12.2266C83.4974 12.0859 83.513 11.9414 83.513 11.793V11.6758C83.513 11.6289 83.5091 11.5664 83.5013 11.4883C83.4935 11.4023 83.4818 11.3164 83.4661 11.2305C83.4583 11.1367 83.4505 11.0586 83.4427 10.9961C83.4349 10.9258 83.431 10.8828 83.431 10.8672C83.4076 10.7031 83.3021 10.5938 83.1146 10.5391C82.9271 10.4844 82.724 10.4414 82.5052 10.4102C82.2943 10.3789 82.099 10.3438 81.9193 10.3047C81.7474 10.2578 81.6615 10.1641 81.6615 10.0234C81.6615 9.92188 81.7435 9.83203 81.9076 9.75391C82.0716 9.66797 82.2591 9.59375 82.4701 9.53125C82.681 9.46875 82.888 9.41406 83.0911 9.36719C83.2943 9.32031 83.4349 9.28125 83.513 9.25C83.5286 9.24219 83.5638 9.22266 83.6185 9.19141C83.6732 9.16016 83.7318 9.12891 83.7943 9.09766C83.8568 9.06641 83.9154 9.03906 83.9701 9.01562C84.0326 8.98438 84.0755 8.96484 84.099 8.95703C84.1068 8.95703 84.1341 8.94922 84.181 8.93359C84.2357 8.91797 84.2904 8.90234 84.3451 8.88672C84.4076 8.86328 84.4622 8.84375 84.5091 8.82812C84.5638 8.8125 84.599 8.80469 84.6146 8.80469C84.6146 8.80469 84.6302 8.80078 84.6615 8.79297C84.7005 8.77734 84.7396 8.76172 84.7786 8.74609C84.8177 8.73047 84.8568 8.71484 84.8958 8.69922C84.9349 8.68359 84.9583 8.67188 84.9661 8.66406H85.0013H85.0482C85.2044 8.72656 85.3138 8.78906 85.3763 8.85156C85.4466 8.90625 85.4818 9.02734 85.4818 9.21484C85.4818 9.31641 85.4701 9.41797 85.4466 9.51953C85.431 9.61328 85.4232 9.70312 85.4232 9.78906V10C85.4232 10.1016 85.431 10.1953 85.4466 10.2812C85.4701 10.3594 85.5247 10.4297 85.6107 10.4922H85.6693C85.763 10.4922 85.8568 10.4531 85.9505 10.375C86.0521 10.2969 86.1497 10.207 86.2435 10.1055C86.3372 9.99609 86.4232 9.89062 86.5013 9.78906C86.5872 9.67969 86.6615 9.59375 86.724 9.53125C86.9193 9.375 87.1224 9.23828 87.3333 9.12109C87.5443 9.00391 87.7591 8.87109 87.9779 8.72266C88.0013 8.73828 88.0404 8.74609 88.0951 8.74609C88.181 8.74609 88.2826 8.73438 88.3997 8.71094C88.5169 8.67969 88.6185 8.66406 88.7044 8.66406C88.8294 8.66406 88.9583 8.68359 89.0911 8.72266C89.224 8.75391 89.3411 8.80859 89.4427 8.88672C89.5521 8.95703 89.638 9.04688 89.7005 9.15625C89.7708 9.26562 89.806 9.39062 89.806 9.53125V9.68359C89.7826 9.84766 89.763 10.0078 89.7474 10.1641C89.7396 10.3125 89.7122 10.4453 89.6654 10.5625C89.6185 10.6797 89.5404 10.7734 89.431 10.8438C89.3216 10.9141 89.1576 10.9492 88.9388 10.9492H88.8451C88.8216 10.9414 88.7865 10.9336 88.7396 10.9258C88.6927 10.9102 88.6458 10.8984 88.599 10.8906C88.5521 10.8828 88.5091 10.8789 88.4701 10.8789C88.4388 10.8711 88.4193 10.8672 88.4115 10.8672C88.4036 10.8594 88.3841 10.8438 88.3529 10.8203C88.3294 10.7969 88.3021 10.7734 88.2708 10.75C88.2396 10.7188 88.2083 10.6914 88.1771 10.668C88.1536 10.6445 88.138 10.6328 88.1302 10.6328H87.9544H87.5208C87.513 10.6328 87.4857 10.6289 87.4388 10.6211C87.3919 10.6133 87.3372 10.6094 87.2747 10.6094C87.2201 10.6016 87.1654 10.5938 87.1107 10.5859C87.0638 10.5781 87.0365 10.5742 87.0286 10.5742H86.9583C86.8411 10.5742 86.7083 10.5859 86.5599 10.6094C86.4193 10.6328 86.2786 10.6758 86.138 10.7383C85.9974 10.793 85.8724 10.8672 85.763 10.9609C85.6536 11.0469 85.5833 11.1602 85.5521 11.3008C85.5677 12.1289 85.5599 12.9531 85.5286 13.7734C85.4974 14.5938 85.4818 15.418 85.4818 16.2461C85.4818 16.3164 85.4779 16.4102 85.4701 16.5273C85.4622 16.6367 85.4583 16.7578 85.4583 16.8906C85.4583 17.0234 85.4622 17.1602 85.4701 17.3008C85.4857 17.4414 85.5091 17.5742 85.5404 17.6992C85.5716 17.8164 85.6146 17.9219 85.6693 18.0156C85.7318 18.1016 85.8138 18.1602 85.9154 18.1914C85.9466 18.1914 86.0013 18.1875 86.0794 18.1797C86.1654 18.1719 86.2591 18.168 86.3607 18.168C86.4622 18.168 86.5521 18.1719 86.6302 18.1797C86.7083 18.1875 86.763 18.1914 86.7943 18.1914C86.9271 18.207 87.0365 18.25 87.1224 18.3203C87.2083 18.3828 87.2513 18.4727 87.2513 18.5898C87.2513 18.6992 87.2396 18.7812 87.2161 18.8359C87.1927 18.8906 87.1576 18.9297 87.1107 18.9531C87.0638 18.9688 87.0052 18.9805 86.9349 18.9883C86.8724 18.9883 86.8021 18.9922 86.724 19C86.7161 19 86.6888 19.0156 86.6419 19.0469C86.6185 19.0625 86.599 19.0742 86.5833 19.082H86.5365C86.224 19.082 85.8802 19.0703 85.5052 19.0469C85.1302 19.0234 84.7747 18.9805 84.4388 18.918H84.4154C84.3372 18.918 84.263 18.9336 84.1927 18.9648C84.1224 18.9883 84.0521 19 83.9818 19C83.9115 19 83.8451 18.9883 83.7826 18.9648C83.7279 18.9336 83.6693 18.918 83.6068 18.918H83.5716C83.3529 18.9805 83.1263 19.0234 82.8919 19.0469C82.6654 19.0703 82.4388 19.082 82.2122 19.082H82.0482C81.9232 19.082 81.7904 19.0664 81.6497 19.0352C81.5091 19.0039 81.4388 18.9219 81.4388 18.7891ZM92.6133 11.4766C92.6133 11.4922 92.6211 11.5117 92.6367 11.5352C92.6602 11.5508 92.6797 11.5586 92.6953 11.5586C92.7188 11.5664 92.7539 11.5742 92.8008 11.582C92.8477 11.5898 92.8984 11.5977 92.9531 11.6055C93.0078 11.6133 93.0586 11.6211 93.1055 11.6289C93.1523 11.6367 93.1836 11.6406 93.1992 11.6406H96.2578C96.3906 11.6406 96.5195 11.6055 96.6445 11.5352C96.7773 11.457 96.8438 11.3398 96.8438 11.1836C96.8438 10.9727 96.8086 10.7695 96.7383 10.5742C96.6758 10.3711 96.5859 10.1836 96.4688 10.0117C96.3516 9.83203 96.2109 9.67578 96.0469 9.54297C95.8906 9.40234 95.7188 9.29297 95.5312 9.21484C95.4453 9.17578 95.3789 9.13281 95.332 9.08594C95.2852 9.03125 95.2109 9.00391 95.1094 9.00391C94.8516 9.00391 94.5742 9.07031 94.2773 9.20312C93.9883 9.33594 93.7188 9.50781 93.4688 9.71875C93.2188 9.92969 93.0078 10.168 92.8359 10.4336C92.6719 10.6914 92.5898 10.9492 92.5898 11.207C92.5898 11.2383 92.5938 11.2891 92.6016 11.3594C92.6094 11.4219 92.6133 11.4609 92.6133 11.4766ZM90.4336 13.9844C90.3945 13.9297 90.3672 13.8711 90.3516 13.8086C90.3359 13.7383 90.3281 13.6719 90.3281 13.6094C90.3281 13.5469 90.332 13.4922 90.3398 13.4453C90.3477 13.3906 90.3516 13.3438 90.3516 13.3047V12.9414C90.3516 12.9258 90.3594 12.8906 90.375 12.8359C90.3906 12.7734 90.4102 12.707 90.4336 12.6367C90.457 12.5664 90.4805 12.5 90.5039 12.4375C90.5273 12.3672 90.5469 12.3164 90.5625 12.2852C90.5625 12.2695 90.5859 12.2344 90.6328 12.1797C90.6797 12.1172 90.7031 12.082 90.7031 12.0742C90.7578 11.8945 90.793 11.7148 90.8086 11.5352C90.8242 11.3555 90.8867 11.1914 90.9961 11.043C91.0117 11.0273 91.0391 10.9961 91.0781 10.9492C91.125 10.8945 91.1719 10.8398 91.2188 10.7852C91.2734 10.7227 91.3203 10.668 91.3594 10.6211C91.4062 10.5742 91.4375 10.5469 91.4531 10.5391C91.4688 10.5156 91.4922 10.4648 91.5234 10.3867C91.5547 10.3008 91.5781 10.25 91.5938 10.2344C91.6406 10.1562 91.7188 10.0898 91.8281 10.0352C91.9453 9.97266 92.0352 9.91406 92.0977 9.85938C92.1992 9.78125 92.2969 9.69531 92.3906 9.60156C92.4922 9.5 92.5898 9.40234 92.6836 9.30859C92.7852 9.20703 92.8867 9.11719 92.9883 9.03906C93.0977 8.95312 93.2148 8.88672 93.3398 8.83984C93.5195 8.77734 93.707 8.72656 93.9023 8.6875C94.0977 8.64844 94.2852 8.62891 94.4648 8.62891C94.6992 8.62891 94.957 8.63281 95.2383 8.64062C95.5195 8.64844 95.7617 8.66797 95.9648 8.69922C96.1133 8.72266 96.3008 8.78125 96.5273 8.875C96.7539 8.96875 96.9766 9.08203 97.1953 9.21484C97.4219 9.33984 97.6289 9.47656 97.8164 9.625C98.0039 9.76562 98.1406 9.89844 98.2266 10.0234C98.3047 10.1406 98.3945 10.2773 98.4961 10.4336C98.5977 10.5898 98.6914 10.7578 98.7773 10.9375C98.8711 11.1094 98.9492 11.2812 99.0117 11.4531C99.0742 11.6172 99.1055 11.7695 99.1055 11.9102C99.1055 12.1367 99.0078 12.3086 98.8125 12.4258C98.7578 12.4258 98.6562 12.4297 98.5078 12.4375C98.3672 12.4453 98.2148 12.457 98.0508 12.4727C97.8867 12.4805 97.7305 12.4883 97.582 12.4961C97.4336 12.5039 97.332 12.5078 97.2773 12.5078H96.3984C96.0234 12.5078 95.6602 12.4883 95.3086 12.4492C94.957 12.4102 94.5977 12.3828 94.2305 12.3672H93.6328C93.6172 12.3672 93.5703 12.3555 93.4922 12.332C93.4141 12.3008 93.3633 12.2852 93.3398 12.2852C93.3086 12.2773 93.2539 12.2695 93.1758 12.2617C93.1055 12.2461 93.0273 12.2305 92.9414 12.2148C92.8555 12.1992 92.7734 12.1875 92.6953 12.1797C92.6172 12.1641 92.5625 12.1523 92.5312 12.1445C92.4688 12.1602 92.4023 12.1992 92.332 12.2617C92.2695 12.3164 92.2188 12.3711 92.1797 12.4258C92.1719 12.4492 92.1641 12.4961 92.1562 12.5664C92.1484 12.6289 92.1406 12.7031 92.1328 12.7891C92.125 12.8672 92.1172 12.9453 92.1094 13.0234C92.1016 13.0938 92.0977 13.1445 92.0977 13.1758V13.1875V13.2344C92.1055 13.2578 92.1172 13.2812 92.1328 13.3047C92.1484 13.3594 92.1641 13.3867 92.1797 13.3867C92.1797 13.4023 92.2031 13.4414 92.25 13.5039C92.2969 13.5586 92.3203 13.5938 92.3203 13.6094C92.3047 13.625 92.293 13.6445 92.2852 13.668L92.2617 13.7383V13.9258C92.2617 14.0352 92.2734 14.1289 92.2969 14.207C92.3281 14.2773 92.3633 14.3711 92.4023 14.4883C92.4883 14.8086 92.5938 15.1055 92.7188 15.3789C92.8438 15.6523 93.0039 15.9336 93.1992 16.2227C93.2617 16.3242 93.3242 16.3867 93.3867 16.4102C93.457 16.4336 93.5391 16.4688 93.6328 16.5156C93.6484 16.5312 93.6836 16.5547 93.7383 16.5859C93.8008 16.6172 93.8398 16.6406 93.8555 16.6562C94.1602 16.9141 94.4883 17.1133 94.8398 17.2539C95.1914 17.3945 95.5703 17.4648 95.9766 17.4648C96.0469 17.4648 96.1055 17.457 96.1523 17.4414C96.1992 17.418 96.2422 17.3945 96.2812 17.3711C96.3281 17.3477 96.3711 17.3242 96.4102 17.3008C96.4492 17.2773 96.4961 17.2578 96.5508 17.2422H96.9023C97.0273 17.2266 97.1484 17.1992 97.2656 17.1602C97.3828 17.1133 97.4961 17.0703 97.6055 17.0312C97.7227 16.9844 97.8398 16.9453 97.957 16.9141C98.0742 16.875 98.1953 16.8555 98.3203 16.8555C98.3203 16.9102 98.3164 16.9531 98.3086 16.9844C98.3086 17.0078 98.3008 17.0312 98.2852 17.0547C98.2773 17.0781 98.2617 17.1055 98.2383 17.1367C98.2227 17.1602 98.1992 17.1953 98.168 17.2422C98.0508 17.4297 97.9375 17.582 97.8281 17.6992C97.7266 17.8086 97.6172 17.9062 97.5 17.9922C97.3828 18.0781 97.25 18.1602 97.1016 18.2383C96.9609 18.3086 96.7969 18.3906 96.6094 18.4844C96.5547 18.5156 96.5117 18.5469 96.4805 18.5781C96.4492 18.6016 96.4141 18.625 96.375 18.6484C96.3438 18.6719 96.3047 18.6953 96.2578 18.7188C96.2188 18.7422 96.1641 18.7656 96.0938 18.7891C96.0625 18.7969 96.0195 18.8008 95.9648 18.8008C95.9102 18.8008 95.8555 18.8086 95.8008 18.8242C95.7461 18.832 95.6914 18.8516 95.6367 18.8828C95.5898 18.9062 95.5547 18.9453 95.5312 19H94.7578C94.25 19 93.7812 18.9492 93.3516 18.8477C92.9297 18.7461 92.5117 18.5273 92.0977 18.1914C91.7461 17.918 91.457 17.582 91.2305 17.1836C91.0117 16.7852 90.8359 16.3672 90.7031 15.9297C90.6875 15.9141 90.6758 15.8945 90.668 15.8711C90.6523 15.8242 90.6445 15.7891 90.6445 15.7656C90.6211 15.7266 90.5977 15.6719 90.5742 15.6016C90.5508 15.5312 90.5273 15.4609 90.5039 15.3906C90.4883 15.3203 90.4727 15.2617 90.457 15.2148C90.4414 15.1602 90.4336 15.1289 90.4336 15.1211C90.418 15.082 90.4062 15.0078 90.3984 14.8984C90.3906 14.7812 90.3867 14.6641 90.3867 14.5469C90.3867 14.4297 90.3906 14.3164 90.3984 14.207C90.4062 14.0977 90.418 14.0234 90.4336 13.9844ZM101.772 16.1406C101.772 16.2812 101.792 16.4219 101.831 16.5625C101.878 16.7031 101.94 16.832 102.018 16.9492C102.096 17.0586 102.194 17.1484 102.311 17.2188C102.428 17.2891 102.565 17.3242 102.721 17.3242C102.948 17.3242 103.174 17.3164 103.401 17.3008C103.635 17.2852 103.854 17.2344 104.057 17.1484C104.237 17.1016 104.401 17.0312 104.549 16.9375C104.698 16.8359 104.85 16.7422 105.007 16.6562C105.053 16.3672 105.081 16.1133 105.089 15.8945C105.096 15.6758 105.1 15.4297 105.1 15.1562C105.1 14.9062 105.096 14.6797 105.089 14.4766C105.081 14.2656 105.053 14.0391 105.007 13.7969H104.866C104.733 13.7969 104.608 13.8164 104.491 13.8555C104.374 13.8867 104.257 13.9297 104.139 13.9844C104.03 14.0312 103.921 14.082 103.811 14.1367C103.71 14.1914 103.6 14.2422 103.483 14.2891C103.374 14.3438 103.284 14.3828 103.214 14.4062C103.151 14.4219 103.065 14.4648 102.956 14.5352C102.839 14.6211 102.71 14.7227 102.569 14.8398C102.436 14.957 102.311 15.0859 102.194 15.2266C102.077 15.3672 101.975 15.5156 101.889 15.6719C101.811 15.8203 101.772 15.9766 101.772 16.1406ZM100.096 16.6562C100.096 16.3906 100.155 16.1328 100.272 15.8828C100.397 15.6328 100.557 15.4023 100.753 15.1914C100.948 14.9805 101.163 14.793 101.397 14.6289C101.632 14.4648 101.862 14.332 102.089 14.2305C102.096 14.2305 102.12 14.2227 102.159 14.207C102.206 14.1914 102.253 14.1797 102.299 14.1719C102.346 14.1562 102.389 14.1406 102.428 14.125C102.475 14.1094 102.507 14.1016 102.522 14.1016C102.53 14.0938 102.553 14.0781 102.592 14.0547C102.639 14.0234 102.686 13.9922 102.733 13.9609C102.78 13.9219 102.823 13.8867 102.862 13.8555C102.909 13.8242 102.94 13.8047 102.956 13.7969C103.214 13.6406 103.499 13.5156 103.811 13.4219C104.132 13.3203 104.436 13.2305 104.725 13.1523C104.874 13.0977 104.999 13.043 105.1 12.9883C105.202 12.9336 105.268 12.8125 105.299 12.625C105.299 12.6172 105.303 12.5898 105.311 12.543C105.319 12.4883 105.327 12.4258 105.335 12.3555C105.342 12.2852 105.35 12.2148 105.358 12.1445C105.366 12.0664 105.37 12.0078 105.37 11.9688V11.9336V11.875C105.37 11.8047 105.366 11.7148 105.358 11.6055C105.35 11.4883 105.342 11.3789 105.335 11.2773C105.327 11.168 105.319 11.0742 105.311 10.9961C105.303 10.918 105.299 10.875 105.299 10.8672C105.268 10.6875 105.202 10.5156 105.1 10.3516C105.007 10.1797 104.885 10.0312 104.737 9.90625C104.589 9.77344 104.424 9.66797 104.245 9.58984C104.065 9.51172 103.878 9.47266 103.682 9.47266C103.51 9.47266 103.342 9.49219 103.178 9.53125C103.022 9.5625 102.882 9.62109 102.757 9.70703C102.639 9.78516 102.538 9.89062 102.452 10.0234C102.374 10.1484 102.323 10.3047 102.299 10.4922C102.284 10.6328 102.272 10.7773 102.264 10.9258C102.264 11.0742 102.206 11.1992 102.089 11.3008C102.065 11.3242 102.03 11.3594 101.983 11.4062C101.936 11.4453 101.885 11.4844 101.831 11.5234C101.784 11.5625 101.741 11.5977 101.702 11.6289C101.663 11.6523 101.639 11.668 101.632 11.6758C101.569 11.7227 101.483 11.7852 101.374 11.8633C101.272 11.9336 101.214 11.9688 101.198 11.9688H100.331C100.315 11.9688 100.288 11.9414 100.249 11.8867C100.217 11.8242 100.186 11.7734 100.155 11.7344C100.108 11.6328 100.073 11.5664 100.049 11.5352C100.034 11.4961 100.026 11.4258 100.026 11.3242V11.2422C100.151 10.9062 100.339 10.6211 100.589 10.3867C100.846 10.1445 101.124 9.9375 101.421 9.76562C101.428 9.76562 101.44 9.75391 101.456 9.73047C101.471 9.69922 101.487 9.68359 101.503 9.68359C101.885 9.34766 102.319 9.07031 102.803 8.85156C103.288 8.63281 103.796 8.52344 104.327 8.52344C104.499 8.52344 104.647 8.53125 104.772 8.54688C104.897 8.5625 105.014 8.58203 105.124 8.60547C105.241 8.62891 105.358 8.66016 105.475 8.69922C105.592 8.73047 105.729 8.76953 105.885 8.81641C106.104 8.97266 106.296 9.125 106.46 9.27344C106.624 9.42188 106.76 9.58203 106.87 9.75391C106.979 9.92578 107.061 10.1172 107.116 10.3281C107.178 10.5391 107.21 10.7773 107.21 11.043V11.0898C107.139 12.0273 107.061 12.9727 106.975 13.9258C106.889 14.8711 106.846 15.8086 106.846 16.7383C106.846 16.9883 106.893 17.2109 106.987 17.4062C107.081 17.5938 107.245 17.7305 107.479 17.8164H107.62C107.784 17.8164 107.932 17.8008 108.065 17.7695C108.206 17.7305 108.339 17.6836 108.464 17.6289C108.596 17.5664 108.729 17.5039 108.862 17.4414C108.995 17.3711 109.132 17.3047 109.272 17.2422V17.3828C109.272 17.5625 109.221 17.7031 109.12 17.8047C109.026 17.9062 108.924 18.0156 108.815 18.1328C108.807 18.1406 108.788 18.1602 108.757 18.1914C108.725 18.2227 108.694 18.2617 108.663 18.3086C108.632 18.3477 108.6 18.3867 108.569 18.4258C108.546 18.457 108.53 18.4766 108.522 18.4844C108.475 18.5469 108.421 18.5938 108.358 18.625C108.303 18.6484 108.233 18.6758 108.147 18.707C107.96 18.7852 107.741 18.8594 107.491 18.9297C107.249 18.9922 107.014 19.0234 106.788 19.0234C106.749 19.0234 106.71 19.0234 106.671 19.0234C106.632 19.0234 106.592 19.0156 106.553 19C106.514 18.9922 106.452 18.9766 106.366 18.9531C106.28 18.9297 106.19 18.9023 106.096 18.8711C106.003 18.8398 105.917 18.8086 105.839 18.7773C105.76 18.7461 105.706 18.7227 105.674 18.707C105.651 18.6914 105.6 18.6484 105.522 18.5781C105.444 18.5 105.393 18.4492 105.37 18.4258C105.339 18.3867 105.296 18.3125 105.241 18.2031C105.194 18.0859 105.139 17.9648 105.077 17.8398C105.022 17.7148 104.967 17.6055 104.913 17.5117C104.866 17.418 104.831 17.3711 104.807 17.3711C104.76 17.3711 104.706 17.4062 104.643 17.4766C104.581 17.5391 104.518 17.6133 104.456 17.6992C104.393 17.7852 104.335 17.8711 104.28 17.957C104.225 18.043 104.178 18.1016 104.139 18.1328C103.991 18.2578 103.854 18.375 103.729 18.4844C103.604 18.5859 103.475 18.6758 103.342 18.7539C103.21 18.832 103.065 18.8945 102.909 18.9414C102.76 18.9805 102.585 19 102.382 19C102.272 19 102.174 19 102.089 19C102.01 18.9922 101.936 18.9805 101.866 18.9648C101.796 18.9492 101.725 18.9258 101.655 18.8945C101.585 18.8633 101.507 18.8203 101.421 18.7656C101.171 18.6328 100.928 18.4805 100.694 18.3086C100.467 18.1367 100.323 17.9062 100.26 17.6172C100.206 17.4297 100.163 17.2617 100.132 17.1133C100.108 16.9648 100.096 16.8125 100.096 16.6562ZM113.79 17.6406C113.829 17.6484 113.904 17.6602 114.013 17.6758C114.122 17.6914 114.24 17.707 114.365 17.7227C114.49 17.7383 114.611 17.7539 114.728 17.7695C114.845 17.7852 114.927 17.7969 114.974 17.8047H115.056C115.275 17.8047 115.47 17.7891 115.642 17.7578C115.822 17.7188 116.013 17.6602 116.216 17.582C116.224 17.582 116.255 17.5703 116.31 17.5469C116.365 17.5156 116.396 17.5 116.404 17.5C116.435 17.4531 116.47 17.3945 116.509 17.3242C116.556 17.2539 116.599 17.1758 116.638 17.0898C116.677 17.0039 116.708 16.918 116.732 16.832C116.763 16.7383 116.779 16.6523 116.779 16.5742V16.5625C116.779 16.5312 116.775 16.4844 116.767 16.4219C116.767 16.3594 116.763 16.293 116.755 16.2227C116.747 16.1523 116.74 16.0859 116.732 16.0234C116.724 15.9609 116.716 15.918 116.708 15.8945V12.3672C116.708 12.3203 116.704 12.2344 116.697 12.1094C116.697 11.9766 116.693 11.8359 116.685 11.6875C116.677 11.5391 116.669 11.3984 116.661 11.2656C116.654 11.1328 116.65 11.0391 116.65 10.9844C116.65 10.9453 116.634 10.8906 116.603 10.8203C116.579 10.75 116.568 10.707 116.568 10.6914C116.513 10.5898 116.443 10.5117 116.357 10.457C116.271 10.4023 116.181 10.3594 116.087 10.3281C115.993 10.2891 115.9 10.2539 115.806 10.2227C115.712 10.1914 115.626 10.1445 115.548 10.082C115.275 9.90234 115.021 9.75391 114.786 9.63672C114.552 9.51172 114.267 9.44922 113.931 9.44922C113.822 9.44922 113.712 9.48047 113.603 9.54297C113.501 9.59766 113.4 9.66797 113.298 9.75391C113.204 9.83984 113.111 9.92969 113.017 10.0234C112.923 10.1172 112.833 10.1953 112.747 10.2578C112.732 10.2656 112.72 10.2734 112.712 10.2812C112.697 10.2969 112.689 10.3086 112.689 10.3164C112.486 10.582 112.31 10.8672 112.161 11.1719C112.013 11.4766 111.872 11.7773 111.74 12.0742C111.724 12.1055 111.708 12.1445 111.693 12.1914C111.677 12.2305 111.661 12.2695 111.646 12.3086C111.622 12.3555 111.603 12.4023 111.587 12.4492V14.0547C111.634 14.2109 111.658 14.3711 111.658 14.5352C111.665 14.6914 111.693 14.8555 111.74 15.0273C111.849 15.4961 112.025 15.8984 112.267 16.2344C112.509 16.5625 112.814 16.8867 113.181 17.207C113.283 17.293 113.376 17.3789 113.462 17.4648C113.548 17.5508 113.658 17.6094 113.79 17.6406ZM109.513 14.7461V14.7227C109.536 14.6758 109.564 14.6094 109.595 14.5234C109.634 14.4297 109.654 14.3516 109.654 14.2891C109.654 14.25 109.642 14.2109 109.618 14.1719C109.603 14.1328 109.595 14.082 109.595 14.0195C109.595 13.9023 109.618 13.7812 109.665 13.6562C109.712 13.5234 109.743 13.3867 109.759 13.2461C109.775 12.9023 109.814 12.5781 109.876 12.2734C109.947 11.9688 110.076 11.6641 110.263 11.3594C110.263 11.3438 110.271 11.3281 110.286 11.3125C110.31 11.2891 110.322 11.2734 110.322 11.2656C110.353 11.2344 110.392 11.1914 110.439 11.1367C110.486 11.082 110.533 11.0273 110.579 10.9727C110.626 10.918 110.669 10.8711 110.708 10.832C110.747 10.7852 110.771 10.7578 110.779 10.75C110.786 10.7422 110.802 10.7188 110.826 10.6797C110.857 10.6328 110.888 10.5859 110.919 10.5391C110.951 10.4844 110.978 10.4375 111.001 10.3984C111.033 10.3516 111.056 10.3242 111.072 10.3164C111.158 10.2305 111.275 10.1602 111.423 10.1055C111.579 10.043 111.704 9.96875 111.798 9.88281C111.814 9.86719 111.841 9.83984 111.88 9.80078C111.927 9.75391 111.974 9.70703 112.021 9.66016C112.068 9.60547 112.111 9.55859 112.15 9.51953C112.197 9.48047 112.224 9.45703 112.232 9.44922C112.24 9.44141 112.267 9.42969 112.314 9.41406C112.361 9.39844 112.408 9.38281 112.454 9.36719C112.509 9.34375 112.556 9.32422 112.595 9.30859C112.642 9.29297 112.673 9.28125 112.689 9.27344C112.728 9.27344 112.747 9.25391 112.747 9.21484C113.154 9.13672 113.572 9.05469 114.001 8.96875C114.431 8.88281 114.861 8.83984 115.29 8.83984C115.447 8.83984 115.599 8.85938 115.747 8.89844C115.904 8.92969 116.06 8.94531 116.216 8.94531C116.302 8.94531 116.372 8.91016 116.427 8.83984C116.482 8.76953 116.525 8.6875 116.556 8.59375C116.587 8.5 116.607 8.40234 116.615 8.30078C116.63 8.19141 116.642 8.10156 116.65 8.03125C116.665 7.67969 116.677 7.3125 116.685 6.92969C116.701 6.54688 116.708 6.16797 116.708 5.79297V5.41797C116.708 5.38672 116.704 5.32031 116.697 5.21875C116.689 5.11719 116.681 5.01172 116.673 4.90234C116.673 4.78516 116.669 4.67578 116.661 4.57422C116.654 4.47266 116.65 4.40625 116.65 4.375V4.21094V3.97656C116.65 3.86719 116.646 3.76172 116.638 3.66016C116.63 3.55078 116.607 3.45312 116.568 3.36719C116.521 3.26562 116.431 3.1875 116.298 3.13281C116.165 3.07812 116.025 3.03125 115.876 2.99219C115.736 2.95313 115.607 2.91406 115.49 2.875C115.38 2.82812 115.326 2.76953 115.326 2.69922C115.326 2.67578 115.337 2.64453 115.361 2.60547C115.392 2.55859 115.423 2.51562 115.454 2.47656C115.493 2.4375 115.533 2.40234 115.572 2.37109C115.611 2.33984 115.646 2.32422 115.677 2.32422C115.693 2.32422 115.728 2.33984 115.783 2.37109C115.845 2.39453 115.884 2.40625 115.9 2.40625C115.923 2.40625 115.954 2.39453 115.993 2.37109C116.017 2.35547 116.036 2.33984 116.052 2.32422C116.076 2.31641 116.126 2.30078 116.204 2.27734C116.29 2.24609 116.38 2.21484 116.474 2.18359C116.568 2.14453 116.658 2.11328 116.743 2.08984C116.837 2.05859 116.904 2.03906 116.943 2.03125C117.193 1.94531 117.435 1.85156 117.669 1.75C117.911 1.64844 118.169 1.59766 118.443 1.59766H118.572C118.658 1.59766 118.732 1.60938 118.794 1.63281C118.865 1.65625 118.911 1.71484 118.935 1.80859V2.44141C118.935 2.86328 118.915 3.28516 118.876 3.70703C118.845 4.12109 118.829 4.54688 118.829 4.98438C118.829 5.07031 118.833 5.13672 118.841 5.18359C118.849 5.23047 118.88 5.30859 118.935 5.41797C118.927 5.46484 118.919 5.54688 118.911 5.66406C118.904 5.78125 118.892 5.90625 118.876 6.03906C118.868 6.17188 118.861 6.29688 118.853 6.41406C118.845 6.53125 118.837 6.61328 118.829 6.66016C118.814 7.55078 118.802 8.44141 118.794 9.33203C118.794 10.2148 118.786 11.1016 118.771 11.9922C118.771 12.0234 118.767 12.0977 118.759 12.2148C118.751 12.3242 118.74 12.4492 118.724 12.5898C118.716 12.7227 118.708 12.8477 118.701 12.9648C118.693 13.0742 118.689 13.1445 118.689 13.1758V13.5039C118.689 14.1289 118.704 14.7461 118.736 15.3555C118.775 15.9648 118.786 16.582 118.771 17.207C118.794 17.3477 118.853 17.457 118.947 17.5352C119.048 17.6133 119.165 17.6758 119.298 17.7227C119.431 17.7617 119.568 17.7852 119.708 17.793C119.849 17.8008 119.97 17.8047 120.072 17.8047C120.111 17.8125 120.146 17.8477 120.177 17.9102C120.208 17.9648 120.224 18 120.224 18.0156C120.224 18.0547 120.208 18.0938 120.177 18.1328C120.154 18.1719 120.122 18.207 120.083 18.2383C120.044 18.2695 120.005 18.3008 119.966 18.332C119.927 18.3555 119.896 18.375 119.872 18.3906C119.857 18.4062 119.818 18.4219 119.755 18.4375C119.693 18.4453 119.654 18.4492 119.638 18.4492C119.38 18.5195 119.126 18.5938 118.876 18.6719C118.626 18.7422 118.368 18.8125 118.103 18.8828C117.947 18.9297 117.794 18.9805 117.646 19.0352C117.505 19.0898 117.349 19.1172 117.177 19.1172C117.021 19.1172 116.915 19.0625 116.861 18.9531C116.814 18.8438 116.779 18.7266 116.755 18.6016C116.74 18.4688 116.724 18.3477 116.708 18.2383C116.693 18.1289 116.646 18.0742 116.568 18.0742C116.552 18.0742 116.505 18.0898 116.427 18.1211C116.357 18.1445 116.306 18.1602 116.275 18.168C115.947 18.4414 115.599 18.668 115.232 18.8477C114.865 19.0273 114.47 19.1172 114.048 19.1172C113.47 19.1172 112.935 19.0352 112.443 18.8711C111.951 18.707 111.513 18.3945 111.13 17.9336C111.122 17.918 111.115 17.8984 111.107 17.875C111.091 17.8438 111.079 17.8203 111.072 17.8047C111.072 17.7969 111.064 17.7734 111.048 17.7344C111.033 17.6953 111.017 17.6562 111.001 17.6172C110.986 17.5781 110.97 17.543 110.954 17.5117C110.939 17.4727 110.927 17.4492 110.919 17.4414C110.919 17.4336 110.904 17.4258 110.872 17.418C110.849 17.4102 110.818 17.4023 110.779 17.3945C110.747 17.3867 110.716 17.3828 110.685 17.3828C110.661 17.375 110.646 17.3711 110.638 17.3711C110.505 17.3008 110.372 17.1523 110.24 16.9258C110.107 16.6992 109.986 16.4492 109.876 16.1758C109.767 15.8945 109.677 15.6211 109.607 15.3555C109.544 15.0898 109.513 14.8867 109.513 14.7461ZM121.109 16.9141V16.8906C121.117 16.8516 121.125 16.7969 121.133 16.7266C121.141 16.6562 121.148 16.5859 121.156 16.5156C121.164 16.4453 121.172 16.3828 121.18 16.3281C121.188 16.2656 121.191 16.2305 121.191 16.2227C121.199 16.168 121.207 16.1016 121.215 16.0234C121.23 15.9375 121.254 15.8555 121.285 15.7773C121.316 15.6914 121.355 15.6211 121.402 15.5664C121.449 15.5039 121.512 15.4727 121.59 15.4727C121.637 15.4727 121.672 15.4766 121.695 15.4844C121.719 15.4922 121.746 15.5234 121.777 15.5781C121.809 15.6641 121.828 15.7578 121.836 15.8594C121.852 15.9531 121.879 16.0469 121.918 16.1406C121.918 16.1562 121.926 16.1836 121.941 16.2227C121.965 16.2539 121.984 16.2812 122 16.3047C122.078 16.4688 122.164 16.6562 122.258 16.8672C122.352 17.0703 122.453 17.2695 122.562 17.4648C122.68 17.6602 122.809 17.8398 122.949 18.0039C123.098 18.1602 123.266 18.2695 123.453 18.332C123.469 18.3477 123.516 18.3555 123.594 18.3555C123.664 18.3555 123.738 18.3516 123.816 18.3438C123.895 18.3359 123.945 18.332 123.969 18.332C123.977 18.332 124.02 18.3477 124.098 18.3789C124.176 18.4023 124.23 18.4141 124.262 18.4141H124.344H124.402C124.645 18.3672 124.863 18.3008 125.059 18.2148C125.262 18.1289 125.434 18.0195 125.574 17.8867C125.715 17.7539 125.824 17.5938 125.902 17.4062C125.98 17.2109 126.02 16.9805 126.02 16.7148V16.3633C126.004 16.332 125.977 16.2734 125.938 16.1875C125.906 16.0938 125.871 15.9961 125.832 15.8945C125.793 15.793 125.754 15.6992 125.715 15.6133C125.684 15.5273 125.66 15.4688 125.645 15.4375C125.574 15.3125 125.488 15.207 125.387 15.1211C125.285 15.0273 125.176 14.9492 125.059 14.8867C124.941 14.8164 124.82 14.7539 124.695 14.6992C124.57 14.6445 124.453 14.5938 124.344 14.5469C124.305 14.5469 124.27 14.5352 124.238 14.5117C124.215 14.5039 124.195 14.4922 124.18 14.4766C124.172 14.4609 124.137 14.4336 124.074 14.3945C124.012 14.3555 123.977 14.3359 123.969 14.3359C123.938 14.3359 123.871 14.3281 123.77 14.3125C123.668 14.2891 123.609 14.2695 123.594 14.2539C123.562 14.2383 123.512 14.2148 123.441 14.1836C123.379 14.1523 123.309 14.1172 123.23 14.0781C123.152 14.0391 123.078 14.0039 123.008 13.9727C122.945 13.9336 122.898 13.9023 122.867 13.8789C122.82 13.8477 122.75 13.8047 122.656 13.75C122.57 13.6953 122.484 13.6406 122.398 13.5859C122.32 13.5312 122.246 13.4844 122.176 13.4453C122.113 13.4062 122.082 13.3867 122.082 13.3867C121.957 13.3008 121.848 13.1758 121.754 13.0117C121.668 12.8398 121.598 12.6953 121.543 12.5781C121.527 12.5312 121.508 12.4766 121.484 12.4141C121.461 12.3516 121.438 12.2891 121.414 12.2266C121.391 12.1641 121.371 12.1133 121.355 12.0742C121.34 12.0273 121.332 12 121.332 11.9922V10.6914C121.332 10.6758 121.34 10.6406 121.355 10.5859C121.379 10.5312 121.395 10.4883 121.402 10.457C121.434 10.4023 121.477 10.3203 121.531 10.2109C121.586 10.1016 121.641 9.99219 121.695 9.88281C121.75 9.77344 121.797 9.67578 121.836 9.58984C121.883 9.50391 121.91 9.45312 121.918 9.4375C121.973 9.34375 122.039 9.26953 122.117 9.21484C122.195 9.16016 122.273 9.10938 122.352 9.0625C122.438 9.01562 122.516 8.96875 122.586 8.92188C122.664 8.86719 122.73 8.80078 122.785 8.72266C122.816 8.71484 122.867 8.70312 122.938 8.6875C123.016 8.67188 123.098 8.65625 123.184 8.64062C123.277 8.625 123.359 8.60938 123.43 8.59375C123.508 8.57812 123.562 8.57031 123.594 8.57031C123.609 8.57031 123.645 8.55859 123.699 8.53516C123.762 8.50391 123.797 8.48828 123.805 8.48828H124.18C124.195 8.48047 124.215 8.47266 124.238 8.46484C124.254 8.45703 124.27 8.44922 124.285 8.44141C124.309 8.43359 124.328 8.42969 124.344 8.42969H124.461C124.711 8.42969 124.918 8.45312 125.082 8.5C125.246 8.54688 125.434 8.62109 125.645 8.72266C125.652 8.72266 125.684 8.73047 125.738 8.74609C125.801 8.75391 125.84 8.76562 125.855 8.78125C125.902 8.80469 125.945 8.83594 125.984 8.875C126.023 8.91406 126.062 8.95703 126.102 9.00391C126.141 9.04297 126.18 9.07812 126.219 9.10938C126.266 9.14062 126.316 9.15625 126.371 9.15625C126.426 9.15625 126.477 9.14062 126.523 9.10938C126.57 9.07812 126.613 9.04297 126.652 9.00391C126.691 8.95703 126.73 8.91797 126.77 8.88672C126.816 8.85547 126.871 8.83984 126.934 8.83984C127.121 8.83984 127.246 8.9375 127.309 9.13281V9.55469V9.94141C127.301 10.1992 127.289 10.4688 127.273 10.75C127.258 11.0234 127.199 11.2852 127.098 11.5352C127.082 11.5898 127.059 11.6211 127.027 11.6289C127.004 11.6367 126.973 11.6406 126.934 11.6406C126.863 11.6406 126.777 11.5859 126.676 11.4766C126.574 11.3594 126.477 11.2266 126.383 11.0781C126.297 10.9219 126.219 10.7656 126.148 10.6094C126.078 10.4531 126.035 10.3281 126.02 10.2344V10.1055C125.996 9.96484 125.949 9.85156 125.879 9.76562C125.809 9.67188 125.723 9.59375 125.621 9.53125C125.527 9.46875 125.422 9.41406 125.305 9.36719C125.195 9.3125 125.082 9.26172 124.965 9.21484C124.957 9.21484 124.914 9.19141 124.836 9.14453C124.758 9.09766 124.703 9.07031 124.672 9.0625C124.656 9.07812 124.633 9.08984 124.602 9.09766C124.578 9.10547 124.551 9.11328 124.52 9.12109C124.496 9.12891 124.477 9.13281 124.461 9.13281C124.234 9.24219 124.027 9.33984 123.84 9.42578C123.652 9.51172 123.492 9.61719 123.359 9.74219C123.227 9.86719 123.121 10.0234 123.043 10.2109C122.965 10.3906 122.926 10.625 122.926 10.9141C122.926 11.1094 122.969 11.2734 123.055 11.4062C123.141 11.5312 123.246 11.6406 123.371 11.7344C123.504 11.8203 123.648 11.9023 123.805 11.9805C123.969 12.0508 124.121 12.125 124.262 12.2031C124.41 12.3047 124.559 12.4062 124.707 12.5078C124.855 12.6016 125.016 12.6719 125.188 12.7188C125.273 12.7422 125.371 12.7695 125.48 12.8008C125.59 12.832 125.699 12.8672 125.809 12.9062C125.918 12.9453 126.023 12.9883 126.125 13.0352C126.227 13.082 126.309 13.1289 126.371 13.1758C126.785 13.4805 127.105 13.8516 127.332 14.2891C127.566 14.7266 127.684 15.207 127.684 15.7305C127.684 16.0273 127.633 16.3281 127.531 16.6328C127.43 16.9297 127.305 17.2148 127.156 17.4883C126.758 18.0273 126.262 18.4141 125.668 18.6484C125.074 18.8828 124.449 19 123.793 19H123.676C123.66 19 123.621 18.9883 123.559 18.9648C123.504 18.9336 123.469 18.918 123.453 18.918C123.414 18.9102 123.352 18.8945 123.266 18.8711C123.188 18.8477 123.105 18.8242 123.02 18.8008C122.934 18.7773 122.852 18.7578 122.773 18.7422C122.703 18.7188 122.656 18.707 122.633 18.707C122.453 18.6523 122.277 18.6016 122.105 18.5547C121.941 18.5 121.781 18.4062 121.625 18.2734C121.602 18.2578 121.566 18.2344 121.52 18.2031C121.48 18.1719 121.438 18.1367 121.391 18.0977C121.344 18.0586 121.301 18.0195 121.262 17.9805C121.223 17.9336 121.199 17.8867 121.191 17.8398C121.191 17.832 121.188 17.793 121.18 17.7227C121.172 17.6523 121.164 17.5703 121.156 17.4766C121.148 17.3828 121.141 17.2891 121.133 17.1953C121.125 17.0938 121.117 17.0117 121.109 16.9492V16.9141Z" fill="#F3F3CD"/>
</svg>
