<svg width="95" height="138" viewBox="0 0 95 138" fill="none" xmlns="http://www.w3.org/2000/svg">
<path d="M37.3827 0.0256956L43.429 35.0728L74.6791 41.9004L43.4196 48.685L37.3251 83.7237L31.2789 48.6766L0.0288073 41.849L31.2883 35.0644L37.3827 0.0256956Z" fill="#816E94"/>
<path d="M68.5621 81.2435L68.7475 81.8869L69.4129 81.9606L86.1937 83.8206L70.3746 89.7207L69.7473 89.9546L69.7246 90.6238L69.0766 109.755L63.778 91.3607L63.5926 90.7174L62.9272 90.6436L46.1464 88.7837L61.9655 82.8836L62.5928 82.6496L62.6154 81.9805L63.2635 62.8491L68.5621 81.2435Z" stroke="#816E94" stroke-width="2"/>
<path d="M36.3147 98.0011L40.261 113.66L50.8147 115.488L41.0267 119.838L41.0222 135.986L37.0759 120.327L26.5222 118.499L36.3103 114.15L36.3147 98.0011Z" fill="#816E94"/>
</svg>
