<svg width="51" height="93" viewBox="0 0 51 93" fill="none" xmlns="http://www.w3.org/2000/svg">
<rect x="15" y="1" width="23" height="43" rx="5" fill="#091D12" stroke="#816E94" stroke-width="2"/>
<path d="M28 54C28 51.2386 30.2386 49 33 49H45C47.7614 49 50 51.2386 50 54V87C50 89.7614 47.7614 92 45 92H33C30.2386 92 28 89.7614 28 87V54Z" fill="#091D12" stroke="#816E94" stroke-width="2"/>
<path d="M1 54C1 51.2386 3.23858 49 6 49H18C20.7614 49 23 51.2386 23 54V87C23 89.7614 20.7614 92 18 92H6C3.23858 92 1 89.7614 1 87V54Z" fill="#091D12" stroke="#816E94" stroke-width="2"/>
<path d="M27.0104 8.72387L27.9701 21.0757L35.5049 22.6677L27.9679 24.2492L26.9912 36.5997L26.0316 24.2479L18.4968 22.6559L26.0338 21.0744L27.0104 8.72387Z" fill="#816E94"/>
</svg>
