<svg width="74" height="68" viewBox="0 0 74 68" fill="none" xmlns="http://www.w3.org/2000/svg">
<path d="M53.0032 0.0141144L55.3167 29.7932L73.4825 33.6312L55.3115 37.4442L52.9569 67.2201L50.6433 37.441L32.4776 33.603L50.6486 29.79L53.0032 0.0141144Z" fill="#816E94"/>
<path d="M20.7857 39.499L20.4026 36.5439L21.0342 39.4547C21.6368 42.2314 24.2541 44.0808 27.0725 43.7213L30.2837 43.3116L27.1272 44.0372C24.3568 44.6741 22.5167 47.3182 22.8822 50.1372L23.2653 53.0923L22.6337 50.1815C22.0311 47.4047 19.4138 45.5553 16.5954 45.9149L13.3842 46.3245L16.5407 45.5989C19.3111 44.9621 21.1512 42.318 20.7857 39.499Z" stroke="#816E94"/>
</svg>
