<svg width="92" height="92" viewBox="0 0 92 92" fill="none" xmlns="http://www.w3.org/2000/svg">
<path d="M46 92C71.1647 92 92 71.1196 92 46C92 20.8353 71.1196 0 45.9549 0C20.8353 0 0 20.8353 0 46C0 71.1196 20.8804 92 46 92ZM45.9098 53.7118C37.251 53.6216 30.4412 46.4059 30.4412 36.7098C30.3961 27.6 37.2961 20.0235 45.9098 20.0235C54.5686 20.0235 61.3784 27.6 61.3784 36.7098C61.3784 46.4059 54.6137 53.802 45.9098 53.7118ZM45.9098 85.1451C35.5824 85.1451 25.1196 80.9059 18.2196 73.5549C23.0902 65.8882 33.6882 61.3784 45.9098 61.3784C58.0412 61.3784 68.7294 65.798 73.6451 73.5549C66.7 80.9059 56.2824 85.1451 45.9098 85.1451Z" fill="#816E94"/>
</svg>
